<?xml version="1.0" encoding="UTF-8" standalone="no"?>
<svg
   viewBox="0 0 24 24"
   version="1.1"
   id="svg138"
   sodipodi:docname="search.svg"
   inkscape:version="1.2 (dc2aedaf03, 2022-05-15)"
   xmlns:inkscape="http://www.inkscape.org/namespaces/inkscape"
   xmlns:sodipodi="http://sodipodi.sourceforge.net/DTD/sodipodi-0.dtd"
   xmlns="http://www.w3.org/2000/svg"
   xmlns:svg="http://www.w3.org/2000/svg">
  <defs
     id="defs142" />
  <sodipodi:namedview
     id="namedview140"
     pagecolor="#ffffff"
     bordercolor="#666666"
     borderopacity="1.0"
     inkscape:showpageshadow="2"
     inkscape:pageopacity="0.0"
     inkscape:pagecheckerboard="0"
     inkscape:deskcolor="#d1d1d1"
     showgrid="false"
     inkscape:zoom="34.708333"
     inkscape:cx="9.7382953"
     inkscape:cy="12"
     inkscape:window-width="1920"
     inkscape:window-height="991"
     inkscape:window-x="2551"
     inkscape:window-y="349"
     inkscape:window-maximized="1"
     inkscape:current-layer="svg138" />
  <g
     id="search"
     style="fill:#7e7e7e;fill-opacity:1">
    <path
       d="M10.77,18.3a7.53,7.53,0,1,1,7.53-7.53A7.53,7.53,0,0,1,10.77,18.3Zm0-13.55a6,6,0,1,0,6,6A6,6,0,0,0,10.77,4.75Z"
       id="path133"
       style="fill:#7e7e7e;fill-opacity:1" />
    <path
       d="M20,20.75a.74.74,0,0,1-.53-.22L15.34,16.4a.75.75,0,0,1,1.06-1.06l4.13,4.13a.75.75,0,0,1,0,1.06A.74.74,0,0,1,20,20.75Z"
       id="path135"
       style="fill:#7e7e7e;fill-opacity:1" />
  </g>
</svg>
