<svg height="2500" viewBox="0 0 192.756 192.756" width="2500" xmlns="http://www.w3.org/2000/svg"><g clip-rule="evenodd" fill-rule="evenodd"><path d="m0 0h192.756v192.756h-192.756z" fill="#fff"/><path d="m184.252 37.908h-130.797l-44.951 116.941h130.797z" fill="#fff"/><path d="m137.443 152.145h-125.003l42.872-111.533h125.004z" fill="#1e71b8"/><path d="m72.501 58.525c-7.089 0-13.507 2.873-18.152 7.519s-7.519 11.063-7.519 18.153a25.593 25.593 0 0 0 7.519 18.153l20.982 20.82a6.065 6.065 0 0 1 1.782 4.302 6.067 6.067 0 0 1 -1.782 4.303 6.068 6.068 0 0 1 -4.302 1.781h-52.168l-7.436 18.928h58.688a25.592 25.592 0 0 0 18.153-7.52c4.646-4.646 7.519-11.064 7.519-18.153s-2.873-13.507-7.519-18.151l-20.982-20.823c-1.101-1.101-1.782-2.623-1.782-4.302s.681-3.201 1.782-4.302a6.07 6.07 0 0 1 4.302-1.781h50.473l-28.842 75.031h19.893l28.842-75.031h25.402l7.773-18.927z" fill="#fff"/></g></svg>