<svg viewBox="0 0 100 100" xmlns="http://www.w3.org/2000/svg"><circle cx="50" cy="50" fill="#fff" r="49"/><circle cx="50" cy="50" fill="none" r="48.39" stroke="#8d8991"/><path d="m50.94 93.99h-1.83s0-.07.03-.09c.38-.1.76-.04 1.14-.05.21 0 .43-.04.63.05.03.02.04.05.03.09z" fill="#adadad"/><path d="m93.99 49.6v.86s-.06 0-.08-.02c-.08-.27-.08-.54 0-.81.02-.03.05-.04.08-.02z" fill="#adadad"/><path d="m93.99 49.6s-.03 0-.05 0c-.14-.23-.1-.48-.04-.72.02-.03.05-.04.09-.02v.75z" fill="#c8c8c8"/><path d="m93.95 50.46s.03 0 .05 0v.75s-.06 0-.08-.02c-.06-.24-.11-.49.04-.72z" fill="#c7c7c7"/><path d="m49.11 93.94s0 .03 0 .05h-.54s0-.06.02-.08c.17-.06.35-.09.51.03z" fill="#c9c9c9"/><path d="m50.94 93.99s0-.03 0-.05c.16-.12.34-.09.51-.03.03.02.04.05.02.08h-.54z" fill="#c9c9c9"/><path d="m93.99 48.85s-.03 0-.05 0c-.12-.14-.12-.29 0-.43h.04v.43z" fill="#e2e2e2"/><path d="m93.95 51.21s.03 0 .04 0v.43h-.02s-.02 0-.02 0c-.12-.14-.12-.29 0-.43z" fill="#e2e2e2"/><path d="m51.48 93.99s0-.03 0-.05c.13-.1.25-.11.38 0v.05z" fill="#e4e4e4"/><path d="m48.57 93.95s0 .03 0 .05h-.38s0-.03 0-.05c.12-.11.25-.11.38 0z" fill="#e4e4e4"/><path d="m48.57 93.95c-.13 0-.25 0-.38 0-4.18-.17-8.25-.91-12.2-2.25-5.11-1.73-9.75-4.29-13.91-7.73-5.12-4.24-9.11-9.36-11.93-15.39-1.51-3.23-2.6-6.59-3.28-10.09-.32-1.65-.54-3.31-.67-4.99-.11-1.5-.18-3-.13-4.5.08-3.03.45-6.02 1.14-8.97.86-3.69 2.18-7.21 3.95-10.56 1.56-2.94 3.43-5.67 5.61-8.19 3.65-4.2 7.92-7.61 12.84-10.19 3.87-2.03 7.96-3.45 12.25-4.26 1.58-.3 3.17-.5 4.78-.62 1.37-.1 2.75-.16 4.12-.13 1.98.05 3.96.2 5.92.5 3.35.51 6.6 1.4 9.74 2.67 4.24 1.71 8.13 4.02 11.65 6.95 4.49 3.74 8.11 8.18 10.84 13.34 1.65 3.13 2.9 6.41 3.76 9.84.49 1.98.85 3.98 1.05 6.01.1 1 .18 2.01.21 3.02v.43.75.87.75.43c-.07 1.94-.27 3.86-.59 5.78-.53 3.17-1.42 6.25-2.63 9.22-1.6 3.93-3.73 7.56-6.39 10.87-3.67 4.55-8.05 8.26-13.18 11.07-4.06 2.23-8.37 3.78-12.93 4.64-1.54.29-3.1.51-4.67.61-.57.04-1.14.07-1.71.11-.13 0-.25 0-.38 0-.18 0-.36 0-.54 0-.61 0-1.22 0-1.83 0-.18 0-.36 0-.54 0z" fill="#939392"/><path d="m47.51 92.77c-10.8-.76-20.12-4.86-27.77-12.53s-11.73-17-12.45-27.8c-.06-.28.02-.57-.05-.86 0-.16 0-.32 0-.49-.03-.71-.03-1.43 0-2.14.02-.27.03-.54.05-.81-.01-.18-.03-.35 0-.53.26-3.99.99-7.89 2.32-11.66 1.4-3.99 3.34-7.71 5.84-11.13 1.13-1.54 2.35-2.99 3.67-4.37 2.79-2.93 5.94-5.41 9.44-7.44 2.53-1.47 5.19-2.67 7.96-3.6 2-.67 4.04-1.18 6.13-1.54 1.08-.18 2.16-.34 3.25-.43.61-.05 1.22-.11 1.84-.16.21-.04.42 0 .63-.02.31-.01.62-.02.93-.03.5-.03 1-.03 1.5 0l.93.03c.21.01.42-.02.63.02 3.74.24 7.4.88 10.96 2.05 4.54 1.49 8.73 3.67 12.54 6.56 1.32 1 2.57 2.07 3.77 3.22 3.21 3.06 5.88 6.55 8 10.44 1.86 3.41 3.23 7 4.11 10.78.31 1.33.56 2.68.73 4.04.12.95.23 1.89.27 2.84 0 .13.03.26.05.4.04.19.01.38.02.58.01.27.03.55.04.82.03.7.03 1.39 0 2.09-.02.27-.03.54-.05.81.01.18.03.35 0 .53-.26 3.98-.99 7.86-2.31 11.63-1.14 3.25-2.63 6.32-4.5 9.21-1.23 1.9-2.61 3.68-4.12 5.37-2.51 2.8-5.35 5.23-8.5 7.28-3.83 2.49-7.95 4.32-12.37 5.48-1.48.39-2.97.7-4.49.92-1.15.17-2.31.31-3.47.37-.15 0-.3.04-.45.05-.27.06-.54-.03-.81.05-.14 0-.29 0-.43 0-.86.03-1.71.03-2.57 0-.14 0-.29 0-.43 0-.27-.07-.54.01-.81-.05z" fill="#0c6cad"/><path d="m48.74 92.82h2.57c-.86.08-1.71.08-2.57 0z" fill="#949eaf"/><path d="m7.23 48.96v2.14c-.07-.07-.04-.17-.05-.25 0-.54 0-1.09 0-1.63 0-.09-.03-.18.04-.25z" fill="#9ca1a9"/><path d="m92.82 51.1c0-.7 0-1.39 0-2.09.07.07.04.17.04.25v1.58c0 .09.03.18-.04.25z" fill="#9ca1a8"/><path d="m50.78 7.23c-.5 0-1 0-1.5 0 .5-.08 1-.08 1.5 0z" fill="#9ca1a8"/><path d="m7.24 51.59c.09.28.04.57.05.86-.11-.28-.02-.57-.05-.86z" fill="#949eae"/><path d="m51.74 92.81c.26-.08.54-.05.81-.05-.26.1-.54.02-.81.05z" fill="#929dad"/><path d="m47.51 92.77c.27 0 .54-.04.81.05-.27-.02-.54.06-.81-.05z" fill="#929dad"/><path d="m48.35 7.27c-.21.05-.42.03-.63.02.21-.09.42-.05.63-.02z" fill="#959ead"/><path d="m52.33 7.29c-.21 0-.42.03-.63-.02.21-.03.42-.07.63.02z" fill="#959ead"/><path d="m92.78 48.19c-.04-.19-.02-.38-.02-.58.08.19.06.38.02.58z" fill="#959eac"/><path d="m92.77 52.44c0-.18 0-.35 0-.53.06.18.07.35 0 .53z" fill="#959fae"/><path d="m7.29 47.61v.53c-.06-.18-.07-.35 0-.53z" fill="#959fae"/><path d="m52.11 18.32c3.86.25 7.55 1.18 11.07 2.77 2.61 1.18 5.02 2.69 7.21 4.53 1.87 1.56 3.53 3.3 5 5.24 2.03 2.67 3.59 5.58 4.69 8.74.64 1.83 1.11 3.69 1.4 5.61.15 1.03.29 2.06.31 3.1 0 .13.07.26.03.4 0 .34-.03.67.02 1.01v.76c-.04.34-.02.67-.01 1.01-.04.78-.1 1.56-.19 2.34-.12.99-.28 1.97-.48 2.94-.47 2.27-1.21 4.45-2.16 6.56-.99 2.19-2.22 4.23-3.69 6.14-.7.91-1.46 1.78-2.25 2.62-2.05 2.16-4.36 3.99-6.92 5.5-2.45 1.44-5.05 2.53-7.79 3.28-1.27.35-2.56.61-3.86.79-.79.11-1.59.22-2.39.23-.14 0-.28.02-.42.04-.21-.02-.42-.03-.64 0-.68.06-1.36.06-2.05 0-.21-.04-.42-.02-.64 0-.86-.05-1.72-.13-2.57-.24-1.46-.19-2.89-.48-4.31-.87-2.64-.74-5.15-1.8-7.51-3.18-2.18-1.28-4.18-2.8-6.01-4.55-2.38-2.28-4.35-4.87-5.93-7.76-1.36-2.5-2.36-5.13-3.01-7.89-.28-1.19-.49-2.4-.62-3.62-.08-.77-.15-1.54-.18-2.31 0-.39.03-.78-.02-1.17v-.44c.04-.37.02-.74.01-1.12.04-.6.06-1.21.13-1.81.08-.7.16-1.39.27-2.09.24-1.5.6-2.96 1.06-4.4.5-1.58 1.11-3.1 1.85-4.58 1.02-2.03 2.24-3.94 3.67-5.71.92-1.14 1.91-2.22 2.98-3.23 1.97-1.85 4.13-3.44 6.49-4.74 2.64-1.45 5.43-2.51 8.37-3.17 1.13-.26 2.27-.44 3.42-.56.5-.05.99-.08 1.49-.13.16 0 .32.03.47-.01.11 0 .21 0 .32-.01.48-.05.96-.02 1.44-.02.38 0 .77-.03 1.15.02.11 0 .21 0 .32.01.16.04.32.02.47.01z" fill="#939392"/><path d="m28.07 80.33c.02.51-.1.63-.58.57-2.04-.25-3.88-.95-5.35-2.44-.38-.38-.7-.81-.97-1.28-.15-.26-.14-.48 0-.73.18-.3.41-.57.65-.82.52-.54 1.07-1.06 1.67-1.5.18-.13.37-.25.57-.36.24-.13.47-.12.7.04 1.1.73 1.88 1.72 2.43 2.9.55 1.15.8 2.38.88 3.62z" fill="#f5f5f5"/><path d="m72.2 80.23c.14-1.98.73-3.89 2.18-5.47.32-.35.69-.64 1.08-.92.28-.2.54-.19.82-.03.49.27.91.64 1.32 1.01.5.45.98.91 1.38 1.45.25.35.29.66.05 1.05-.87 1.38-2.11 2.31-3.6 2.92-.85.35-1.73.56-2.64.66-.49.05-.6-.06-.58-.67z" fill="#f5f5f5"/><path d="m83.84 31.34c-1 .17-2.01.34-3.01.52-.42.07-.84.15-1.27.22-.1.02-.21.06-.29-.06s.01-.2.08-.28c.81-1.08 1.61-2.16 2.42-3.24.05-.07.13-.14.15-.29-.61.37-1.18.71-1.74 1.06-.37.23-.76.44-1.11.71-.24.18-.36.4-.21.69.06.13.05.22-.08.29-.14.08-.19-.04-.25-.13-.26-.43-.52-.85-.78-1.28-.06-.1-.11-.19 0-.28.11-.08.18-.05.28.04.36.34.43.37.86.11 1.17-.69 2.33-1.4 3.48-2.11.33-.21.34-.3.19-.67-.05-.12-.11-.23.05-.32.18-.1.21.06.27.16.2.32.38.65.59.96.11.16.09.28-.02.43-.83 1.1-1.65 2.2-2.47 3.31-.01.12.06.09.12.07 1.2-.21 2.39-.42 3.59-.62.79-.13.55-.24.97.43.14.22.27.44.41.66.06.1.13.21-.01.3-.11.07-.19.02-.27-.07-.28-.3-.36-.32-.71-.1-1.19.72-2.38 1.45-3.57 2.18-.33.21-.34.27-.21.66.05.13.05.22-.09.29-.15.07-.19-.04-.24-.13-.32-.52-.63-1.04-.95-1.56-.06-.1-.13-.21 0-.3s.21 0 .29.09c.27.3.32.32.69.1.98-.58 1.95-1.19 2.93-1.78.03-.15-.07-.06-.12-.06z" fill="#f5f5f5"/><path d="m20.08 25.25c.47.78.95 1.57 1.42 2.35.31.51.62 1.02.93 1.54.05.09.14.18.05.29s-.2.05-.29.03c-1.3-.36-2.6-.72-3.9-1.08-.09-.03-.18-.07-.31-.01.87.65 1.72 1.31 2.58 1.94.37.27.46.25.83-.03.09-.07.17-.09.26 0 .1.09.07.17 0 .26-.32.42-.64.84-.96 1.26-.06.08-.12.14-.22.07s-.13-.14-.08-.27c.2-.46.2-.54-.21-.86-1.06-.83-2.12-1.64-3.19-2.45-.34-.26-.42-.24-.73.06-.09.09-.17.16-.29.05-.11-.1-.05-.19.02-.28.25-.33.5-.65.75-.98.1-.14.21-.13.35-.09l3.87 1.08c.07.02.14.03.22.05.01-.08-.04-.13-.07-.19-.69-1.15-1.38-2.3-2.09-3.44-.1-.17-.1-.28.02-.42.25-.31.49-.64.74-.96.06-.08.11-.17.24-.08.11.08.12.16.07.27-.19.43-.18.48.21.77 1.05.81 2.1 1.61 3.15 2.41.41.31.43.31.84 0 .1-.08.18-.06.26 0 .09.08.06.15 0 .23-.39.51-.78 1.02-1.17 1.53-.07.09-.14.13-.25.06-.1-.07-.1-.15-.05-.26.2-.47.2-.49-.2-.8-.9-.7-1.81-1.39-2.72-2.09-.02.01-.03.02-.05.03z" fill="#f5f5f5"/><path d="m43.44 89.75c-.88-.01-1.73-.25-2.59-.4-.3-.05-.6-.12-.89-.17-.12-.02-.21-.06-.18-.2.02-.13.11-.14.22-.13h.13c.4 0 .47-.05.55-.45.19-.95.37-1.91.55-2.87.04-.23.09-.46.13-.68.07-.36 0-.45-.34-.58-.05-.02-.1-.03-.15-.05-.12-.03-.16-.1-.13-.22s.11-.12.21-.1c.4.08.81.15 1.21.23.87.17 1.77.28 2.58.69.74.37 1.34.87 1.54 1.71.36 1.49-.59 2.91-2.11 3.18-.24.04-.48.06-.72.06z" fill="#f5f5f5"/><path d="m55.33 11.48c0 .86-.4 1.37-1.25 1.55-.2.04-.18.09-.1.24.4.68.79 1.36 1.18 2.04.11.19.25.35.47.41.14.03.16.12.15.24-.02.15-.13.12-.22.12-.32-.03-.64-.07-.96-.09-.16 0-.23-.1-.3-.22-.47-.82-.94-1.64-1.42-2.46-.04-.06-.06-.14-.12-.18-.09-.06-.19-.08-.21.08-.05.61-.1 1.21-.15 1.82-.02.28.17.37.39.42.13.03.25.05.23.23-.03.19-.17.14-.29.13-.58-.05-1.16-.11-1.73-.17-.11-.01-.27.01-.27-.18s.14-.18.27-.18c.28-.01.41-.17.43-.44.08-.88.17-1.76.26-2.64.05-.5.09-1 .14-1.49.04-.43-.02-.54-.42-.67-.13-.04-.17-.11-.15-.23.01-.11.08-.14.17-.13.89.11 1.79.1 2.66.31.81.19 1.25.74 1.25 1.49z" fill="#f5f5f5"/><path d="m16.32 40.98c.07-.25-.09-.38-.31-.46-.61-.22-1.23-.43-1.84-.65-.7-.24-1.4-.48-2.1-.72-.45-.15-.49-.13-.74.25-.06.1-.12.14-.24.1-.13-.05-.13-.14-.09-.24.28-.78.49-1.59.84-2.34.25-.54.62-.96 1.26-1.04.96-.12 1.77.56 1.76 1.53 0 .27.05.3.3.22.71-.23 1.44-.43 2.16-.64.22-.06.42-.16.53-.37.06-.12.15-.14.27-.08.13.07.08.16.05.25-.06.17-.14.33-.17.51-.07.48-.37.66-.81.76-.8.2-1.58.45-2.37.69-.09.03-.2.03-.22.16-.02.15.12.13.2.16.5.17.99.35 1.5.51.35.11.43.07.61-.25.06-.11.1-.24.28-.17s.1.2.06.31c-.18.53-.36 1.07-.55 1.59-.04.11 0 .33-.23.27-.22-.05-.14-.21-.13-.37z" fill="#f5f5f5"/><path d="m9.72 53.36c.02-.91.21-1.69.85-2.31.93-.9 3.28-1.17 4.43.17.49.56.64 1.24.7 1.96.05.65.09 1.3.14 1.95 0 .1.05.22-.12.25-.15.02-.2-.06-.24-.19-.13-.42-.14-.44-.58-.41-1.24.08-2.48.17-3.71.26-.19.01-.37.03-.56.05-.25.03-.38.17-.38.43 0 .14 0 .29-.2.28-.18-.01-.16-.16-.17-.28-.05-.74-.1-1.48-.15-2.15z" fill="#f5f5f5"/><path d="m35.51 16.66c-.32-.67-.61-1.28-.91-1.88-.15-.31-.29-.63-.49-.92-.16-.23-.35-.35-.63-.23-.12.05-.23.06-.29-.08-.07-.16.05-.2.15-.26.45-.22.9-.43 1.35-.65.11-.05.21-.08.27.05.06.1.01.18-.07.25-.35.31-.39.4-.19.83.33.72.68 1.44 1.02 2.15s.69 1.41 1.02 2.12c.05.1.16.2.05.31-.12.12-.25.04-.37-.03-1.47-.82-2.95-1.64-4.42-2.47-.07-.04-.14-.08-.27-.15.16.33.28.61.42.88.3.62.59 1.24.9 1.86.09.19.2.38.32.56.13.21.31.31.57.21.13-.05.27-.07.33.11.06.19-.11.2-.21.24-.43.22-.87.42-1.3.63-.1.05-.2.11-.27-.03-.06-.11-.03-.19.07-.28.39-.33.41-.37.2-.84-.42-.91-.86-1.81-1.29-2.71-.14-.29-.28-.58-.42-.87-.15-.3-.42-.43-.75-.33-.13.04-.23.04-.28-.1-.06-.15.05-.19.15-.23.3-.15.61-.29.91-.45.14-.07.25-.04.37.03 1.24.69 2.48 1.38 3.72 2.07.09.05.18.1.33.18z" fill="#f5f5f5"/><path d="m88.44 56.26c-.55-.11-1.05-.21-1.54-.31-.53-.1-1.05-.21-1.58-.3-.16-.03-.32-.03-.48-.05-.27-.03-.45.08-.53.34-.04.11-.08.23-.24.19-.19-.05-.14-.18-.11-.3.09-.48.19-.96.28-1.45.02-.11.05-.22.2-.19.11.02.17.09.16.21-.03.55.2.6.58.68 1.06.23 2.14.44 3.2.65.21.04.42.08.63.12.37.07.6-.05.75-.41.05-.12.11-.17.24-.14.16.04.12.15.1.25-.06.32-.14.63-.19.95-.03.19-.12.28-.28.35-1.31.57-2.61 1.15-3.92 1.73-.08.04-.16.08-.3.14 1.05.19 2.02.45 3.02.56.41.05.46 0 .63-.38.05-.11.1-.19.24-.15.15.04.14.14.11.25-.1.5-.2 1-.3 1.5-.02.1-.04.2-.18.18-.12-.01-.17-.06-.18-.19-.04-.49-.08-.57-.56-.68-.88-.2-1.77-.36-2.65-.54-.67-.13-1.33-.26-2-.4-.1-.02-.26 0-.27-.16s.11-.2.23-.25c1.54-.68 3.09-1.37 4.63-2.05.08-.04.16-.07.29-.14z" fill="#f5f5f5"/><path d="m12.84 41.16c.86.02 1.67.2 2.36.74.78.61 1.15 1.41.99 2.4-.16 1-.78 1.64-1.73 1.92-1.19.36-2.33.18-3.35-.53-.87-.61-1.26-1.48-1.03-2.55.23-1.09.97-1.66 2.01-1.92.24-.06.49-.07.75-.07z" fill="#f5f5f5"/><path d="m46.62 15.82c-.18.01-.36.03-.53.04-.1 0-.2 0-.21-.14-.01-.12.02-.19.14-.21.48-.08.49-.2.47-.67-.06-1.36-.13-2.71-.21-4.07-.02-.42-.08-.46-.49-.52-.12-.02-.2-.06-.21-.19 0-.16.11-.16.22-.17 1.26-.06 2.52-.12 3.77-.19.17 0 .24.05.25.23.01.33.05.66.07.99 0 .09.02.19-.11.2-.12.01-.24.03-.27-.13-.13-.62-.22-.76-1.14-.7-.29.02-.59.03-.88.03-.2 0-.26.08-.25.28.04.54.07 1.09.09 1.63 0 .14.05.19.19.18.34-.03.68-.03 1.02-.06.38-.03.46-.11.55-.5.02-.07.03-.14.04-.21 0-.13.1-.17.2-.17.12 0 .17.07.17.19.03.61.06 1.21.1 1.82 0 .1 0 .18-.13.2-.11.01-.21 0-.25-.14-.16-.69-.27-.66-.97-.64-.28.01-.65-.06-.83.09-.16.14-.02.52-.01.79 0 .39.04.79.06 1.18 0 .21.09.31.31.3.4-.01.8-.03 1.2-.09.47-.07.78-.32.96-.76.04-.09.08-.18.11-.27.05-.17.2-.15.31-.13.15.02.09.14.07.23-.07.4-.15.81-.22 1.21-.03.16-.09.22-.26.23-1.11.05-2.21.11-3.32.17z" fill="#f5f5f5"/><path d="m79.96 68.5c0 .32.17.57.33.81.04.06.09.11.12.18.06.12-.02.21-.1.28-.09.08-.16 0-.23-.06-.31-.28-.61-.57-.93-.85-.11-.1-.12-.18-.05-.3.64-1.13 1.28-2.27 1.92-3.41.05-.08.09-.15.21-.1.1.05.14.12.12.23-.11.54-.11.54.36.81 1.11.63 2.22 1.26 3.34 1.88.07.04.14.08.21.11.32.15.4.13.62-.13.08-.1.16-.21.3-.1.14.1.06.2 0 .3-.61 1.08-1.22 2.16-1.83 3.24-.09.16-.18.2-.34.1-.29-.17-.58-.32-.87-.47-.1-.05-.17-.11-.11-.23.05-.1.12-.18.25-.14.65.23.77.17 1.18-.53.17-.28.32-.58.49-.86.08-.13.05-.21-.07-.28-.5-.28-1-.56-1.49-.84-.1-.06-.15-.05-.21.05-.17.32-.36.64-.53.96-.14.25-.11.48.12.67.07.06.16.12.22.2.07.08.05.17 0 .25-.06.08-.13.09-.21.05-.55-.3-1.09-.61-1.63-.92-.09-.05-.12-.13-.06-.23.05-.08.1-.15.21-.11.02 0 .03.02.05.02.64.17.66.16.99-.42.13-.23.26-.47.4-.7.07-.12.04-.16-.07-.22-.55-.31-1.1-.62-1.66-.93-.09-.05-.2-.13-.28 0-.32.49-.65.98-.77 1.58 0 .04 0 .09-.01.12z" fill="#f5f5f5"/><path d="m85.88 37.05c.11-.02.21-.03.32-.05.12-.02.19.02.23.13s0 .19-.11.23c-.57.22-1.13.45-1.69.67-.11.04-.19.03-.24-.09-.05-.11-.02-.19.07-.25.6-.36.54-.47.29-1.13-.08-.22-.17-.43-.25-.65-.04-.13-.1-.16-.23-.11-.58.24-1.16.46-1.74.69-.17.07-.24.15-.17.35.14.38.28.75.46 1.11.23.45.58.69 1.09.69.1 0 .2 0 .29.02.14.03.17.16.18.27.01.1-.09.11-.17.13-.42.06-.85.12-1.27.18-.14.02-.21-.02-.26-.15-.48-1.21-.96-2.43-1.44-3.64-.04-.09-.05-.17.06-.22.1-.05.18-.04.26.05.35.42.35.42.86.23 1.2-.47 2.39-.95 3.59-1.42.07-.03.13-.05.2-.08.3-.15.36-.25.28-.57-.03-.14-.05-.25.12-.3.16-.04.19.09.23.2.46 1.15.91 2.31 1.37 3.46.07.17.03.26-.14.33-.3.12-.59.25-.89.37-.1.04-.2.09-.27-.06-.05-.12-.04-.22.09-.29.08-.04.15-.1.22-.15.23-.17.3-.37.22-.65-.14-.47-.35-.92-.52-1.38-.04-.12-.11-.15-.23-.1-.54.22-1.08.43-1.62.64-.1.04-.14.08-.09.2.15.34.27.7.42 1.04.12.27.21.31.5.31z" fill="#f5f5f5"/><path d="m35.85 82.69v4.16c0 .29.03.55.31.72.1.06.1.16.04.26-.07.11-.15.06-.23.02-.61-.3-1.22-.6-1.83-.89-.09-.04-.19-.08-.13-.22.06-.13.15-.13.26-.09.49.14.49.14.52-.37q.05-.88-.73-1.25c-.35-.17-.71-.34-1.06-.52-.13-.07-.23-.08-.36.03-.19.19-.41.34-.61.52-.22.2-.21.32.03.49.04.03.08.05.11.07.09.06.15.13.09.24s-.16.1-.25.05c-.36-.18-.72-.36-1.08-.53-.11-.06-.23-.11-.34-.16-.08-.04-.13-.09-.09-.19.04-.08.09-.15.18-.12.41.13.69-.1.97-.32 1.22-.95 2.44-1.91 3.65-2.86.11-.09.21-.2.38-.12.16.08.11.23.12.35v.72h.04z" fill="#f5f5f5"/><path d="m64.84 84.5c-.21-.05-.41-.1-.61-.15-1.1-.32-1.4-1.35-.6-2.16.53-.53 1.17-.86 1.95-.69.67.15.99.73.77 1.39-.09.28-.27.52-.45.8.22.04.42.08.62.13.3.07.59.15.84.33.6.44.72 1.26.23 1.87-.52.65-1.22.98-2.07.91s-1.33-.82-1.08-1.64c.08-.28.24-.52.39-.78z" fill="#f5f5f5"/><path d="m19.23 67.2c-.48 0-.93.35-1.04.82-.14.56-.15 1.13-.21 1.7-.12 1.06-.99 1.75-2 1.57-.63-.11-1.06-.6-1.16-1.3-.02-.11-.04-.21-.05-.32-.02-.15-.08-.24-.25-.21-.11.02-.19-.02-.23-.13-.05-.12.04-.18.12-.24.42-.3.85-.6 1.27-.9.09-.06.18-.17.29-.03.1.12.06.21-.04.32-.32.32-.6.66-.61 1.15v.11c.02.47.27.81.65.86.35.05.76-.26.88-.69.12-.44.12-.9.17-1.35.03-.29.07-.59.15-.87.23-.78.94-1.31 1.71-1.29.8.02 1.46.6 1.63 1.42.03.13.04.26.06.4.03.17.04.35.3.27.09-.03.14.05.18.13.04.09.01.16-.06.21-.46.35-.93.7-1.39 1.05-.06.05-.13.06-.18-.01-.06-.09-.12-.18-.03-.29.17-.2.33-.4.45-.63.24-.45.31-.91.03-1.38-.15-.25-.38-.36-.63-.38z" fill="#f5f5f5"/><path d="m75.41 21.07c.02.45.16.88.25 1.31.06.31.13.61.13.93 0 .81-.49 1.48-1.24 1.71-.72.22-1.48-.09-1.92-.77-.11-.17-.2-.36-.29-.54-.06-.11-.13-.17-.25-.08-.09.07-.19.06-.26-.03-.1-.11-.03-.2.03-.29.3-.43.61-.86.91-1.29.05-.08.1-.19.23-.11.11.07.16.16.1.29-.15.36-.28.74-.25 1.14 0 .12.03.25.06.37.15.47.58.77.98.71.43-.07.83-.53.83-.99 0-.57-.18-1.11-.3-1.66-.19-.88.01-1.52.66-1.97.76-.55 1.69-.35 2.17.46.06.1.11.2.16.31.09.18.16.36.41.21.07-.04.16 0 .21.08.04.07.04.13-.01.2-.34.46-.69.92-1.03 1.37-.06.07-.12.11-.2.05-.09-.07-.16-.14-.1-.27.08-.16.16-.32.22-.49.14-.37.12-.74-.05-1.09-.18-.37-.51-.56-.84-.49-.32.07-.59.44-.61.8z" fill="#f5f5f5"/><path d="m84.06 46.07c0-.29.08-.56.15-.84.04-.15.06-.29-.16-.31-.11-.01-.14-.11-.14-.2s.06-.14.15-.16c.55-.13 1.09-.26 1.64-.39.09-.02.18-.05.21.08.03.1.03.2-.08.25-.15.08-.3.16-.44.25-.3.19-.56.41-.72.74-.23.48-.12.97.26 1.22s.97.15 1.3-.21c.21-.24.36-.53.52-.81.18-.32.35-.65.56-.95.6-.85 1.86-.96 2.55-.23.33.35.43.77.35 1.24-.02.15-.07.3-.11.44-.05.18-.1.35.17.4.09.02.12.1.11.19 0 .08-.06.13-.13.14-.57.12-1.14.24-1.7.35-.09.02-.16-.01-.18-.11s-.02-.2.1-.25c.16-.07.33-.14.49-.22.36-.19.6-.48.71-.87.1-.35 0-.67-.25-.87-.23-.17-.63-.15-.91.04-.24.17-.38.42-.52.67-.29.51-.54 1.05-.93 1.5-.62.71-1.72.79-2.43.17-.39-.34-.54-.78-.56-1.29z" fill="#f5f5f5"/><path d="m83.26 41.4c-.02-.18.03-.38.05-.58.01-.13 0-.23-.17-.23-.12 0-.18-.07-.19-.18-.02-.13.07-.17.17-.2.5-.19 1-.38 1.5-.57.09-.03.19-.1.25.04.05.12.05.22-.08.3-.27.17-.51.36-.71.6-.12.15-.23.32-.29.51-.14.46 0 .9.34 1.12.33.21.86.13 1.19-.16.17-.16.27-.36.35-.56.18-.43.35-.86.53-1.29.35-.79 1.02-1.19 1.78-1.09.92.13 1.44.82 1.31 1.74-.02.11-.03.23-.04.35-.02.14.02.24.17.24.12 0 .18.07.2.18.02.13-.08.16-.18.2-.51.18-1.01.35-1.52.52-.09.03-.19.07-.25-.06-.05-.13-.03-.22.1-.29.38-.21.74-.44.91-.87.21-.51.1-.98-.29-1.18-.37-.18-.85.02-1.11.49-.21.38-.33.79-.5 1.18-.1.24-.2.48-.33.7-.41.72-1.21 1.05-1.99.85-.75-.2-1.22-.86-1.22-1.75z" fill="#f5f5f5"/><path d="m58.42 16.81c-.47 0-.86-.18-1.24-.45-.16-.11-.32-.31-.49 0-.04.07-.13.04-.2.02-.08-.03-.11-.09-.1-.17.06-.59.13-1.17.19-1.76 0-.08.05-.14.14-.12.11.02.2.05.22.19.03.22.06.44.12.66.07.27.19.52.39.72.37.39.9.47 1.26.2.36-.28.47-.89.23-1.31-.15-.26-.34-.48-.54-.7-.21-.24-.43-.48-.63-.73-.54-.68-.56-1.51-.05-2.17.44-.58 1.18-.74 1.82-.4.13.07.24.15.36.23.18.12.34.29.52 0 .04-.07.13-.04.2-.01.08.03.1.1.09.17-.08.57-.17 1.15-.25 1.72-.01.1-.07.15-.17.12-.11-.02-.21-.06-.2-.2.01-.2-.01-.39-.05-.59-.08-.4-.29-.71-.63-.92-.3-.18-.62-.19-.85 0-.26.22-.33.5-.26.82.06.28.25.49.42.7.34.41.72.79 1.02 1.24.35.52.42 1.07.2 1.66-.25.66-.84 1.07-1.55 1.06z" fill="#f5f5f5"/><path d="m72.46 16.62c-.12.54-.25 1.13-.39 1.72-.27 1.2-.54 2.4-.81 3.61-.05.23-.08.46.12.65.1.09.05.18-.01.26-.08.1-.15.05-.23 0-.48-.32-.95-.63-1.43-.95-.08-.05-.18-.1-.1-.23s.17-.13.29-.08c.31.13.38.11.48-.22.1-.31.17-.64.26-.96.03-.11 0-.18-.1-.25-.44-.29-.88-.58-1.32-.88-.07-.05-.13-.07-.21 0-.27.22-.56.42-.82.65-.22.19-.21.29 0 .51.09.09.16.17.06.3-.11.14-.2.05-.3-.01-.33-.22-.67-.45-1-.67-.08-.05-.18-.1-.12-.23.05-.11.13-.17.26-.11.23.09.42-.01.6-.13.73-.47 1.41-1 2.12-1.51.77-.55 1.53-1.11 2.3-1.67.08-.06.15-.13.26-.05.07.05.12.11.09.26z" fill="#f5f5f5"/><path d="m84.33 52.97c.01-.3.03-.61.04-.91 0-.11.03-.2.16-.19.12 0 .16.07.18.19.06.37.13.41.5.31.31-.09.61-.2.92-.29.11-.03.13-.09.13-.19.01-.51.03-1.02.05-1.53 0-.14-.02-.23-.18-.27-.31-.1-.62-.22-.93-.33-.24-.08-.38 0-.42.25 0 .05-.02.11-.04.15-.04.07-.11.08-.19.07-.08 0-.13-.05-.13-.14.02-.47.03-.95.05-1.42 0-.08.05-.13.13-.14.09 0 .18 0 .19.1.06.36.35.47.63.59 1.16.48 2.32.96 3.49 1.44.4.16.8.32 1.19.49.13.06.34.04.34.27s-.21.21-.35.26c-1.61.56-3.22 1.12-4.83 1.68-.27.1-.57.17-.64.53-.02.1-.13.12-.22.09-.1-.03-.12-.11-.12-.21 0-.27 0-.54 0-.8h.02z" fill="#f5f5f5"/><path d="m85.58 64.57c-1.15 0-2.31 0-3.46 0-.21 0-.39.05-.5.25-.07.13-.17.1-.28.05-.12-.06-.07-.14-.04-.23.2-.54.41-1.09.61-1.63.03-.09.07-.16.19-.12.1.04.16.09.15.21-.05.42-.02.46.41.49.3.02.61 0 .91.02.11 0 .16-.04.19-.14.19-.5.37-1 .57-1.5.04-.09.02-.14-.05-.2-.27-.22-.54-.45-.82-.65-.22-.16-.34-.13-.48.1-.07.11-.13.22-.29.14-.17-.08-.08-.19-.04-.29.14-.37.27-.74.42-1.1.04-.09.04-.23.2-.19.13.03.18.11.16.26-.03.22.1.37.25.51.8.78 1.67 1.48 2.51 2.22.52.46 1.05.92 1.58 1.37.08.07.17.13.13.27-.05.15-.16.14-.28.14-.68 0-1.36 0-2.04 0v.04z" fill="#f5f5f5"/><path d="m43 14.66c.07-.56.13-1.08.19-1.6.07-.59.13-1.19.19-1.78 0-.09.01-.18 0-.27-.01-.29-.09-.36-.38-.35-.12 0-.24.01-.27-.14-.04-.18.11-.18.22-.2.42-.09.84-.17 1.26-.26.09-.02.18-.05.22.07.03.1.03.2-.09.25-.3.12-.34.4-.38.66-.22 1.68-.44 3.37-.65 5.05 0 .04 0 .09-.01.13-.02.1-.01.22-.15.25s-.19-.07-.25-.16c-.29-.45-.58-.9-.88-1.35-.67-1.03-1.34-2.07-2.02-3.1-.16-.25-.32-.5-.69-.47-.09 0-.14-.07-.14-.16 0-.1.05-.15.13-.17.62-.13 1.24-.26 1.86-.38.1-.02.15.02.17.12.02.09 0 .15-.09.2-.48.26-.48.27-.19.72.61.95 1.22 1.89 1.83 2.84.02.03.05.05.1.1z" fill="#f5f5f5"/><path d="m65.7 18.8c-.02.18.06.25.15.32.08.06.16.11.24.17s.09.14.04.24-.12.12-.22.07c-.62-.3-1.24-.6-1.85-.9-.09-.05-.13-.11-.09-.22.04-.12.13-.13.24-.11.55.11.56.11.8-.37.62-1.26 1.22-2.52 1.84-3.78.07-.14.04-.21-.09-.26-.05-.02-.1-.05-.15-.07-.69-.32-.87-.28-1.34.32-.08.1-.14.21-.3.13-.11-.06-.15-.12-.09-.23.2-.39.41-.77.61-1.16.09-.18.22-.11.34-.05.79.39 1.59.77 2.38 1.16.39.19.78.39 1.18.57.18.08.21.18.13.35-.17.35-.32.71-.49 1.07-.04.1-.08.21-.23.15-.13-.05-.18-.13-.13-.27 0-.02 0-.04 0-.05.16-.82.07-.99-.71-1.34-.15-.07-.21-.04-.28.11-.53 1.11-1.07 2.22-1.61 3.33-.09.19-.19.38-.28.58-.04.1-.07.2-.09.25z" fill="#f5f5f5"/><path d="m14.83 58.32c-1.18-.1-2.29-.19-3.39-.28-.12 0-.23 0-.35 0-.22.03-.34.14-.31.38.02.12.06.27-.13.29s-.18-.14-.21-.25c-.1-.38-.19-.76-.28-1.14-.03-.11-.07-.24.08-.3.13-.05.19.03.25.14.1.2.29.26.49.28.85.09 1.71.18 2.56.26.93.09 1.87.18 2.8.26.11 0 .22 0 .26.14s-.07.19-.16.25c-1.35.95-2.71 1.9-4.06 2.84-.16.11-.32.23-.47.35-.16.13-.28.28-.26.5.01.12-.05.19-.16.21-.14.02-.15-.08-.18-.18-.14-.57-.28-1.14-.42-1.72-.02-.1-.07-.21.09-.26.16-.04.19.06.23.18.1.3.21.36.44.22 1.06-.67 2.07-1.43 3.16-2.18z" fill="#f5f5f5"/><path d="m29.49 20.42c-.37-1.19-.71-2.32-1.07-3.44-.12-.36-.24-.4-.57-.25-.11.05-.2.06-.28-.06s.01-.18.09-.23c.36-.25.72-.5 1.07-.76.09-.06.17-.1.26 0 .07.08.07.16 0 .24-.2.23-.15.49-.08.74.48 1.66.96 3.31 1.44 4.97 0 .03.02.05.02.08.02.1.08.21-.03.29-.11.09-.2 0-.29-.05-.52-.34-1.04-.69-1.57-1.04-.92-.61-1.83-1.22-2.75-1.81-.28-.18-.56-.45-.95-.23-.06.04-.14-.02-.17-.09-.04-.08-.03-.15.05-.21.52-.37 1.04-.73 1.56-1.1.07-.05.15-.05.21.03.05.07.07.15 0 .22-.04.04-.08.07-.12.1-.2.18-.22.29 0 .45.3.23.61.43.92.64.74.49 1.48.98 2.28 1.5z" fill="#f5f5f5"/><path d="m14.31 66.77c.1-.02.27-.03.42-.07s.21.03.26.15c.06.16-.06.18-.16.22-.38.15-.77.29-1.15.44-.15.06-.22.02-.28-.13-.51-1.25-1.02-2.49-1.54-3.74-.07-.16-.03-.24.13-.31.38-.16.75-.33 1.13-.5.1-.04.18-.07.25.05.05.11.06.21-.06.28-.03.02-.06.04-.09.06-.64.46-.71.84-.31 1.53.06.1.11.08.19.05 1.35-.56 2.71-1.11 4.06-1.68.37-.16.39-.23.3-.62-.03-.13-.09-.27.1-.33.18-.05.2.1.25.21.24.58.47 1.16.71 1.73.04.1.1.2-.04.27s-.21 0-.28-.11c-.27-.41-.29-.42-.74-.25-1.33.54-2.66 1.09-3.99 1.63-.14.05-.15.12-.09.24.09.19.17.39.29.57.14.22.34.31.65.3z" fill="#f5f5f5"/><path d="m17.93 33.36c-.34-.32-.68-.62-1.01-.95-.45-.44-.89-.88-1.33-1.33-.09-.09-.18-.17-.28-.25-.19-.14-.36-.14-.5.08-.07.11-.14.22-.29.13-.14-.09-.06-.2 0-.3.19-.37.37-.73.56-1.1.05-.09.07-.22.23-.15.12.05.15.13.11.26-.06.22.05.39.18.53.46.49.92.98 1.38 1.46.78.81 1.57 1.62 2.35 2.43.07.07.18.13.12.27s-.18.11-.3.1c-1.72-.17-3.43-.35-5.15-.51-.33-.03-.69-.11-.93.24-.05.08-.15.05-.22 0-.11-.08-.07-.17-.02-.26.26-.52.53-1.03.79-1.55 0-.02.02-.03.03-.05.05-.11.13-.15.24-.1.11.06.1.14.06.25-.14.37-.1.46.28.5 1.21.14 2.41.26 3.62.38.02-.03.05-.07.07-.1z" fill="#f5f5f5"/><path d="m59.24 87.35s.04-.11.06-.18c.48-1.27.96-2.54 1.44-3.8.05-.12.09-.22.23-.27.35-.12.37-.11.49.25.3.91.6 1.81.89 2.72.06.18.12.21.28.14.1-.04.2-.07.3-.1.35-.11.33-.11.47.24.1.25.03.34-.22.41-.55.16-.54.17-.38.7.02.05.03.1.05.15.2.62.17.66-.49.79-.13.03-.18-.03-.21-.14-.09-.28-.19-.56-.27-.84-.05-.17-.11-.22-.3-.15-.58.21-1.17.39-1.75.58-.38.12-.6-.05-.59-.49z" fill="#f5f5f5"/><path d="m55.39 85.94c.45.01.89-.02 1.33.1.75.21 1.31.64 1.48 1.42.18.79-.1 1.45-.71 1.96s-1.34.69-2.13.66c-.11 0-.21-.04-.31-.09-.16-.09-.25-.23-.24-.42.02-.19.15-.3.33-.34.29-.07.56.03.83.12.22.08.43.17.67.09.43-.14.78-.54.83-.99.05-.55-.12-1.01-.62-1.29-.59-.32-1.23-.36-1.88-.29-.41.05-.45.01-.33-.39.17-.55.34-1.09.5-1.64.05-.16.13-.23.29-.26.48-.08.97-.17 1.45-.26.18-.03.37-.05.5-.22.04-.06.12-.08.19-.05.08.04.08.12.06.19-.06.23-.11.45-.18.67-.04.12-.15.14-.26.16-.42.08-.84.15-1.27.23-.47.09-.49.11-.56.62z" fill="#f5f5f5"/><path d="m9.64 48.23c.02-.36.04-.71.06-1.07 0-.1 0-.2.16-.19.14 0 .17.08.19.21.05.48.08.53.57.56 1.07.07 2.14.11 3.21.16.32.02.64.04.96.04.36 0 .44-.06.51-.41.03-.14 0-.32.23-.28.22.03.14.21.14.34-.03.62-.06 1.25-.09 1.87 0 .1 0 .21-.13.22-.13 0-.21-.04-.23-.2-.07-.53-.12-.56-.65-.59-1.3-.06-2.6-.13-3.91-.2-.49-.03-.59.04-.7.52-.03.12-.05.2-.2.18-.16-.02-.15-.12-.15-.23 0-.31 0-.62 0-.94h.04z" fill="#f5f5f5"/><path d="m62.76 12.44c.01-.15-.07-.24-.18-.31-.08-.05-.18-.09-.26-.14-.09-.05-.11-.13-.07-.23.04-.11.1-.13.21-.09.66.24 1.33.47 1.99.71.09.03.14.08.1.18-.03.09-.07.17-.19.15-.02 0-.04 0-.05 0-.47-.13-.56-.09-.76.45-.45 1.23-.88 2.47-1.31 3.71-.18.5-.17.52.3.8.1.06.16.12.11.26-.06.16-.16.1-.26.06-.62-.22-1.25-.44-1.87-.66-.11-.04-.21-.08-.17-.22s.14-.15.27-.12c.44.09.52.06.66-.32.48-1.32.94-2.64 1.4-3.96.03-.08.04-.17.06-.26z" fill="#f5f5f5"/><path d="m36.39 12.48c-.09.02-.18.03-.26.05-.12.03-.18-.03-.22-.14-.03-.11.01-.17.12-.2.66-.22 1.32-.44 1.98-.67.1-.03.17-.01.22.09.05.11.02.18-.09.24-.49.3-.5.32-.32.87.41 1.22.82 2.43 1.23 3.65.03.08.06.15.09.23.09.26.27.37.54.29.06-.02.12-.03.18-.03.11 0 .16.06.18.15.02.1-.01.15-.11.18-.67.22-1.33.45-2 .68-.09.03-.16.02-.2-.08s-.04-.18.07-.25c.51-.34.51-.35.31-.93-.4-1.19-.8-2.38-1.21-3.57-.04-.11-.09-.21-.13-.32-.07-.17-.2-.25-.38-.22z" fill="#f5f5f5"/><path d="m50.91 90.44c-.06 0-.12 0-.19 0-.09 0-.16-.03-.17-.13 0-.1.05-.15.14-.17h.08c.58-.09.62-.14.58-.72-.07-1.08-.13-2.16-.2-3.23-.02-.4-.09-.45-.48-.31-.07.02-.13.05-.2.08-.08.03-.17.11-.23 0-.05-.11 0-.2.12-.26.22-.11.44-.23.67-.34.23-.12.46-.24.69-.36s.3-.08.32.19c.04.69.08 1.37.12 2.06.05.79.08 1.59.14 2.38.02.35.08.39.42.42h.16c.11.01.29-.06.29.14 0 .19-.18.15-.29.16-.66.04-1.32.07-1.98.11v.01z" fill="#f5f5f5"/><path d="m38.45 88.69c-.34 0-.62-.27-.6-.58 0-.27.25-.49.54-.49.33 0 .63.28.62.58 0 .28-.25.5-.56.49z" fill="#f4f4f5"/><path d="m48.21 90.46c-.34 0-.59-.22-.59-.52s.25-.53.58-.52c.33 0 .59.25.58.54 0 .29-.25.51-.58.51z" fill="#f4f4f5"/><path d="m51.32 18.3c-.86 0-1.73 0-2.59 0 .12-.08.26-.04.39-.04h2.02c.06 0 .13 0 .18.04z" fill="#8e9cb2"/><path d="m18.2 50.3c.09.39.06.78.02 1.17-.04-.39-.02-.78-.02-1.17z" fill="#98a0ab"/><path d="m18.21 48.75c.05.37.07.75-.01 1.12 0-.37-.02-.74.01-1.12z" fill="#979fab"/><path d="m81.86 49.7c-.09-.33-.06-.67-.02-1.01.04.34.02.67.02 1.01z" fill="#969fac"/><path d="m81.84 51.47c-.05-.34-.07-.67.01-1.01 0 .34.02.67-.01 1.01z" fill="#979fab"/><path d="m50.3 17.27h-.59s0-.02 0-.03h.59s0 .02 0 .03z" fill="#517ead"/><path d="m51.05 81.91c.21-.08.42-.07.64 0-.21 0-.42 0-.64 0z" fill="#979fac"/><path d="m48.37 81.9c.21-.06.42-.07.64 0-.21 0-.42 0-.64 0z" fill="#979fac"/><path d="m52.11 18.32c-.16.05-.32.07-.47-.01.16 0 .32 0 .47.01z" fill="#959eab"/><path d="m48.41 18.31c-.16.08-.31.06-.47.01.16 0 .32 0 .47-.01z" fill="#959eab"/><path d="m83.84 31.34c.07-.05.15-.06.24-.04-.01.07-.07.08-.13.1-.04-.02-.08-.04-.12-.06z" fill="#4180b9"/><path d="m81.12 31.25c-.06.05-.13.07-.18.02-.03-.02.02-.07.06-.09.02.06.08.05.12.07z" fill="#6691c3"/><path d="m67.02 73.87c.06-.23-.02-.34-.15-.41-.72-.42-1.48-.75-2.25-1.07-.28-.12-.59-.14-.88.04-.06.04-.14.08-.11.16.02.08.11.09.18.09.37-.02.73 0 1.03.26.05.05.15.05.23.04.29-.03.45.16.62.36.08.09 0 .14-.05.2-.3.3-.67.31-1.05.24-.41-.07-.82-.18-1.23-.26-.1-.02-.21-.03-.32-.02-.37.03-.44.12-.41.49.02.26.06.52.07.77s.13.37.38.38c.24.01.48.04.72.06.29.01.41.23.54.43.07.1 0 .2-.12.21-.87.12-1.73.11-2.51-.38-.25-.16-.25-.19-.02-.36.06-.05.11-.09.1-.17s-.07-.11-.13-.1c-.75.14-1.28-.41-1.92-.63-.36-.12-.71-.28-1.03-.51-.15-.1-.17-.21-.1-.36.08-.17.19-.31.35-.39.74-.35 1.44-.75 2.15-1.15.17-.1.28-.09.39.09.12.18.33.24.55.22.07 0 .13-.02.14-.1s-.05-.1-.12-.12c-.4-.11-.43-.24-.17-.56.13-.16.3-.3.42-.52-.36.13-.62.34-.83.61-.07.09-.12.15-.26.11-.17-.06-.33.01-.48.11-.74.46-1.48.9-2.18 1.42-.33.24-.77.25-1.16.02-.09-.05-.19-.11-.26-.19-.63-.63-1.42-.61-2.19-.47-.85.15-1.64.54-2.44.87-1.53.62-3.01 1.32-4.5 2.03-.24.12-.42.11-.63-.06-.46-.38-.94-.74-1.44-1.08-.64-.44-1.34-.73-2.13-.7-.83.03-1.63-.2-2.44-.31-1.1-.15-2.2-.31-3.31-.23-1.07.08-2.11.34-3.15.61-1.26.33-2.5.72-3.75 1.11-.14.04-.2-.05-.28-.1-.76-.61-1.5-1.24-2.21-1.91-2.84-2.69-5.09-5.8-6.75-9.33-1.17-2.49-2-5.1-2.47-7.81-.25-1.43-.39-2.86-.44-4.31-.17-5.02.82-9.8 2.96-14.34 1.23-2.6 2.8-4.98 4.7-7.15 3.56-4.04 7.87-6.98 12.94-8.8 2.08-.75 4.23-1.25 6.42-1.54 1.86-.25 3.73-.3 5.59-.2 3.83.19 7.5 1.08 11 2.64 3.1 1.38 5.89 3.22 8.38 5.52 2.58 2.38 4.7 5.11 6.36 8.21 1.54 2.87 2.59 5.92 3.17 9.12.26 1.46.4 2.93.46 4.42.05 1.22.01 2.43-.08 3.64-.18 2.2-.59 4.36-1.24 6.48-.9 2.92-2.19 5.64-3.88 8.18-1 1.5-2.12 2.9-3.38 4.19-.14.14-.28.28-.4.43-.22.29-.5.32-.84.27-1.09-.16-2.06-.62-2.98-1.21-.17-.11-.33-.21-.5-.31-.05-.03-.11-.1-.16-.04s-.03.15.03.19c.23.17.36.46.63.56.33.13.63.33 1 .38.14.02.26.09.3.24s-.04.25-.17.33-.11.23-.15.36c-.04.14-.07.31-.25.3-.18 0-.21-.16-.23-.31-.02-.22-.11-.37-.34-.46-.28-.11-.52-.32-.73-.53-.21-.2-.45-.35-.72-.46-.1-.04-.22-.09-.28.04-.06.12.06.17.14.22.41.27.86.49 1.22.83.14.14.27.28.38.45.22.36.17.58-.18.81-.18.12-.37.22-.55.33-.11.07-.24.15-.07.3.08.07.06.16.02.25-.04.1-.12.12-.22.11-.35-.02-.6-.19-.78-.49-.1-.16-.1-.31.06-.42.17-.12.28-.03.37.16z" fill="#f4f4f4"/><path d="m53.71 78.21c-.19.18-.41.19-.63.21-.26.03-.52.03-.77.11-.48.16-.59.44-.36.89.15.31.36.49.75.48.65-.03 1.27-.16 1.91-.26.27-.04.53-.03.8-.04.36 0 .45-.08.41-.43-.03-.27.22-.25.32-.38.1-.12.17.03.24.07.5.33.49.33.1.76-.15.17-.33.22-.55.24-.63.07-1.27.03-1.9.06-.54.02-1.07.09-1.57.3-.13.05-.23.11-.19.27.04.15.15.2.29.18.23-.03.46-.08.68-.13.11-.02.22-.07.35.02-.06.1-.16.13-.26.17-.48.19-.98.28-1.49.32-1.12.09-2.23-.06-3.34-.15-.53-.04-1.05-.02-1.58-.06s-1.04-.13-1.57-.19c-.14-.02-.24-.05-.24-.24-.01-.3-.27-.46-.48-.61-.5-.36-1.1-.5-1.69-.66-.32-.08-.66.19-.66.47 0 .15.05.25.21.29.33.08.68.02 1.01.09.17.04.35.05.57.18-.39.08-.71 0-1.02-.05-2.39-.31-4.56-1.23-6.66-2.35-1.01-.54-2.01-1.09-3.01-1.65-.43-.24-.82-.55-1.17-.9-.05-.05-.14-.09-.12-.2.12-.07.2.03.29.08.19.12.37.26.55.38.11.07.23.06.32-.03.1-.11.07-.22-.02-.31-.1-.1-.2-.21-.31-.3-.1-.09-.07-.15.02-.2.06-.04.13-.07.19-.09 1.22-.38 2.41-.92 3.7-1.07 1.08-.13 2.17-.18 3.26-.02.75.11 1.5.2 2.31.31-.32.16-.58.05-.83.03-.1 0-.19-.04-.29-.04-.31-.02-.42.08-.45.39-.03.34-.03.34-.36.26-.1-.02-.21-.05-.31-.05-.26 0-.4.14-.39.4 0 .25.12.36.39.36.09 0 .18.01.27-.01.56-.18 1.03.09 1.51.29.06.03.12.07.18.11.04.03.07.08.05.14-.02.05-.07.05-.11.05-.03 0-.05 0-.08 0-.13 0-.28-.04-.34.14-.05.17 0 .32.15.42.1.06.2.13.3.17.57.19 1.09.5 1.65.7.22.08.4.26.61.39.14.09.3.19.47.06.09-.07.15 0 .2.05.15.15.33.23.54.29.37.1.72.27 1.08.4.46.17.91.37 1.43.24.2-.05.47-.13.52-.3.09-.32.23-.43.56-.42.12 0 .06-.16 0-.24-.17-.21-.06-.25.14-.24.12 0 .25.01.38.02.12 0 .22-.01.23-.16 0-.13-.05-.22-.19-.25-.19-.04-.39-.02-.59-.02-.18 0-.27-.09-.31-.26-.04-.15-.02-.21.15-.23.28-.03.36-.24.19-.47-.02-.03-.05-.05-.07-.08-.3-.32-.28-.44.1-.67.3-.18.63-.19.96-.15.5.07.99.07 1.49-.07.12-.03.28-.05.26-.21s-.15-.26-.31-.29c-.1-.02-.21.04-.31-.06.02-.02.02-.06.04-.07.82-.38 1.55-.92 2.39-1.27.42-.17.85-.26 1.31-.22.2.02.41.04.6-.08.05-.03.11-.05.14 0 .04.06-.02.1-.06.13-.08.06-.17.07-.28.07-.18 0-.33.06-.43.22-.03.04-.06.13-.05.14.19.17.05.32-.01.49-.06.15 0 .28.18.33.19.05.39.06.58.01.39-.1.77-.21 1.16-.31.5-.12.93.12 1.37.27v.08c-.3 0-.59.03-.87 0-.68-.08-1.35.11-2.02.13-.07 0-.14.02-.21.05-.16.07-.22.2-.2.37s.15.21.29.21h.96c-.25.12-.45.21-.65.3-.13.06-.29.12-.21.31.08.18.22.31.44.25.39-.1.76-.24 1.17-.3.56-.08 1.08 0 1.57.29.21.12.42.24.66.28.06.01.15.01.16.11 0 .07-.05.11-.1.15-.06.05-.13.06-.2.02-.02-.01-.05-.03-.06-.05-.17-.24-.43-.3-.7-.33-.62-.07-1.24-.18-1.87-.09-.31.04-.58.16-.84.32-.19.12-.33.27-.24.51.1.23.31.17.49.13.53-.1 1.04-.26 1.57-.34.52-.07 1-.04 1.34.44.09.13.14.23 0 .37s-.22.31-.09.51c.08.12-.04.18-.08.26-.1.19-.31.34-.19.6.01.03 0 .1-.04.12-.21.14-.44.21-.69.16-.21-.04-.28-.24-.35-.41-.04-.1 0-.17.13-.17.12 0 .23.01.35 0 .13 0 .21-.07.23-.21.01-.15-.05-.24-.19-.27-.27-.06-.56-.08-.86-.2.15-.1.29-.1.43-.13.29-.07.57-.15.82-.32.06-.04.13-.08.11-.16-.01-.07-.08-.09-.14-.11-.24-.09-.49-.14-.73-.05-.46.18-.94.21-1.42.21-.18 0-.36 0-.48.18-.23.34-.2.44.13.67.04.03.09.06.13.09.05.04.11.08.09.15s-.09.07-.16.08c-.08 0-.16 0-.24.01-.15.04-.3.1-.3.29 0 .25-.12.26-.31.17-.09-.04-.19-.07-.28-.1-.14-.06-.19-.16-.14-.3.04-.13.15-.27.02-.4-.19-.19-.35-.44-.63-.47-.91-.1-1.8 0-2.54.59-.35.28-.61.41-1.08.21-.43-.18-.95-.06-1.43.01-.16.02-.17.12-.06.22.18.17.41.25.66.26.34.01.68 0 1.02 0 .08 0 .18-.04.22.05.11.22.27.14.44.09.22-.07.44-.15.63-.29.28-.19.58-.32.91-.37.09-.01.18-.03.26-.07.27-.17.54-.18.86-.05z" fill="#f5f5f5"/><path d="m44.66 75.43c.57.15 1.07.42 1.52.79.15.13.29.27.51.22.09-.02.15.04.19.12.02.04.03.09-.01.12-.07.06-.15.03-.23 0-.1-.03-.19-.1-.31-.08s-.18.12-.22.22-.02.2.07.26c.14.1.28.19.42.28.05.03.12.06.09.14-.03.07-.11.06-.17.05-.17-.03-.32-.11-.46-.21-.34-.22-.7-.31-1.09-.15-.09.04-.14.01-.2-.05-.51-.55-1.1-.97-1.83-1.15-.12-.03-.19-.09-.15-.23.1-.35-.06-.58-.35-.75-.16-.09-.33-.18-.49-.27-.06-.03-.16-.05-.13-.14.02-.08.12-.06.19-.06.23 0 .44.05.65.13.23.08.46.16.68.24.2.07.29 0 .22-.19-.07-.2.02-.28.18-.35.36-.16 1 .02 1.32.39-.17.02-.3-.07-.44-.1-.57-.13-.81.09-.69.64-.16.04-.32 0-.48-.03-.17-.03-.31.01-.35.2s.05.29.23.33c.68.15 1.26.48 1.81.9.15.11.32.22.48.07.18-.16.08-.34 0-.51-.11-.21-.3-.35-.5-.47-.17-.1-.33-.2-.5-.3.01-.02.02-.04.04-.06z" fill="#f5f5f5"/><path d="m46.63 75.83c-.29-.26-.55-.48-.79-.72-.11-.11.03-.14.09-.14.18-.01.33.05.45.18.17.18.27.38.24.69z" fill="#f3f3f3"/><path d="m46.84 76.05c-.11.05-.17.01-.21-.08-.02-.04 0-.08.03-.08.09 0 .13.07.17.16z" fill="#ededed"/><path d="m45.59 75.01c-.14.04-.19-.02-.29-.1.14-.04.21 0 .29.1z" fill="#ededed"/><path d="m22.92 78.17c-.06-.05-.11-.09-.15-.13-.33-.32-.61-.67-.85-1.06-.07-.11-.08-.2 0-.31.19-.24.36-.59.61-.65.29-.07.42.35.63.54s.4.41.59.62c.05.06.13.11.03.2-.26.24-.52.49-.78.73-.02.02-.05.04-.08.06z" fill="#0c6dad"/><path d="m25.64 75.63c-.05.05-.08.09-.12.13-.23.22-.46.42-.68.65-.11.11-.18.08-.28-.02-.33-.36-.66-.72-1.01-1.08-.12-.12-.11-.2.03-.29.09-.06.17-.14.25-.2.64-.45.44-.44 1.04.02.25.19.46.42.66.66.03.04.06.08.1.13z" fill="#0c6dad"/><path d="m26.29 76.6c.44.78.7 1.61.87 2.54-.43-.46-.83-.87-1.21-1.29-.15-.16-.42-.3-.41-.5 0-.19.29-.31.44-.47.09-.09.19-.18.3-.28z" fill="#0d6dad"/><path d="m26.25 79.84c-.86-.15-1.64-.47-2.39-.95.25-.24.49-.46.72-.68.06-.05.1-.05.15 0 .5.54 1.01 1.08 1.52 1.62z" fill="#0c6dad"/><path d="m77.7 75.96s.06.06.09.09c.73.65.74.79.12 1.54-.17.21-.33.51-.56.54-.22.03-.39-.3-.58-.47-.38-.35-.38-.35-.03-.73.27-.29.54-.57.81-.86.04-.04.07-.1.15-.11z" fill="#0c6dad"/><path d="m75.56 76.5s-.03-.01-.04-.02c-.29-.27-.58-.53-.86-.81-.06-.06.01-.11.05-.16.31-.35.64-.67 1.02-.95.12-.09.21-.1.33 0 .21.16.43.32.64.48.1.07.12.13.03.23-.36.38-.72.77-1.08 1.15-.03.03-.07.05-.09.07z" fill="#0c6dad"/><path d="m73.16 78.9c.13-.75.39-1.46.73-2.14.08-.15.13-.14.24-.03.16.17.32.33.51.48.16.12.11.19 0 .31-.48.49-.94 1-1.41 1.5-.1 0-.08-.06-.06-.12z" fill="#0d6dad"/><path d="m73.98 79.88c.55-.58 1.05-1.12 1.56-1.66.07-.08.12-.04.18.01.23.21.45.43.68.64-.46.38-1.79.94-2.41 1z" fill="#0d6dad"/><path d="m73.16 78.9s0 .09.06.12c-.02.04-.06.1-.09.07-.05-.06-.02-.13.03-.19z" fill="#5c8dc1"/><path d="m42.87 89.21c-.26-.01-.6-.05-.94-.13-.19-.05-.25-.14-.21-.32.25-1.27.49-2.54.74-3.81.03-.16.09-.25.26-.23.68.11 1.33.3 1.85.78.74.69.76 1.53.46 2.42-.29.86-1 1.3-2.15 1.3z" fill="#0c6dad"/><path d="m53.01 12.61c-.07 0-.14 0-.21 0-.13 0-.18-.03-.17-.19.07-.61.13-1.22.18-1.84.01-.19.1-.24.27-.23.18.02.35.04.53.09.54.16.77.51.72 1.12-.04.58-.35.93-.89 1-.14.02-.28.05-.43.04z" fill="#0c6dad"/><path d="m14.27 37.92c-.03.27-.07.52-.14.77-.03.12-.09.13-.19.1-.6-.21-1.19-.42-1.79-.62-.14-.05-.19-.12-.14-.26.06-.17.11-.34.19-.5.22-.44.56-.61 1.02-.55.56.08.94.41 1.02.87.01.06.01.12.02.17z" fill="#0c6dad"/><path d="m10.96 54.11q-.72.03-.72-.53c0-1.21.74-2.03 2-2.21.48-.07.96-.07 1.44.04 1.21.28 1.55 1.38 1.53 2.2 0 .16-.1.19-.23.2-.58.04-1.16.09-1.74.14-.41.03-.82.05-1.23.08-.4.03-.8.06-1.05.08z" fill="#0c6dad"/><path d="m13.76 45.38c-.78-.03-1.54-.15-2.26-.5-.31-.15-.57-.37-.76-.66-.37-.56-.26-1.23.27-1.65.37-.3.81-.41 1.28-.41.79 0 1.57.13 2.3.43.42.17.76.44.98.84.29.52.17 1.14-.3 1.52-.44.36-.96.45-1.51.43z" fill="#0c6dad"/><path d="m34.83 82.8v2.01c-.25-.06-.45-.2-.67-.3-.26-.12-.51-.25-.77-.37-.07-.03-.17-.06-.05-.16.48-.38.97-.77 1.48-1.18z" fill="#0c6dad"/><path d="m65.59 84.59c.33.04.66.08.98.16.37.1.57.37.62.73.04.33-.14.56-.41.73-.47.3-.95.27-1.29-.09-.37-.38-.46-1.07-.2-1.46q.06-.09.3-.07z" fill="#0c6dad"/><path d="m64.83 81.95c.57 0 .95.48.86.99-.04.21-.15.4-.25.59-.05.08-.1.11-.19.1-.3-.04-.6-.07-.88-.21-.57-.27-.63-.87-.13-1.24.2-.14.42-.23.59-.24z" fill="#0c6dad"/><path d="m71.31 17.68c-.16.66-.32 1.32-.49 2.03-.39-.26-.76-.51-1.12-.75-.11-.07-.06-.12.01-.18.52-.38 1.03-.76 1.55-1.14.02 0 .04.02.06.03z" fill="#0c6dad"/><path d="m88.88 51.18c-.72.23-1.38.45-2.03.66 0-.47 0-.92 0-1.38 0-.11.08-.07.13-.05.61.24 1.22.49 1.89.76z" fill="#0d6dad"/><path d="m86.45 63.63h-2.16c.18-.48.35-.93.53-1.4.55.47 1.07.92 1.63 1.4z" fill="#0d6dad"/><path d="m60.86 84.35c.24.74.46 1.41.68 2.07.04.11 0 .14-.09.17-.52.17-1.05.34-1.63.53.35-.93.68-1.82 1.04-2.77z" fill="#0c6dad"/><path d="m33.72 44.63c.16.03.23.14.32.22.09.09.17.18.27.26.09.07.19.11.3.06.12-.05.12-.17.12-.28 0-.17-.09-.36.26-.34.18.01.43-.21.5-.43.07-.19-.11-.33-.24-.44-.18-.15-.36-.29-.55-.42-.12-.09-.12-.18-.1-.33.04-.36.27-.52.53-.71.32-.22.36-.24.57.09.13.19.25.2.47.15.29-.06.44-.2.6-.44.32-.47.79-.71 1.38-.67.13 0 .26 0 .34-.1.09-.12-.04-.21-.09-.3-.09-.14-.19-.29-.3-.41-.21-.22-.38-.21-.55.03-.13.19-.25.19-.41.05-.2-.17-.44-.32-.6-.54-.36-.5-.89-.8-1.33-1.19-.07-.06-.17-.11-.26-.12-.63-.09-1.12-.44-1.61-.81-.57-.43-1.15-.86-1.72-1.28-.29-.21-.89-.11-1.15.14-.41.38-.56.9-.8 1.38-.14.28-.03.44.29.49.12.02.09.07.07.14-.13.48-.09.54.37.66.09.02.26 0 .18.17-.07.14-.06.38-.32.36-.28-.03-.46.06-.54.34-.06.2-.08.42-.12.63-.02.13-.06.24-.2.33-.03-.14-.01-.3-.17-.36-.19-.08-.23.12-.36.19-.07-.08-.04-.25-.21-.25-.15 0-.24.11-.31.22-.09.13-.17.27-.25.41-.15.27-.11.36.2.46.07.02.14.04.24.07-.22.32-.41.63-.63.93-.1.13-.24.19-.38.03s-.26-.05-.37.04c-.41.31-.63.77-.86 1.21-.05.1-.08.22-.14.32-.21.32-.23.61.04.92.15.18.06.31-.17.32-.14 0-.28-.06-.42 0-.15.06-.21.14-.07.27.02.02.04.03.06.05.09.09.26.17.18.32-.07.13-.21.02-.32 0-.3-.03-.57.05-.81.21-.29.2-.53.45-.73.74-.29.41-.23.84.17 1.16.05.04.13.05.09.14-.05.1-.12.04-.18.01-.2-.09-.41-.19-.61-.28-.48-.2-.77-.1-1 .36-.03.06-.04.13-.13.1-.06-.02-.05-.09-.06-.14-.01-.11.03-.19.12-.25 1.21-.75 2.04-1.86 2.82-3.01.22-.33.44-.65.72-.93.06-.05.12-.13.13-.2.02-.23.07-.41.34-.46.07-.01.09-.11.09-.18.04-.45.33-.75.64-1.02.29-.26.53-.55.67-.92.73-1.89 1.6-3.71 2.72-5.4.27-.41.4-.43.88-.31.51.13.89.42 1.24.79.2.22.44.39.73.49.19.07.34.2.48.33.15.13.31.23.51.28.37.09.65 0 .89-.31.66-.85 1.29-1.72 1.98-2.53.26-.3.55-.56.85-.82.11-.09.24-.16.38-.18.34-.06.66-.17.93-.39.13-.1.22 0 .31.06.59.36 1.07.84 1.55 1.31.35.35.71.68 1.06 1.02.09.09.18.17.33.12s.16-.19.16-.31c0-1.26.09-2.52-.26-3.76-.1-.34-.09-.67.13-.98.13-.18.27-.25.47-.09.17.13.37.12.56.05.49-.17.98-.24 1.5-.16.27.04.55-.02.83-.05.25-.03.38.05.46.29.16.52.07 1.03-.08 1.53-.05.15-.11.28-.03.44.07.12-.04.18-.1.25-.33.38-.15 1.04.32 1.19.11.03.19.04.26-.06.1-.15.25-.18.42-.17.41 0 .81-.12 1.22-.18.28-.04.6.2.54.47-.09.39-.04.76.01 1.14.11.69.03 1.39.05 2.09.01.33.12.63.27.92.03.05.06.12.13.12.1 0 .09-.1.1-.16.15-.65.27-1.31.29-1.98.05-1.2 0-2.39-.11-3.59-.06-.58-.22-1.1-.46-1.63-.28-.62-.36-1.29-.14-1.96.16-.51.32-.59.81-.41.2.07.37.14.53-.05.02-.02.05-.03.07-.03.61-.04 1.24-.25 1.83.12.1.06.18.06.27 0 .36-.23.71-.02 1.06.05.09.02.08.11.08.18 0 .76.02 1.52-.06 2.28-.02.16-.05.32-.12.47-.28.58-.27 1.19-.19 1.81.07.51.11 1.01.1 1.52-.01.39.11.49.5.41.25-.05.51-.1.76-.17.26-.08.42-.26.45-.54.04-.36.26-.66.3-1.02 0-.1.11-.11.19-.12.55-.14 1.11-.28 1.68-.34.18-.02.36-.04.49.14.05.07.11.05.18 0 .39-.23.96-.04 1.15.39.02.06.04.12.06.18.14.46.25.51.68.3.13-.06.26-.17.46-.08-.21.28-.45.51-.72.72-.35.27-.61.59-.71 1.04-.05.22.03.3.22.34s.36-.01.51-.11c.19-.13.38-.26.58-.39.07-.05.15-.13.24-.04.08.08 0 .17-.03.25-.08.16-.19.28-.37.32-.61.14-.94.63-1.29 1.08-.17.22-.14.55-.13.83 0 .15.14.19.28.18.37-.02.71-.14 1.04-.32.45-.24.87-.53 1.29-.81.09-.06.18-.11.29-.15-.07.25-.24.44-.43.6-.39.33-.84.54-1.28.78-.07.04-.14.07-.21.11-.12.07-.19.17-.14.31.05.15.19.13.3.1.41-.1.79 0 1.18.13.97.31 1.83.81 2.64 1.4.23.17.49.25.77.29.13.02.26 0 .34-.11.36-.41.84-.51 1.34-.58.2-.03.39-.06.48-.27.06-.13.18-.1.28-.09.44.05.78-.15 1.1-.4.2-.15.15-.32.09-.5-.07-.2-.23-.14-.36-.12-.62.11-1.16.35-1.56.86-.06.07-.12.19-.23.14-.12-.06-.08-.18-.06-.28.06-.39.18-.5.59-.56.05 0 .11-.01.15-.04.32-.26.71-.27 1.09-.33.11-.02.21-.05.29-.13.19-.18.14-.4-.11-.46-.42-.09-.85-.11-1.27.04-.51.18-1.01.38-1.29.89-.06.1-.15.22-.27.15-.13-.07-.09-.22-.05-.34 0-.03.04-.06.05-.09.05-.11.21-.22.04-.34-.15-.11-.33-.09-.47.05-.15.15-.29.32-.43.48-.07.08-.15.16-.24.21-.12.07-.27.08-.37-.05-.08-.11.03-.2.1-.27.11-.12.23-.22.34-.34.17-.19.11-.35-.13-.41-.2-.05-.36.02-.5.17-.16.15-.3.34-.55.35-.07 0-.16.02-.19-.06s.06-.12.12-.15c.31-.16.62-.33.93-.49.21-.11.41-.21.57-.39.14-.16.18-.33.07-.52-.18-.31-.33-.63-.36-1-.02-.21-.17-.37-.29-.54s-.19-.34-.09-.54c.08-.16 0-.31-.02-.47-.04-.34 0-.4.34-.41.11 0 .23.02.29-.1s0-.22-.08-.31c-.16-.16-.16-.34-.06-.54.13-.26.21-.53.54-.61.16-.04.23-.18.16-.36-.14-.35-.34-.68-.47-1.05-.1-.27-.43-.31-.71-.13-.63.41-1.21.89-1.77 1.39-.32.28-.64.57-.98.83-.23.18-.49.31-.79.3-.07 0-.16.04-.19-.04-.03-.09.06-.14.12-.19.15-.13.32-.22.5-.3.17-.07.34-.15.52-.22.41-.16.74-.41.95-.82.2-.4.51-.7.93-.9.12-.06.23-.14.33-.23.25-.21.55-.18.84-.22.08-.01.14.04.18.1.74.93 1.57 1.79 2.2 2.81.4.65.69 1.34.81 2.11.09.56.48.91.97 1.14.31.15.52.36.65.67.15.35.34.68.65.93.32.26.32.56.05.88-.3.36-.21.62.25.72.45.1 1.11-.19 1.31-.6.12-.25.01-.51-.05-.75-.03-.12-.05-.19.04-.29.6-.68.87-1.48.87-2.39 0-.06-.02-.12.04-.17.07 0 .07.04.07.09-.06.78.21 1.44.75 1.99.27.28.42.6.4.99-.02.34.09.59.39.79.39.27.74.59 1.11.88.46.37.74.86.95 1.41.21.54.56.96 1 1.33.69.57 1.07 1.35 1.37 2.17.39 1.06.56 2.18.85 3.26.09.34.2.67.29 1 .16.57.16 1.13-.13 1.66-.06.12-.05.24-.02.36.05.15.02.3-.07.44-.81 1.14-1.17 2.46-1.48 3.79-.12.54-.17 1.1-.48 1.58-.11.17-.22.35-.34.51-.31.43-.52.91-.63 1.44-.16.8-.51 1.54-.88 2.27-.23.45-.47.9-.72 1.35-.28.5-.67.81-1.27.76-.16-.01-.32 0-.48-.01-.61-.03-.81-.22-.78-.83.04-.78-.2-1.48-.56-2.15-.39-.72-.88-1.39-1.37-2.05-.43-.58-.81-1.18-1.12-1.82-.19-.38-.44-.71-.72-1.03-.18-.2-.42-.3-.69-.32-.18-.01-.31-.1-.38-.25-.39-.83-1.11-1.42-1.6-2.17-.08-.12-.18-.21-.36-.11-.2.11-.37.02-.53-.13-.48-.45-.86-.98-1.28-1.48-.1-.12-.19-.23-.29-.35-.12-.15-.24-.3-.46-.17-.01 0-.04.01-.05 0-.39-.17-.84-.19-1.19-.44-.2-.14-.16-.4-.14-.62.02-.29.11-.56.19-.83.14-.47-.02-.78-.49-.93-.37-.12-.75-.14-1.14-.05-.79.18-1.61.23-2.41.35-.2.03-.37 0-.48-.19-.17-.29-.49-.23-.75-.26-1.88-.22-3.75-.49-5.66-.44-.91.02-1.82.12-2.72.22-.56.06-1.1.25-1.66.28-.05 0-.12 0-.15.04-.39.46-.98.37-1.47.54-.5.18-1.02.31-1.55.42-.66.14-1.26.49-1.89.74-2.24.88-4.16 2.23-5.84 3.96-.75.77-1.27 1.68-1.83 2.57-.26.41-.54.8-.74 1.24-.15.32-.31.63-.27.99.01.11-.05.19-.11.27-.21.31-.23.71-.45 1.03-.07.09.07.12.14.15.3.11.6.04.9-.02.22-.05.42-.14.65-.14.33 0 .55.15.65.46.12.37.21.76.32 1.13.09.31.26.57.48.8.46.49.33 1.14-.28 1.41-.18.08-.37.15-.55.22-.23.1-.46.13-.7.07-.72-.18-1.46-.25-2.21-.21-.48.02-.79-.19-1-.62-.14-.3-.31-.58-.47-.87-.08-.15-.18-.22-.37-.12-.23.12-.46.03-.65-.12-.21-.17-.4-.16-.61-.04-.25.15-.5.32-.76.45-.18.09-.36.2-.52-.06-.07-.11-.22-.09-.35-.09-.64.02-1.29.04-1.93.05-.15 0-.3-.03-.45-.03-.49.03-.61-.26-.62-.68 0-.28-.06-.51-.3-.68-.09-.06-.13-.17-.13-.28-.01-.17-.03-.34-.05-.51-.01-.14.02-.25.16-.34.2-.13.21-.32-.01-.4-.44-.17-.51-.5-.56-.9-.12-.8-.47-1.49-1.02-2.1.08-.07.14-.02.2 0 .46.18.68.12.96-.29.37-.53.71-1.07 1.13-1.56.03-.04.06-.09.14-.1.01.12-.08.19-.14.27-.41.6-.84 1.2-1.19 1.85-.18.33-.17.67 0 1 .13.26.19.53.19.83 0 .35.19.59.44.61.29.02.49-.16.57-.52.03-.15.08-.25.24-.31.19-.06.31-.24.4-.42.1-.19.22-.2.39-.09.1.07.2.2.33.08s.09-.28.02-.42c-.07-.13-.16-.19-.33-.13-.2.07-.43-.14-.41-.35 0-.13.09-.16.2-.17.25-.02.45.09.65.21.09.05.17.17.27.03.09-.13.08-.26-.05-.35-.17-.12-.34-.23-.51-.34-.06-.04-.17-.08-.13-.18s.14-.04.21-.03c.15.04.31.05.38.24.06.16.23.11.36.09.12-.02.21-.08.22-.23.03-.39.11-.76.43-1.03.08-.07.05-.14-.01-.21-.17-.18-.33-.35-.61-.34-.09 0-.21 0-.21-.11 0-.1.14-.09.22-.1.23-.01.44.07.63.19.22.15.43.32.64.48.05.04.09.09.15.11.18.08.38.13.53-.02.15-.16.09-.37-.03-.51-.37-.43-.73-.88-1.4-.75-.15.03-.32.03-.32-.21 0-.14.08-.21.2-.15.24.12.45.2.62-.09.04-.06.11-.03.17 0 .09.04.18.08.27.13.18.09.4.12.51-.06.1-.17.01-.37-.16-.48-.1-.06-.11-.14-.11-.25 0-.34-.15-.61-.44-.78-.19-.12-.4-.21-.62-.02-.07.06-.15.07-.23.04-.33-.14-.67-.26-.96-.48-.16-.12-.24-.26-.11-.46.08-.12.07-.23-.02-.35-.24-.3-.33-.67-.46-1.02-.05-.14 0-.2.14-.21.22-.02.43-.02.62.12.41.31.88.51 1.34.73.26.13.45.3.6.55.23.38.47.74.71 1.1.05.08.12.16.23.18s.23 0 .3-.07c.09-.1-.01-.18-.06-.26-.34-.49-.61-1.04-1.07-1.44-.62-.55-1.3-1.03-2.09-1.32-.12-.04-.18-.1-.13-.21.06-.13.16-.04.23 0 .5.26.99.53 1.48.81.13.07.21.07.33-.03.33-.28.57-.27.92 0 .16.12.32.25.5.36.32.19.65.23 1 .09.13-.05.18-.09.08-.23-.07-.09-.16-.2-.06-.31.09-.1.22-.06.33-.01.14.06.27.14.41.19.13.06.27.05.36-.08.09-.12.05-.23-.03-.34-.14-.21-.35-.35-.55-.51-.08-.07-.17-.14-.09-.24.07-.09.17-.03.24.02.13.09.27.18.39.28.15.13.31.18.49.07.2-.13.35-.28.31-.55-.05-.29-.19-.54-.33-.79-.11-.21-.23-.41-.29-.63-.01-.05-.05-.11 0-.15.05-.03.1 0 .15.02.11.05.18.14.24.24.15.23.24.48.36.72.08.15.14.38.38.34.14-.02.29-.47.23-.64-.04-.11-.11-.21-.14-.32-.09-.28-.26-.54-.16-.86.04-.14-.37-.55-.5-.54-.06 0-.11.04-.12.09-.09.26-.24.19-.41.1-.19-.09-.39-.17-.59-.26-.1-.05-.19-.11-.24-.2-.06-.11-.09-.24-.02-.33.07-.11.18-.01.26.02.09.04.17.08.25.02.1-.07.06-.17.02-.27-.05-.12.02-.19.12-.18.19 0 .4-.02.54.1.36.32.81.3 1.23.37.15.02.31.03.41.16.11.13.18.07.24-.04.1-.17.07-.34.03-.52-.02-.08-.07-.18.11-.16.41.05.41.04.36-.38z" fill="#939392"/><path d="m46.8 56.2q.2.79 1.02.79s.04 0 .05 0c.4 0 .38 0 .34.38-.09.76-.22 1.52-.3 2.28-.08.73.1 1.46.28 2.17.07.3.17.6.26.9.04.13.11.21.27.19.77-.12 1.32.23 1.59.99.15.43.2.89.27 1.34.02.13.06.26.09.39.07.32-.13.57-.45.58-.49 0-.97-.03-1.43-.26-.25-.12-.6-.28-.86.08-.07.09-.18.06-.28.06-.65 0-1.31 0-1.96 0-.2 0-.35.04-.41.25-.05.19-.19.17-.34.15-.5-.06-.97-.24-1.45-.36-.36-.09-.71-.08-1.02.16-.12.09-.26.13-.4.11-.58-.07-1.15-.04-1.73.06-.6.11-1.19 0-1.79-.06-.53-.06-1.06-.15-1.6-.16-.06 0-.22.04-.14-.1.27-.5.07-1 0-1.49-.04-.25-.09-.49-.08-.74.01-.71.33-1.05 1.04-1.09.41-.03.79.05 1.16.25.59.33 1.2.64 1.8.96 1.77.94 4.06-.42 4.23-2.37.07-.76-.14-1.47-.3-2.19-.12-.57-.27-1.13-.39-1.69-.12-.55.14-.85.69-.83.18 0 .29.05.34.26.06.29.19.32.4.1.23-.24.46-.47.77-.61.15-.07.23-.22.27-.39.03-.03-.01-.12.09-.1z" fill="#939392"/><path d="m51.24 53.28c.37-.27.74-.47 1.05-.76.53-.48.84-1.06.89-1.77.01-.17.08-.25.23-.3.2-.06.35-.2.47-.38.06-.09.06-.17-.02-.24-.26-.21-.06-.34.08-.48.08.08.05.16.05.24 0 .55.66 1.03 1.2.86.27-.08.34-.21.29-.48-.01-.07-.04-.14-.05-.21-.02-.12-.12-.28.02-.34.12-.05.17.13.22.23.1.18.17.37.26.56.11.24.29.37.57.35.34-.02.37.03.27.36-.07.22 0 .44.06.65.03.13.17.15.29.15.05 0 .11-.01.16-.02.51-.08.52-.07.48.43-.03.42.14.79.34 1.14.08.14.14.25.04.41-.1.17-.03.37.01.55.03.15.03.27-.13.33-.09.04-.14.11-.1.19.09.17-.03.25-.13.33-.32.28-.73.34-1.13.35-.52.02-1.04.02-1.56.01-.3 0-.59.04-.88.05-.12 0-.25.02-.33-.12-.46-.77-1.18-1.25-1.94-1.69-.23-.13-.46-.27-.73-.43z" fill="#939392"/><path d="m38.16 53.09c.13.39.29.64.65.72.2.04.31 0 .38-.18 0-.02.02-.05.03-.07.08-.11.07-.34.23-.32.11.01.08.22.1.35.03.2.16.27.34.26.44-.03.51-.08.46.54-.01.15-.06.3-.04.45.02.09.04.18.13.22.11.06.16-.05.22-.1.09-.09.2-.15.33-.15.34 0 .55-.17.66-.48.03-.09.07-.26.19-.22s.08.21.06.31c-.04.16-.1.33-.17.48-.15.31-.1.58.07.86.2.34.41.67.5 1.06.07.33 0 .42-.34.43-.25 0-.5-.06-.74-.12-.11-.03-.23-.06-.31.08-.06.12 0 .21.09.28.14.11.12.24.05.38-.26.53-.72.75-1.27.81-.84.09-1.66-.05-2.45-.32-.32-.11-.57-.3-.69-.62-.07-.17-.16-.2-.33-.14-.4.15-.8.03-1.19-.04-.19-.04-.31-.37-.2-.54.49-.83 1-1.65 1.8-2.24.53-.4.85-1.01 1.31-1.49.04-.04.06-.09.12-.18z" fill="#939392"/><path d="m36.67 66.28c-.08.2.02.31.14.4.75.52 1.39 1.17 2.13 1.7.19.14.35.31.46.51.03.05.07.13.05.17-.03.07-.11.06-.19.05-.41-.01-.82-.03-1.23-.02-.33 0-.48.14-.52.39-.05.3.12.5.42.5.27 0 .53-.04.79.09.14.07.21-.16.38-.09-.07.1-.17.13-.26.16-1.43.51-2.89.68-4.4.6-.34-.02-.67-.11-1.02-.05-.24.04-.44-.11-.65-.22-.09-.05-.11-.13-.11-.23 0-.11.1-.12.17-.14.48-.18.57-.33.37-.8-.22-.52-.25-1.09-.4-1.63-.08-.3-.18-.54-.52-.59-.09-.01-.19-.06-.17-.17.03-.14.15-.1.24-.09.53.08 1.03.29 1.54.44.2.06.39.11.59.17.1.03.22.06.3-.04s.05-.22 0-.33c-.18-.38-.43-.72-.74-1.01-.11-.1-.34-.19-.22-.37.09-.14.28.01.41.06.48.17.93.41 1.42.54.33.09.65.05 1-.01z" fill="#939392"/><path d="m60.73 62.55c-.25 0-.7 0-1.15.08-.26.04-.27-.14-.2-.28.15-.32.02-.38-.27-.43-.34-.06-.6-.28-.76-.59-.12-.23-.01-.54.23-.55.4-.02.49-.34.58-.59.17-.46.4-.88.67-1.27.35-.52.6-1.07.72-1.69.07-.37.42-.51.72-.26.16.13.23.07.28-.06.19-.48.66-.63 1.03-.89.18-.13.38-.09.52.09.14.17.09.32-.04.48-.68.79-.9 1.72-.81 2.75.04.5.12.99.26 1.47.05.18.09.4-.13.53-.15.09-.3.04-.41-.09-.09-.1-.13-.23-.14-.37-.05-.68-.11-1.37-.17-2.05-.02-.27-.02-.53-.04-.8 0-.04.01-.1-.03-.12-.06-.03-.1.02-.13.06-.63.82-1.33 1.59-1.82 2.52-.05.09-.08.2-.1.3-.07.38.08.54.45.59.39.05.76.07 1.13-.07.27-.1.53 0 .79.08.27.07.53.16.81.15.14 0 .28 0 .33.16s0 .31-.13.41c-.19.16-.42.27-.66.34-.43.14-.88.12-1.54.12z" fill="#939392"/><path d="m52.13 67.52c.07.38.32.4.62.39.52-.02 1.02-.15 1.52-.27.36-.08.7-.24 1.07-.28.13-.01.32-.01.36-.18.04-.14-.08-.24-.17-.34-.57-.63-1.28-.96-2.12-1.01-.2-.01-.36-.1-.5-.23-.09-.08-.17-.17-.26-.23-.24-.16-.42-.06-.42.23 0 .21.02.42.03.69-.11-.13-.12-.23-.14-.33-.03-.18-.08-.35-.16-.51-.15-.35-.14-.37.23-.33.2.02.4.06.55.19.29.26.6.29.95.17.21-.07.34-.06.37.2.01.12.08.19.23.15.2-.06.39 0 .57.07.67.29 1.28.68 1.82 1.17.26.23.24.31-.06.5-.12.07-.24.16-.35.24-.07.06-.12.14-.07.24.04.1.12.12.22.12.09 0 .21-.04.25.04.04.11-.08.19-.15.26-.5.45-1.09.7-1.76.67-.4-.02-.79.11-1.19.07-.14-.01-.3.17-.5.08-.1-.04-.2-.07-.24-.19-.11-.28-.32-.44-.63-.47-.2-.02-.26-.12-.19-.31.05-.14.09-.27 0-.43-.05-.08.02-.25.14-.38z" fill="#939392"/><path d="m46.8 56.2s-.06.07-.09.1c0-.26-.04-.51-.16-.75-.11-.22-.27-.31-.5-.2-.31.14-.6.31-.92.45-.41.17-.72.08-.86-.26-.15-.38-.19-.78.02-1.14.52-.89 1.29-1.46 2.3-1.7.19-.04.2.02.21.18.1.79-.06 1.57-.07 2.35 0 .33 0 .66.05.98z" fill="#939392"/><path d="m20.55 53.89c-.01-.31.05-.63.2-.95.25-.55.3-1.16.39-1.74.1-.62.28-1.18.81-1.57.17-.12.33-.2.51-.06.2.15.18.34.06.52-.14.21-.21.5-.55.52-.16 0-.19.17-.17.31s.11.24.22.33c.12.1.37.16.1.37-.06.04-.01.11.03.17.22.27.17.41-.19.44-.49.04-.75.33-.93.74-.15.35-.24.71-.25 1.09 0 .14.02.39-.13.38-.15 0-.05-.24-.08-.37 0-.04 0-.09 0-.17z" fill="#949493"/><path d="m62.78 70.56c.19-.17.4-.24.59-.35.58-.32 1.17-.6 1.83-.73.68-.13 1.14.24 1.62.61.04.03.05.08.01.11-.06.05-.13.11-.21.08-.09-.03-.18-.09-.26-.13-.39-.21-.78-.43-1.24-.5-.29-.04-.48.08-.49.34-.01.25.13.37.43.38.3 0 .61-.04.91.04.13.03.23.09.3.21.03.07.07.14 0 .19s-.16.02-.19-.04c-.17-.28-.44-.2-.68-.18-.29.03-.59.03-.88.03-.18 0-.31-.05-.39-.25-.12-.31-.42-.31-.71 0-.17.18-.35.25-.62.17z" fill="#949493"/><path d="m30.43 48.14c0 .1 0 .19-.1.21-.09.03-.12-.05-.16-.11-.02-.03-.04-.06-.06-.09-.04-.07-.09-.15-.18-.14-.1.01-.13.11-.17.19-.01.03-.03.07-.03.1-.01.08-.06.13-.14.13-.09 0-.16-.03-.17-.13-.04-.23-.19-.28-.37-.17-.15.1-.25.03-.35-.06-.14-.13-.31-.26-.31-.47 0-.13.11-.14.22-.09.21.1.38.13.38-.2 0-.15.12-.14.21-.12.22.06.42.02.63-.05.13-.04.21-.03.26.12.11.3.28.58.34.88z" fill="#949493"/><path d="m55.27 61.24c-.09.12-.19.14-.3.16-.31.06-.62.12-.91.28-.3.17-.96-.17-1.07-.5-.04-.13.06-.1.12-.11.2-.02.38.07.56.15.19.08.37.1.56 0 .34-.17.67-.03 1.03.01z" fill="#949493"/><path d="m32.3 42.98c-.2-.07-.38-.14-.56-.19-.09-.02-.2-.05-.28.04s-.01.18.03.27c.03.09.13.18.05.27-.09.11-.2.02-.29 0-.13-.03-.26-.07-.39-.1-.11-.02-.21-.06-.27-.15-.05-.07-.12-.15-.06-.24s.16-.1.24-.06c.18.09.28 0 .41-.11.36-.32.88-.2 1.12.26z" fill="#949493"/><path d="m67.47 73.39c-.09 0-.19.02-.23-.09-.11-.27-.35-.39-.61-.47-.06-.02-.11-.05-.17-.07-.11-.04-.2-.1-.16-.23s.15-.18.28-.15c.14.03.26.11.38.19.24.17.44.38.63.61.04.05.11.12.07.19s-.13.03-.19.04z" fill="#949493"/><path d="m64.19 71.17c.28 0 .55.03.82.09.18.04.34.11.48.23.07.05.21.11.13.22-.07.1-.18.01-.25-.05-.24-.21-.53-.28-.84-.28-.27 0-.53 0-.8 0-.06 0-.14-.01-.14-.09s.08-.09.14-.1c.16-.02.32-.02.48-.03z" fill="#979796"/><path d="m26.09 47.5c.15.01.32.03.32.27 0 .12-.28.43-.4.4-.16-.04-.39 0-.42-.25-.03-.21.21-.42.5-.42z" fill="#959594"/><path d="m30.32 43.8c-.09 0-.2 0-.29-.02-.11-.03-.27-.06-.23-.23.03-.16.17-.23.32-.21.09 0 .19.05.27.1.12.08.31.17.27.32-.02.1-.22.02-.34.05z" fill="#979796"/><path d="m57.47 67.9c-.11 0-.09-.07-.07-.13.05-.14.14-.25.27-.32.1-.06.24-.16.33-.03.07.11-.03.26-.12.32-.11.09-.27.11-.41.16z" fill="#969695"/><path d="m28.21 44.49c-.17-.19-.15-.47.01-.6 0 0 .01-.02.02-.02.17 0 .29.14.47.16.09 0 .12.12.07.22q-.55-.16-.57.24z" fill="#9a9a99"/><path d="m21.06 56.39c-.32-.23-.37-.61-.48-.94-.01-.04.03-.09.08-.09.08 0 .1.05.12.12.07.31.17.61.29.91z" fill="#989897"/><path d="m33.1 42.5c-.21-.06-.39-.16-.58-.15-.07 0-.12-.05-.11-.12 0-.06.07-.07.12-.08.33-.07.52.04.58.36z" fill="#9c9c9c"/><path d="m32.27 40.49c-.17.11-.31.09-.45.06-.08-.02-.12-.07-.11-.16.02-.1.1-.1.17-.07.12.04.24.1.38.17z" fill="#9e9d9d"/><path d="m29.79 44.21c0-.08 0-.2.11-.17.16.05.11.24.15.36.02.06-.02.11-.09.09-.14-.04-.18-.16-.18-.28z" fill="#9a9a99"/><path d="m31.09 40.11c-.03.14.02.26.05.38.01.04.03.09-.03.11-.05.02-.09-.02-.1-.06-.06-.15-.08-.31-.09-.46 0-.08.06-.12.12-.11.15 0 0 .11.05.14z" fill="#9b9b9a"/><path d="m33.02 44.61c-.22-.13-.28-.31-.36-.48-.04-.08 0-.12.08-.12.06 0 .17.01.14.07-.12.21.1.31.14.53z" fill="#9d9d9c"/><path d="m28.37 48.73c0 .07-.05.11-.12.12-.09 0-.14-.03-.13-.12 0-.07.03-.12.11-.13.08 0 .12.06.14.13z" fill="#9c9c9b"/><path d="m33.56 41.26c-.15.03-.22-.03-.25-.14-.01-.05 0-.09.06-.1.07-.01.07.06.1.1s.06.09.09.15z" fill="#9d9d9c"/><path d="m39.52 69.88c.02-.06.07-.08.12-.09.03 0 .08 0 .06.06-.01.06-.06.09-.12.09-.04 0-.07-.01-.07-.06z" fill="#a9a9a8"/><path d="m34.06 41.32c-.07-.01-.09-.05-.09-.1 0-.03 0-.08.05-.07.05 0 .11.04.1.1 0 .03-.04.05-.06.07z" fill="#939392"/><path d="m27.23 44.77c.1.02.16.04.18.12 0 0-.02.03-.03.03-.09.01-.11-.05-.14-.15z" fill="#a0a09f"/><path d="m30.3 40.66c-.06-.07-.11-.12-.02-.2.05.07.05.13.02.2z" fill="#a7a7a6"/><path d="m47.08 78.96c.88.05 1.77.08 2.62.37.1.03.18.08.2.19.02.1 0 .14-.12.14-.74-.02-1.47.11-2.18.3-.07.02-.18.03-.19.13-.02.12.11.12.18.16.1.07.34.06.3.2-.03.15-.25.08-.39.08-.41 0-.79-.14-1.17-.24-.04 0-.09-.05-.09-.08-.01-.07.05-.09.1-.1.04-.01.09-.02.13-.02.12-.01.27 0 .3-.16.03-.14-.09-.23-.19-.3-.17-.11-.35-.2-.55-.31.19-.09.34-.04.49.04.2.1.39.21.59.31.16.09.34.12.52.08.12-.03.22-.09.23-.22.01-.12-.06-.2-.16-.25-.21-.1-.41-.21-.62-.31z" fill="#949493"/><path d="m51.73 76.55c-.1-.01-.22.03-.27-.08-.05-.1.02-.19.08-.27.16-.26.42-.38.7-.45.33-.08.67-.07 1.01-.06.1 0 .2.03.22.15s0 .21-.12.26c-.52.22-1.05.4-1.61.44z" fill="#949493"/><path d="m39.19 78.51c.01-.12.05-.24.19-.25.77-.05 1.5.07 2.04.69.08.09.16.17.04.3-.11.12-.22.08-.3 0-.46-.45-1.03-.47-1.62-.44-.22.01-.34-.07-.36-.3z" fill="#949493"/><path d="m38.6 75.45c.13-.37.32-.5.63-.39.62.23 1.26.38 1.86.67.32.15.38.26.3.55-.04.03-.07 0-.09-.02-.41-.45-.92-.64-1.52-.69-.39-.04-.77-.22-1.18-.12z" fill="#949493"/><path d="m54.51 73.91c.11 0 .29.04.3.28 0 .17-.32.47-.49.48-.16 0-.5-.23-.5-.35 0-.22.28-.4.69-.41z" fill="#949493"/><path d="m43.03 78.59c.89-.15 1.57.24 2.16.85-.76-.19-1.36-.76-2.16-.85z" fill="#959594"/><path d="m39.57 77.1c.77.11 1.52.26 2.09.85.06.06.13.12.07.2-.08.11-.15 0-.19-.05-.53-.45-1.14-.69-1.82-.81-.06-.01-.12-.03-.18-.05-.05-.01-.12-.03-.11-.09.01-.08.09-.07.15-.06z" fill="#959594"/><path d="m37.21 75.67c.33-.36 1-.31 1.26.06.06.09.05.16-.07.16-.14 0-.29.05-.38-.12-.06-.12-.18-.09-.28-.09-.17 0-.35.1-.54-.02z" fill="#979796"/><path d="m42.35 77.04c.26.05.52.09.78.16.24.07.49.16.57.47-.44-.32-.95-.44-1.46-.58.02-.04.08-.02.11-.05z" fill="#9b9b9a"/><path d="m45.68 78.48h.56c.26 0 .34.06.47.38-.36-.12-.7-.23-1.03-.34-.02-.01-.02-.02-.02-.03s.01-.02.02-.02z" fill="#9a9a99"/><path d="m42.35 77.04s-.07.03-.11.05c-.24-.02-.46-.11-.69-.17-.08-.02-.14-.08-.14-.17 0-.04.02-.1.05-.11.08-.04.12.04.17.09.21.18.46.25.72.33z" fill="#9a9a99"/><path d="m45.68 78.48s0 .03 0 .05c-.34-.09-.66-.22-.94-.42.37 0 .64.23.94.38z" fill="#9d9d9c"/><path d="m36.52 77.07c.22.06.43.14.61.31-.25 0-.42-.16-.61-.31z" fill="#9f9f9e"/><g fill="#f5f5f5"><path d="m49.43 40.01c.61-.08.71-.21.66-.76-.06-.58.07-1.14.13-1.71.14-1.38.21-2.76.1-4.15-.01-.14-.01-.26.17-.31.21-.05.34-.21.47-.38.09-.12.19-.17.27.02s.25.23.44.23c.21 0 .43-.03.64.03s.29.22.15.38c-.26.3-.2.56 0 .86.18.28.23.62.18.96-.08.5-.06 1 .08 1.49.17.56.23 1.13.16 1.72-.09.76.02 1.52.12 2.27.07.48 0 .63-.41.87-.2.12-.39.26-.58.39-.31.21-.54.21-.82-.05-.19-.18-.37-.37-.52-.58-.34-.47-.69-.93-1.25-1.28z"/><path d="m52.22 45.54c.1.05.16.11.24.13.19.05.36.04.45-.17.1-.21.09-.44.05-.66-.04-.2-.37-.27-.56-.1-.22.19-.28.1-.31-.12-.01-.09-.03-.18-.05-.26-.04-.2 0-.3.24-.28.39.02.69-.49.51-.84-.08-.15-.22-.13-.35-.12-.18.02-.23-.02-.13-.2.74-1.29 2.56-1.71 3.7-.13.11.15.12.31.06.48-.03.08-.06.17-.09.25-.09.3.05.52.36.5.25-.02.3.09.28.29-.01.17-.03.34-.03.51-.02.49 0 .98.08 1.47.08.5-.04 1-.04 1.5 0 .16-.1.17-.21.07-.15-.14-.19-.32-.21-.51-.02-.24-.03-.48-.05-.72-.02-.28-.14-.42-.36-.4-.31.02-.53.22-.5.48.02.24.06.48.05.72-.01.31-.09.34-.39.25-.32-.09-.45-.25-.37-.59.04-.19.03-.39-.01-.59-.05-.2-.13-.36-.36-.38s-.43.06-.54.27-.14.44-.06.67c.03.1.1.23-.09.27-.18.03-.37-.09-.37-.24 0-.16.01-.32 0-.48 0-.19-.1-.34-.26-.44-.12-.08-.25-.09-.38-.03-.12.06-.13.18-.13.3 0 .16.02.32 0 .48 0 .09-.05.19-.15.19-.09 0-.1-.12-.1-.19.03-.45.06-.91.09-1.38z"/><path d="m73.75 44.56c-.21-.04-.22-.16-.26-.25-.18-.43-.37-.85-.59-1.26-.07-.12-.14-.22-.24-.32-.26-.26-.42-.28-.73-.07q-.3.21-.49-.09c-.1-.15-.48-.17-.65 0-.14.14-.22.11-.31-.03-.03-.04-.07-.08-.11-.11-.13-.11-.29-.18-.45-.1-.15.07-.08.24-.08.36 0 .11.04.23.05.34.05.3-.13.49-.34.65-.1.08-.16.01-.22-.07-.08-.12-.12-.27-.13-.41-.02-.3-.2-.42-.46-.47-.52-.11-1.06-.17-1.59-.22-.18-.02-.35-.04-.53-.06-.06 0-.14 0-.16-.07-.03-.08.05-.12.11-.17.35-.26.73-.49 1.15-.63 1.21-.4 2.41-.83 3.67-1.08.39-.08.79-.11 1.2-.05.14.02.3.08.42-.08.05-.07.11-.02.16.02.27.21.53.42.8.63.06.05.15.1.08.2-.05.08-.15.08-.22.05-.15-.06-.29-.14-.43-.22-.12-.07-.23-.15-.37-.05-.13.09-.11.22-.11.36.02.49.2.92.45 1.33.13.22.26.45.34.7.04.13.09.26.07.39-.04.26-.22.49-.04.79z"/><path d="m74.83 58.09c-.22-.02-.37-.11-.54-.11-.27 0-.36.16-.23.39.06.12.14.23.23.33.13.16.08.28-.07.38-.01.01-.03.02-.05.03-.43.31-.43.35.04.6.14.07.2.18.17.33-.11.54 0 1.05.17 1.55.03.09.11.2.02.27-.09.08-.18-.03-.26-.08-.23-.14-.39-.05-.39.23 0 .16.07.29.12.44.04.13.06.21-.13.16-.17-.04-.32.03-.42.18-.1.14-.03.27.04.4 0 .02.02.03.03.05.07.16.26.3.15.48-.11.2-.36.18-.56.19-.13 0-.27-.02-.39-.06-.66-.19-.82-.76-.36-1.28.25-.28.25-.33-.07-.53-.13-.08-.07-.17 0-.24.15-.17.31-.32.46-.48.06-.06.13-.13.17-.21.12-.23.03-.38-.23-.39-.13 0-.27 0-.4 0-.06 0-.16.03-.18-.07-.02-.07.05-.11.09-.15.14-.11.28-.23.41-.35.1-.09.25-.18.12-.35-.12-.16-.28-.23-.47-.12-.2.11-.34.29-.5.44-.13.12-.26.21-.41.03-.13-.17-.03-.29.1-.38.21-.13.44-.25.66-.35.24-.11.34-.27.31-.53-.03-.23-.12-.29-.34-.19-.3.13-.52.37-.77.58-.17.14-.33.27-.48.42-.09.09-.15.05-.22-.02-.07-.08-.09-.14 0-.22.3-.25.57-.54.95-.69.3-.12.46-.42.72-.6.12-.08.23-.17.35-.25.07-.05.15-.1.22-.03.17.15.29.07.44-.04.28-.21.62-.27.97-.24.28.02.42.21.53.48z"/><path d="m71.33 56.94c-.08-.56.02-1.08.03-1.61.02-.8.14-1.6.04-2.41-.03-.22.02-.36.27-.4.46-.09.91-.2 1.36-.29.39-.08.63.07.77.44.11.29.12.59.07.9-.08.52-.12 1.04-.18 1.55-.14-.13-.29-.27-.45-.4-.17-.14-.26-.11-.3.11-.05.26-.1.53-.14.79-.03.2 0 .38.21.48.2.1.38.07.54-.08.08-.07.15-.24.27-.16.1.06.02.21 0 .32s-.02.23-.03.35c0 .06.02.13-.06.16-.08.02-.14-.01-.18-.08-.04-.06-.08-.12-.12-.18-.17-.26-.51-.27-.69-.02-.1.13-.2.19-.36.17-.4-.04-.8-.07-1.06.36z"/><path d="m39.97 37.29c-.1 0-.17-.06-.22-.11-.3-.29-.62-.17-.72.3-.02.09-.02.18-.03.27-.01.1-.06.15-.17.16-.37.05-.46.16-.38.53.05.23-.02.27-.21.31-.51.1-.56.23-.31.68.03.05.09.1.03.17-.05.05-.12.03-.18.02-.34-.07-.48-.23-.52-.58-.02-.22-.04-.44-.05-.67-.01-.33-.18-.56-.49-.66-.16-.06-.19-.14-.12-.28.06-.11.11-.23.19-.32.17-.17.21-.37.26-.59.07-.27.15-.58.27-.8.19-.36.57-.63.93-.87.15-.1.29-.05.41.07.22.23.41.5.58.77.12.18.25.32.48.35.1.02.2.07.3.12.26.13.27.22.05.4-.16.13-.16.29-.13.46.01.09.07.17.03.28z"/><path d="m70.7 53.11c.04 1.22-.12 2.42-.15 3.63-.01.58.03 1.16.04 1.74 0 .17.02.35-.22.4-.21.04-.29-.09-.38-.26-.2-.38-.42-.75-.64-1.12-.23-.4-.31-.8-.04-1.21.05-.07.06-.15.02-.23-.33-.73-.18-1.47-.07-2.21.05-.37.05-.75.04-1.12 0-.2.06-.26.25-.2s.37.14.52.27c.15.12.25.09.33-.08.04-.1.08-.24.2-.21.11.03.08.18.09.29v.32z"/><path d="m59.63 43.9c.17-.02.51.03.84.11.1.02.2.05.24.15.11.29.34.52.31.87-.02.23-.05.46-.04.69 0 .11-.09.11-.15.16-.24.18-.47.21-.7-.01-.02-.02-.08-.03-.1-.02-.32.18-.67-.05-.99.08-.06.02-.1 0-.15-.03-.21-.1-.4-.08-.57.07-.06.05-.12.11-.17.01-.13-.26-.35-.22-.56-.17-.18.04-.24 0-.27-.18-.03-.14 0-.27.01-.4.04-.33.08-.66.13-.98.02-.14.03-.29.24-.28.59.03 1.18-.05 1.94-.07z"/><path d="m57.16 40.52c-.78 0-1.06-.24-1.05-.9 0-.68.05-1.35.05-2.03 0-.22.11-.43.21-.63.05-.11.11-.1.17 0 .08.13.14.27.23.39.21.3.45.32.7.04.04-.05.08-.1.12-.14.04-.06.09-.13.17-.11s.09.1.1.17c.09.51.17 1.02.26 1.53.04.23-.02.46-.03.69-.01.22 0 .43.06.64.05.19-.02.24-.19.25-.31.03-.62.07-.8.09z"/><path d="m65.87 52.32c0-.62 0-1.23 0-1.85 0-.07-.01-.16.06-.19.08-.04.12.06.17.11.15.13.3.26.44.39.18.17.29.37.29.61 0 .29.15.46.4.58.32.16.65.3.93.53.26.22.43.45.42.84 0 .43.11.86.16 1.3.04.3-.01.59-.2.84s-.41.26-.63.04c-.1-.1-.19-.22-.28-.32-.16-.17-.31-.34-.21-.61.03-.08 0-.2-.01-.29-.03-.14-.01-.25.1-.33.12-.08.23-.06.35 0 .09.05.16.19.3.07.17-.15.26-.34.25-.57 0-.16-.14-.17-.25-.2-.46-.13-.78-.5-1.2-.7-.27-.13-.48-.09-.66.14-.05.07-.08.14-.05.22.05.13.02.22-.12.24-.15.03-.28-.02-.3-.19-.02-.22 0-.45 0-.67h.04z"/><path d="m63.43 46.45c-.08-.18.01-.3.02-.44 0-.13.04-.28-.12-.35-.17-.08-.32-.03-.44.1-.08.09-.14.2-.22.33-.08-.12-.14-.23-.22-.34-.11-.15-.2-.32-.44-.24-.08.03-.12-.03-.15-.11-.05-.16-.01-.3.03-.45.13.03.18.15.27.22.17.12.3.09.41-.07.12-.19.16-.39.05-.61-.1-.19-.26-.22-.45-.21-.08 0-.2.04-.24-.07-.04-.09.05-.16.11-.23.38-.4 1.31-.51 1.79-.16.24.18.51.29.68.56.07.11.25.16.38.24.12.07.26.13.35.25.05.07.08.16-.06.15-.18 0-.36.01-.52.09-.12.06-.15-.03-.2-.11-.22-.34-.53-.33-.73.02-.25.46-.14.71.37.82.25.05.49.12.68.29.11.1.24.08.36.06.17-.03.24.05.23.2-.02.23.12.55-.08.68-.12.08-.34-.2-.52-.32-.11-.07-.23-.15-.32-.24-.31-.3-.64-.42-1.03-.07z"/><path d="m65.94 49.86c0-.36-.01-.71 0-1.05.02-.57.06-1.14.09-1.71.02-.37.04-.75.06-1.12.02-.27.07-.29.31-.14.32.19.56.47.83.72.28.25.53.53.85.74.05.04.16.09.07.16-.15.09-.18.25-.27.39.02-.28-.08-.51-.23-.72-.19-.26-.36-.26-.56-.02-.04.05-.06.15-.15.12-.07-.03-.03-.11-.05-.17-.04-.14 0-.34-.17-.39s-.3.1-.42.2c-.15.13-.21.3-.13.51.22.6.62 1.1.9 1.67.07.14.23.19.38.24.37.12.69.34 1 .56.23.16.33.55.23.8-.03.08-.07.08-.14.06-.46-.09-.71.11-.79.59-.01.09.05.23-.09.25-.13.01-.14-.14-.18-.23-.08-.22-.05-.44.02-.65.11-.38.07-.5-.27-.71-.23-.15-.49-.26-.68-.47-.08-.09-.15-.02-.21.03-.13.11-.26.24-.41.38z"/><path d="m32.05 62.97c-.08 0-.2.04-.25-.05-.06-.11.08-.13.13-.2.1-.14.05-.32-.13-.38-.1-.04-.21-.07-.31-.05-.49.09-.94-.05-1.37-.24-.28-.12-.56-.19-.86-.16-.23.02-.33-.07-.33-.3-.01-.31.06-.43.32-.45.4-.02.8 0 1.2-.04.81-.06 1.62-.06 2.41-.3.14-.04.3-.03.45-.02.1 0 .18.07.07.14-.61.43-.75 1.1-.95 1.75-.06.2-.13.36-.38.31z"/><path d="m47.99 42.67c.23-.53.55-.98 1.13-1.19.27-.09.49-.05.67.17.17.2.33.42.62.48.14.03.12.18.15.29s-.06.12-.14.15c-.17.07-.36.71-.28.87.04.07.1.09.18.09.18 0 .36.02.54-.01.15-.03.22-.01.24.14.01.16.02.32-.2.34-.15.01-.35-.05-.45.02-.27.2-.51.14-.77 0-.12-.06-.25 0-.37.04-.19.04-.37.09-.5-.11-.05-.07-.13-.03-.2-.02-.19.02-.37.04-.56.06-.07 0-.16.02-.18-.07-.02-.1.03-.19.08-.28.04-.07.11-.03.17-.01.03 0 .05.02.08.03.37.11.61.06.74-.16.18-.3.14-.77-.09-1-.17-.17-.4-.15-.62.04-.07.06-.13.11-.2.17-.02-.02-.03-.04-.05-.05z"/><path d="m25.37 58.9c.34.05.71.04 1.06.13.14.04.19.09.13.22-.15.36-.26.74-.51 1.05-.16.2-.34.27-.6.26-.41 0-.82.06-1.22.1-.45.05-.67-.19-.57-.64.15-.64.57-1.01 1.26-1.1.14-.02.28-.03.45-.04z"/><path d="m47.26 46.6c-.05-.29-.09-.55-.04-.82.03-.15.09-.24.24-.2.54.13 1.04 0 1.54-.21.07-.03.16-.08.23-.02.27.2.48.03.68-.12.18-.14.32-.19.52 0 .16.16.37.12.52-.06.07-.08.12-.17.18-.27.11.09.1.22.11.33.05.64.04 1.27-.14 1.89-.06.21-.31.35-.5.26-.22-.09-.17-.29-.15-.46.02-.14.12-.1.21-.09.29.03.42-.11.36-.39-.03-.13-.06-.26-.14-.37-.16-.23-.37-.22-.48.03-.07.16-.15.1-.21.03-.11-.12-.19-.26-.29-.39-.09-.12-.2-.21-.37-.14-.16.07-.31.15-.32.36 0 .26-.01.52.04.78.04.19 0 .37-.08.55-.08.2-.26.2-.43.18s-.16-.17-.16-.29c0-.21 0-.41 0-.62-.01-.34-.22-.59-.51-.63-.34-.05-.58.12-.69.48-.02.06-.02.14-.12.21z"/><path d="m42.13 44.83c-.11-.13-.1-.25-.07-.39.09-.39.33-.69.63-.94.21-.17.43-.31.67-.44.3-.16.62-.2.95-.09.55.18 1.03.49 1.52.77.08.05.06.52-.02.58-.07.04-.12 0-.16-.05-.07-.09-.14-.18-.22-.27-.15-.16-.29-.13-.39.05-.07.13-.11.28-.17.42-.02.06-.04.13-.12.12-.06 0-.07-.07-.09-.12q-.16-.52-.69-.35c-.08.03-.17.06-.26.05-.22-.02-.4.05-.54.22-.07.09-.13.11-.24.02-.29-.25-.53-.18-.67.18-.03.08-.05.17-.13.24z"/><path d="m33.71 47.89c0-.75.56-1.51 1.22-1.64.31-.06.58.06.83.23.12.08.12.2.01.29-.24.22-.35.48-.43.8-.09.36-.36.66-.61.93-.17.19-.45.09-.68-.02-.25-.12-.34-.33-.34-.59z"/><path d="m63.83 51.09c0-.18.03-.4-.05-.62-.04-.1 0-.17.09-.22.1-.06.2-.12.29-.19.12-.09.16-.03.17.08.03.18.09.4.29.4.22 0 .25-.25.28-.43.03-.15.04-.3.07-.45.01-.06 0-.14.09-.15.07 0 .08.08.1.14.15.47.19.94.14 1.43-.04.38-.09.76-.15 1.14-.05.32-.21.39-.52.29-.51-.17-.84-.72-.81-1.42z"/><path d="m47.44 40.75s.09 0 .13 0c.17.02.38.03.46.17.08.15-.13.24-.21.36-.25.37-.56.69-.87 1.01-.06.06-.12.15-.22.1-.31-.16-.63-.08-.95-.08-.2 0-.42.04-.5-.2-.07-.23-.08-.48.11-.68.15-.16.38-.24.47-.46 0-.02.06-.04.09-.04.5.02.98-.15 1.48-.17z"/><path d="m28.29 60.59c0 .29-.14.5-.15.72-.02.4-.25.56-.57.68-.16.06-.32.16-.41.33-.04.06-.09.14-.17.08s.01-.1.04-.15c.08-.11.08-.23.04-.36-.08-.26-.2-.5-.31-.74-.1-.22-.11-.43.07-.62.16-.17.14-.4.18-.61.09-.49.35-.6.75-.31.35.25.54.59.54.97z"/><path d="m55.04 38.22c-.41.02-.72-.1-.95-.38-.2-.25-.35-.54-.2-.87.18-.4.53-.56.94-.63.11-.02.23-.01.35 0 .22.02.36.12.4.36.06.42 0 .84-.04 1.25-.03.31-.32.24-.49.26z"/><path d="m73.83 48.19c-.22 0-.35.16-.49.3-.17.18-.26.1-.32-.08-.25-.75-.49-1.51-.74-2.27-.02-.07-.05-.14.05-.18.1-.03.19-.02.23.08.06.16.13.32.16.48.07.31.12.63.17.95.03.23.13.39.38.41.23.03.44-.02.51-.28.03-.11.07-.15.2-.12.31.06.39 0 .44-.31.03-.17.07-.31.27-.34.12-.02.14-.11.14-.22-.02-.53.34-.82.73-1.08.2-.13.56-.03.71.15.08.1.09.17-.06.21-.16.04-.32.06-.47.12-.16.06-.28.16-.2.37.03.09.03.19.04.29.02.2-.07.3-.28.29-.2-.02-.38-.02-.39.26 0 .11-.14.15-.23.21-.14.08-.29.15-.42.24-.11.08-.17.22-.13.36.07.22 0 .25-.19.17-.03-.01-.07 0-.11-.01z"/><path d="m37.59 43.59c.37.04.75.19 1.12.33.09.03.09.1.04.17s-.09.13-.14.19c-.08.1-.19.18-.23.29-.16.45-.43.83-.75 1.18-.1.11-.19.09-.27.05-.27-.12-.37-.4-.52-.63-.01-.02 0-.06 0-.07.21-.31.17-.66.18-1.01 0-.37.16-.51.56-.51z"/><path d="m44.19 47.06c.46-.31.94-.39 1.44-.42.33-.02.48.16.61.43.12.26.11.5-.07.72-.23.27-.53.35-.86.35-.16 0-.3 0-.39.17-.07.12-.2.11-.31.07-.13-.03-.11-.14-.11-.24s0-.2.02-.29c.03-.32 0-.61-.32-.79z"/><path d="m50.87 29.97c.16.16.16.37.17.55.01.16.03.31.2.38.15.06.31.01.42-.1.16-.15.27-.2.44.02.15.21.64.1.9-.15.14-.13.21-.33.39-.45.1.18.09.37.11.55.01.14-.07.23-.2.29-.42.2-.86.29-1.32.29-.73 0-1.46-.11-2.19-.07-.2 0-.28-.08-.29-.25-.01-.14 0-.29-.01-.43 0-.1.04-.18.14-.2.09-.02.14.06.19.12.03.04.06.09.08.14.08.13.15.27.34.26.2-.02.32-.15.4-.32.1-.2.1-.43.24-.64z"/><path d="m25.08 61.13c.23-.02.5.05.77.12.36.09.57.58.4.92-.03.06-.05.09-.12.06-.36-.14-.74-.05-1.12-.06-.28-.01-.55 0-.83-.07-.17-.04-.37-.08-.42-.29-.04-.2.11-.33.26-.43.3-.2.64-.25 1.05-.25z"/><path d="m33.97 49.85c0 .26-.44.88-.67.96-.06.02-.12.02-.18 0-.3-.06-.59-.14-.89-.2-.09-.02-.15-.04-.1-.16.13-.29.23-.58.37-.86.19-.37.44-.45.82-.29.15.06.29.13.43.21.13.08.21.19.21.33z"/><path d="m40.87 43.91c-.17 0-.32-.06-.41-.22-.08-.14.05-.25.13-.35.11-.14.17-.29.23-.45.16-.44.46-.75.84-1.01.17-.12.28-.03.41.06.17.12.32.25.34.48 0 .01-.01.03-.03.04-.49.34-.69.93-1.14 1.31-.11.09-.22.15-.36.14z"/><path d="m45.09 34.56c.13.3.32.58.21.93-.08.24.01.48 0 .72 0 .1.01.23-.09.26-.11.03-.1-.12-.14-.19-.16-.35-.52-.48-.96-.32-.12.04-.25.09-.32.18-.18.22-.31.12-.45-.04-.27-.32-.28-.8-.03-1.14.13-.17.24-.17.35 0 .14.24.36.4.55.58.11.11.23.11.36.02.29-.2.4-.4.52-.99z"/><path d="m30.17 59.45c0 .17 0 .3-.04.42-.14.49-.17.52-.67.47-.07 0-.14 0-.21 0-.45-.01-.63-.22-.57-.67.06-.49.19-.61.69-.62.12 0 .22-.05.33-.09.3-.12.38-.08.45.23.02.1.02.21.03.27z"/><path d="m61.92 48.3c-.06-.23-.07-.44-.05-.65.03-.21.12-.22.29-.17.75.22 1.34.71 1.95 1.15.24.17.46.36.66.62-.13.07-.24.03-.33-.03-.23-.17-.43-.17-.62.06-.08.09-.19.27-.3.23-.14-.06-.06-.26-.07-.4-.02-.11-.03-.23-.04-.35-.04-.34-.19-.43-.51-.3-.09.04-.16.1-.25-.02-.29-.38-.31-.38-.72-.14z"/><path d="m37.4 49.7c.02.23.03.38-.21.43-.15.03-.26.16-.32.3-.07.14-.12.3-.18.45-.05.13-.05.3-.14.4-.11.11-.23-.09-.36-.07-.05 0-.11 0-.16 0-.31.01-.44-.13-.34-.44.08-.28.22-.54.34-.81.05-.11.13-.08.2-.02.13.13.21.06.29-.06.06-.08.12-.16.17-.24.03-.04.06-.09.1-.12.14-.14.32-.17.5-.12.2.06.1.24.12.31z"/><path d="m76.97 51.49c0 .14 0 .27-.12.34-.14.08-.26 0-.37-.07-.07-.04-.14-.11-.21-.11-.36.03-.49-.2-.61-.48-.27-.67-.55-1.34-.83-2.01-.03-.08-.1-.17-.01-.24.07-.05.15.02.22.05.21.11.34.29.38.52.06.29.11.58.16.87.03.14.08.27.17.39.05.06.1.12.18.06.16-.15.28-.04.39.06.14.12.26.28.49.19.06-.02.09.04.11.09.03.11.07.22.05.33z"/><path d="m38.46 49.03c.37-.21.63-.48 1.01-.56.15-.03.2-.13.25-.25.11-.27.5-.41.74-.26.09.06.15.14.09.25-.07.12-.09.31-.29.29-.57-.03-.56-.03-.65.51-.05.31-.07.62 0 .93.02.09 0 .18-.07.25-.04.05-.09.09-.16.09-.08 0-.08-.08-.09-.14s-.04-.13-.03-.18c.11-.41-.24-.6-.41-.87-.06-.09-.2-.02-.38-.07z"/><path d="m39.28 45.84s-.09 0-.13 0c-.17.04-.35.05-.46-.12-.11-.19.05-.32.14-.45.36-.52.79-.51 1.14.03.28.43.28.93.34 1.41 0 .05 0 .13-.07.12-.07 0-.13-.05-.19-.09-.05-.03-.04-.07-.01-.11.03-.05.06-.09.08-.14.09-.24-.02-.48-.26-.55-.19-.05-.37-.12-.57-.11z"/><path d="m29.24 56.98c.16-.07.34-.04.45.21.15.33.25.65.1 1-.04.09-.13.15-.23.16-.18.02-.35-.05-.52-.1-.27-.09-.11-.27-.12-.42-.01-.18-.05-.35-.05-.53 0-.17.06-.33.36-.32z"/><path d="m62.72 48.74c.02.06.03.08.03.11.07.27.25.58.17.79-.08.22-.33.41-.49.64-.13.2-.38.18-.51-.02-.16-.26-.13-.55-.06-.83.01-.05.04-.08.11-.08.51-.02.62-.11.74-.61z"/></g><path d="m41.56 49.24c.42-.27.86-.49 1.26-.76.25-.17.37-.36.34-.66-.03-.36-.11-.42-.42-.26-.03.02-.06.04-.14-.02.21-.14.41-.3.63-.4.14-.06.32.18.26.32-.08.21-.12.43-.13.65-.01.42-.15.6-.54.75-.12.04-.22.12-.32.19-.29.17-.59.28-.94.19z" fill="#f4f4f4"/><path d="m31.66 52.03c.02-.3.14-.47.36-.57.13-.06.26-.08.34.08.02.03.05.05.08.07.27.18.26.17.05.41-.17.2-.27.45-.47.64-.14.13-.17.11-.21-.06-.05-.21-.11-.41-.15-.57z" fill="#f4f4f4"/><path d="m69.24 51.62c.13-.39.12-.77.43-1.03.21-.18.33-.15.42.11.08.23.15.48.21.72.03.12.02.25-.13.27-.13.02-.22-.03-.23-.19-.01-.23-.13-.22-.31-.16-.14.05-.2.19-.39.28z" fill="#f4f4f4"/><path d="m44.79 32.46c-.2.03-.36.06-.51.07-.29.02-.46-.17-.46-.46 0-.23.24-.45.48-.45.15 0 .23.08.25.22.02.1-.02.22.04.31.05.09.12.17.2.3z" fill="#f4f4f4"/><path d="m60.57 46.97c.11.03.21-.02.28-.18.07-.17.17-.16.26 0 .18.33.06.6-.3.67-.1.02-.19.04-.29.04-.2 0-.4-.03-.39-.29 0-.24.19-.27.44-.24z" fill="#f4f4f4"/><path d="m48.41 39.44c0 .12.03.27-.12.32-.14.05-.27-.02-.35-.13-.12-.17-.27-.25-.47-.25-.06 0-.14-.01-.15-.08-.02-.08.05-.14.11-.16.21-.09.44-.16.67-.15.27 0 .34.21.31.46z" fill="#f4f4f4"/><path d="m39.25 40.25s-.05 0-.09-.02c-.1-.04-.25-.02-.28-.12-.03-.12.11-.16.19-.23.11-.09.2-.2.24-.34.04-.12.08-.17.19-.07.16.13.32.25.48.38.11.09.14.17-.04.2-.24.04-.43.22-.7.2z" fill="#f4f4f4"/><path d="m36.01 47.94c.14-.27.29-.54.49-.78.11-.12.24-.23.41-.09.15.13.15.37 0 .52-.12.12-.27.16-.42.22s-.29.11-.44.17c-.02-.02-.03-.03-.05-.05z" fill="#f4f4f4"/><path d="m44.85 45.79c-.12-.2-.15-.36.07-.48.27-.15.56-.17.86-.16.09 0 .15.04.1.13-.11.23-.08.47-.1.71 0 .04-.01.09-.03.13-.03.1-.09.16-.2.11-.12-.05-.11-.14-.06-.24.14-.23.08-.45-.17-.56-.24-.11-.34.04-.41.24-.01.03-.04.06-.07.11z" fill="#f3f3f3"/><path d="m34.99 52.41c-.04.5-.04.5-.5.51-.12 0-.16-.03-.13-.15.03-.13.04-.26.04-.4s.03-.22.19-.26c.34-.09.4-.05.39.3z" fill="#f3f3f3"/><path d="m77.51 46.02c-.35-.5-.73-.98-1.04-1.58.64.29 1.13 1.03 1.04 1.58z" fill="#f3f3f3"/><path d="m45.41 32.51c-.08-.01-.2 0-.25-.08-.06-.1.05-.16.1-.23.11-.15.23-.29.36-.43.08-.09.18-.09.29-.03.12.07.08.16.05.25-.14.49-.18.52-.54.52z" fill="#f4f4f4"/><path d="m30.75 54.94c-.01.17-.07.26-.27.21-.17-.04-.34-.1-.52-.05-.13.04-.16-.07-.18-.17-.02-.11 0-.2.13-.22.24-.04.48-.03.72 0 .13.02.13.13.13.23z" fill="#f4f4f4"/><path d="m72.57 39.08c-.02.11-.05.24-.21.25-.14.01-.56-.42-.54-.55.03-.16.19-.17.32-.2.16-.03.42.28.43.5z" fill="#f3f3f3"/><path d="m30.58 53.95c-.21 0-.39-.09-.56-.03-.05.02-.09-.02-.1-.06-.02-.09.03-.17.1-.2.22-.09.46-.11.68-.19.11-.04.16.09.18.19.02.12 0 .22-.12.26-.06.02-.14.03-.17.03z" fill="#f3f3f3"/><path d="m45.23 37.32c.07.24.13.47-.01.71-.06.11-.09.23-.01.35.02.04.08.09.01.14-.06.03-.12.03-.17-.03-.22-.24-.1-1.01.19-1.18z" fill="#f2f1f1"/><path d="m34.23 53.01c.03.25.05.45.07.66 0 .09 0 .18-.04.26-.05.1-.08.23-.2.21-.14-.03-.08-.17-.08-.27 0-.17.02-.33-.03-.5-.07-.23.16-.23.28-.36z" fill="#f3f3f3"/><path d="m29.46 56.21c-.08-.05-.28.07-.27-.1.01-.23.23-.24.41-.23.09 0 .24-.05.23.13-.02.25-.22.18-.37.2z" fill="#f2f2f2"/><path d="m42.43 47.63c.07 0 .12-.01.13.07 0 .12-.24.43-.34.41-.2-.04-.22-.3-.2-.36.06-.19.29-.03.41-.13z" fill="#efefef"/><path d="m55.88 34.72c0-.12-.01-.27.19-.26.17 0 .17.15.16.25 0 .13-.02.33-.2.32-.16 0-.15-.17-.15-.31z" fill="#f2f2f2"/><path d="m60.34 46.91c-.16-.08-.19-.18-.22-.28-.03-.12.03-.2.14-.25.1-.04.19-.02.27.04.04.03.03.06 0 .09-.09.09-.14.2-.17.32-.01.03-.02.07-.03.09z" fill="#f3f3f3"/><path d="m35.9 49.07c.1.02.13.09.1.16-.05.1 0 .29-.16.29-.1 0-.3 0-.29-.16.01-.18.23-.19.36-.28z" fill="#f0f0f0"/><path d="m58.66 47.31c.13-.14.18-.29.25-.44.13.1.29.24.22.37-.06.12-.27.12-.47.08z" fill="#efefef"/><path d="m58.04 46.92c.08.08.14.13.2.19s.18.11.14.2c-.03.09-.14.04-.21.04-.12-.01-.16-.1-.17-.2 0-.06.02-.12.04-.22z" fill="#efefef"/><path d="m42.82 46.48c-.02-.09.02-.15.05-.21.03-.07.05-.14.14-.14.02 0 .06.04.07.07.03.07 0 .14-.06.19-.05.04-.1.11-.2.1z" fill="#e6e6e6"/><path d="m67.81 48.02c.07.02.09.08.09.14 0 .07-.03.12-.1.12-.06 0-.14-.01-.14-.09s.07-.13.15-.17z" fill="#e8e8e8"/><path d="m36.55 48.77c-.02.1-.1.14-.19.16-.05.01-.11-.02-.1-.08.01-.12.12-.11.2-.14.05-.02.08 0 .09.06z" fill="#e8e7e7"/><path d="m76.18 47.66c-.09-.02-.12-.07-.12-.13 0-.08.04-.14.12-.15.07 0 .08.06.08.11 0 .07-.02.13-.07.17z" fill="#f0f0f0"/><path d="m71.19 43.62c-.12-.04-.16-.1-.21-.19.12.01.16.08.21.19z" fill="#d8d8d8"/><path d="m44.05 46.31c.02.05-.01.07-.03.07-.03 0-.08 0-.09-.03-.02-.03 0-.07.05-.07.04 0 .07.01.07.04z" fill="#ededed"/><path d="m59.37 47.29s-.05.04-.07.04-.04-.03-.06-.05c.02-.01.04-.04.05-.04.02 0 .04.02.07.04z" fill="#cbcbcb"/><path d="m70.76 42.92s.02.05.03.08c0 0-.05.03-.05.02-.02-.01-.03-.04-.03-.06s0-.05.06-.04z" fill="#d0cfcf"/><path d="m47.06 61.75c-.01.11-.03.26-.05.41-.05.41-.13.52-.46.6-.38.09-.81-.03-.97-.28-.1-.15-.09-.31-.06-.47.03-.13.05-.27 0-.4-.18-.5-.12-1.02-.12-1.54 0-.29 0-.57-.09-.85-.05-.13-.03-.23.1-.29.16-.07.28-.3.49-.15.16.1.32.16.5.16.08 0 .17 0 .2.1.01.03 0 .08-.02.1-.08.07-.12-.03-.18-.05-.25-.11-.52.05-.53.33-.02.36.1.69.27.99.14.23.44.29.64.12.17-.14.18-.01.19.09.03.36.05.73.08 1.14z" fill="#f5f5f5"/><path d="m45.55 63.48c-.35.28-.44.61-.3 1.04.06.19.19.33.38.38.24.06.19.16.06.28-.15.14-.34.2-.54.2s-.39 0-.59 0c-.17 0-.34-.02-.46.18-.08.13-.22.07-.29-.07-.08-.16-.15-.32-.22-.49-.13-.34-.07-.59.21-.84.45-.41.96-.68 1.57-.74.06 0 .12-.03.18.06z" fill="#f5f5f5"/><path d="m38.08 64.79c.02-.2.25-.24.22-.38-.03-.16-.24-.11-.35-.21-.19-.17-.31-.4-.57-.5-.11-.05 0-.15.08-.19.33-.16.67-.23 1.02-.04.33.18.59.43.84.7.15.17.11.26-.11.31-.38.07-.78.05-1.13.32z" fill="#f5f5f5"/><path d="m56.14 53.58c-.24.02-.46-.03-.57-.26-.13-.26-.08-.53.05-.77.09-.18.28-.1.44-.1s.19.13.19.24c-.01.25.03.44.27.59.14.08.07.2-.06.27-.1.05-.21.03-.32.03z" fill="#f5f5f5"/><path d="m54.75 53.32c.03.22-.02.39-.29.4-.33.01-.65-.19-.67-.44 0-.1 0-.2.02-.29.04-.14 0-.36.13-.41.14-.06.18.18.3.26.08.05.17.13.26.13.27 0 .28.16.26.36z" fill="#f4f4f4"/><path d="m53.88 51.58c-.11-.03-.28.06-.34-.08-.07-.15.04-.29.13-.41.03-.04.07-.08.11-.11.15-.13.32-.2.51-.11.1.05.12.49.03.6-.12.16-.29.08-.45.1z" fill="#f3f3f3"/><path d="m55.68 51.63c-.21 0-.37-.07-.39-.3-.01-.2.25-.4.53-.39.19 0 .38.03.38.3 0 .3-.12.39-.52.39z" fill="#f4f4f4"/><path d="m53.2 53.07c0 .24-.04.42-.23.5-.13.05-.5-.13-.56-.26-.01-.03-.02-.08 0-.1.13-.2.28-.39.47-.54.08-.06.17-.03.22.07.06.12.11.24.1.33z" fill="#f4f4f4"/><path d="m57.22 52.92c0-.11 0-.25.11-.24.17.03.09.23.14.34.03.06 0 .13-.08.13-.18 0-.14-.15-.17-.23z" fill="#eaeaea"/><path d="m40.94 56.68c-.46.02-.46.02-.46-.44 0-.35.06-.68.36-.9.13-.1.23-.11.32.06.13.25.28.5.41.75.17.35.08.49-.31.53-.11.01-.21 0-.32 0z" fill="#f5f5f5"/><path d="m40.34 57.37c-.21.03-.36-.07-.51-.17-.24-.17-.48-.35-.75-.46-.25-.1-.27-.32-.26-.54 0-.19 0-.42.23-.5.22-.08.46-.09.67.05.08.05.11.14.11.23s0 .18-.01.27c-.1.45 0 .81.45 1.02.03.01.04.05.07.1z" fill="#f5f5f5"/><path d="m38.09 56.23c0 .27-.19.48-.45.51-.09 0-.19 0-.26.05-.2.11-.34.03-.46-.13-.14-.2-.19-.59-.09-.71.02-.02.06-.05.09-.05.3-.03.6-.09.9.01.16.05.26.16.27.33z" fill="#f5f5f5"/><path d="m37.72 55.07c-.08 0-.15 0-.19-.08-.03-.06 0-.12.05-.17.15-.19.26-.43.51-.52.22-.08.32 0 .28.23-.06.44-.17.53-.66.53z" fill="#f3f3f3"/><path d="m39.66 54.77c-.04.14-.07.29-.27.25-.1-.02-.23-.06-.19-.17.06-.14.19-.27.37-.27.1 0 .1.11.09.19z" fill="#f1f1f1"/><path d="m36.22 56.58c-.06.09 0 .29-.22.27-.09 0-.11-.06-.08-.13.06-.12.03-.31.2-.34.09-.01.1.1.09.2z" fill="#eee"/><path d="m33.27 68.16c0-.52.18-.63.55-.42.3.17.6.31.93.39.11.03.22.09.31.16.31.26.62.5.97.71.09.05.19.13.16.25s-.15.11-.24.13c-.35.06-.69.03-1.04.04-.31 0-.6.04-.89.17-.1.05-.22.09-.27-.05-.18-.48-.41-.95-.47-1.38z" fill="#f5f5f5"/><path d="m37.83 68.72c-.23.03-.41-.06-.58-.2-.16-.13-.35-.14-.5 0-.09.09-.14.08-.22.01-.26-.21-.54-.41-.79-.63-.21-.18-.33-.42-.31-.71 0-.08-.01-.18.07-.21.07-.03.12.06.17.11.11.1.22.21.33.31.26.23.56.34.91.3.36-.04.64.07.88.34.13.15.28.3.43.44.16.14.09.2-.07.23-.1.02-.21.02-.32.02z" fill="#f5f5f5"/><path d="m51.16 39.74c0-.39.12-.57.4-.63.1-.02.18 0 .25.06.32.29.29.84-.04 1.11-.06.05-.13.05-.2.03-.23-.07-.4-.32-.4-.57z" fill="#949493"/><path d="m51.78 37.1c-.57-.05-.65-.19-.53-.58.02-.05.01-.11.02-.16.05-.3.18-.38.47-.3.24.07.42.37.36.64-.04.2-.11.4-.33.39z" fill="#949493"/><path d="m51.92 33.94c-.01.09.04.23-.05.27-.17.09-.36.17-.54.2-.11.02-.15-.14-.16-.24-.02-.22.04-.44.06-.66.01-.11.11-.17.21-.16.17.01.33.06.42.23.06.12.05.24.06.36z" fill="#949493"/><path d="m46.61 62.03c-.02.1.06.25-.04.31s-.2-.07-.3-.13c-.27-.16-.3-.27-.16-.54.05-.09.11-.18.16-.27.07-.13.14-.1.22 0 .08.11.12.31.12.63z" fill="#949493"/></svg>