<svg height="554" viewBox="0 0 5537.5873 5540.0404" width="554" xmlns="http://www.w3.org/2000/svg"><path d="m0 2930.9475h4718.425l-1238.45-2900.96h-19.775z" fill="#fff"/><path d="m-.00000064 4433.4399h4706.14170064l-1235.226-3987.28356h-19.7235zm2157.06130064-2363.6295c-16.1858 0-29.2905 3.1681-29.2905 3.1681s-70.927 55.2716-160.3436 127.5c-89.4535 72.2285-249.8348 225.2412-274.5334 276.2341-24.6107 50.9928-126.3832 199.727-126.3832 199.727l-7.1183 12.4912c-78.931-14.6546-162.8621-18.6762-211.884 4.5701-98.6924 46.7141-311.4521 220.9131-345.3876 327.2284-27.90612 87.3641-57.85602 163.3021-60.7045 258.432-38.71802 113.8583-59.75709 309.2529 32.94495 583.0873 0 0 55.51915 46.6096 141.86585 33.9316 18.9933-2.731 46.5335-3.9379 77.0359-8.2648-75.5758 135.7152-168.1642 303.9312-203.48702 352.4458-52.41214 72.282-388.56079 480.2935-444.08088 501.5291-55.51909 21.34-74.00185 12.7867-27.75954 46.7182 46.24131 34.0139 128.49661 8.5533 158.30182-51.0478 29.8052-59.395 69.91152-157.1363 103.88087-203.8463 33.89452-46.8173 212.72569-199.837 228.13855-229.5201 15.2343-29.2954 272.7751-384.4626 300.9764-455.8444 18.6633-12.4746 35.5323-28.6976 49.1588-49.9317 14.9739-1.6108 29.0003-5.6284 41.5674-12.7785 83.2827-46.7154 215.8736-191.1764 280.5917-318.624 37.3276-73.4792 70.5649-152.6158 88.4681-217.9374 34.5479-37.4544 62.0889-64.1342 71.9513-66.8487 30.8314-8.5561 80.1776-29.7944 80.1776 42.383 0 72.2793 52.4122 229.5187 98.6545 323.0404 46.3161 93.5272 107.9683 170.0371 107.9683 170.0371s-3.104 38.2391 27.7655 42.4876c30.8196 4.221 58.5481-8.4708 64.719 12.7785 14.8992 51.2334 80.2156 12.6849 110.9973-25.4759 30.8705-38.3476 43.2492 25.4759 86.3866-12.7867 43.249-38.1608 61.6899-89.2841 61.6899-157.337 0-29.0054-10.1864-53.9672-25.8206-70.9803 2.705-3.4156 4.239-5.4277 4.239-5.4277s36.778 3.6313 73.4073-12.6906c-2.7298 22.4493-2.7298 50.9394.5866 89.0986 9.2258 106.2934 61.7518 174.3516 92.5084 174.3516 30.8945 0 52.4512 46.71 52.4512 46.71s-3.0669 80.7364 40.1701 97.762c43.1125 17.0076 160.2817-59.5022 188.0473-93.4338 27.7525-34.0113 83.2705 50.9475 107.8933 123.2267 24.6856 72.1735 154.2095 373.9934 200.5256 446.274 46.2423 72.1734 107.8933 191.171 166.4776 293.1346 58.6598 101.9926 25.0616 112.3466 43.6131 112.3466 18.4888 0 6.1449 17.0117 21.5547 38.2597 15.4098 21.3427 98.6924 89.1879 120.311 110.422 21.5567 21.255 111.0492 63.8319 123.3171 51.0466 12.3428-12.6781 18.4749-55.1672 18.4749-55.1672s-15.4088 8.4557-77.06-21.3332c-61.7388-29.7117-141.8677-101.8853-151.1435-123.2279-9.2877-21.233-36.9654-38.2406-36.9654-38.2406s-82.6214-133.6013-132.0056-265.2755c0 0-41.1305-136.0052-84.3049-267.7826-43.1005-131.7759-184.9672-518.4432-246.6941-539.6856-61.7259-21.3359-138.7997 4.1275-181.974 55.174-43.1005 51.0395-61.6531 34.0099-83.1969 12.7756-21.6315-21.2341 3.1288-72.2778-9.2888-144.4512-4.3755-25.6697-13.3631-65.7369-26.5168-103.4825 14.4004-2.6294 26.7433-14.2079 32.7276-36.7506 12.3548-46.8187 9.212-68.0542 52.3862-59.6012 6.4213 1.3044 15.9215 2.4233 27.8285 2.6115-6.2088 15.2058-10.0118 28.0915-10.2233 36.2517-1.172 47.5085 26.2943 133.9985 67.1248 154.9234 40.8434 20.94 213.8299 124.8361 250.135 74.903 36.3053-50.0251 197.4597-171.344 226.0969-193.2848 28.7001-21.7509 81.4495-36.5402 99.5642-31.0108 18.1157 5.3495 55.2318 190.4728 118.6413 348.6151 63.4723 158.0517 52.9618 224.4868 94.3787 202.1517 41.4178-22.349 40.619 42.6759 78.7445 40.9577 38.1374-1.6974 45.0075 35.2427 67.2873 94.033 22.2789 58.8988 45.5811 131.1781 100.4498 143.2597 54.9326 12.0733 272.9866 90.2985 297.8966 71.7761 25.1344-18.624 26.2952-66.1463-37.0395-85.059-63.2597-18.932-211.4121-19.846-244.3511-51.4629-32.951-31.5097-41.2045-199.3093-76.0514-218.4308-34.7713-19.1395-87.7332-43.6902-94.1664-63.0181-5.4726-16.5183-129.5868-319.6386-177.4368-481.4136 63.0474 37.0448 160.2068 89.4944 219.515 115.7689 86.3496 38.2625 234.4251 101.9855 296.0762 101.9855 39.086 0 54.5706-18.8329 60.7166-32.6311 4.1641 14.8126 7.7438 26.4956 10.2991 32.6311 12.268 29.6831 30.7576 51.0453 30.7576 51.0453s-6.1459 16.9059 12.3429 29.6829c18.4767 12.7841 145.0095 38.2639 191.2508 97.7648 46.2423 59.476 111.0353 174.2456 117.1692 280.4591 6.2088 106.1917 55.4423 220.9599 80.1408 225.2895 24.6856 4.2278 52.4491 0 27.7516-144.454-24.6108-144.56-61.651-259.2224-120.2351-323.0541-58.5851-63.8235-209.7276-165.6882-228.2174-178.574-18.5515-12.6973-43.0994-46.7182-52.4501-46.7182-9.2759 0-6.1339-12.6768-21.5438-84.9559-2.7049-12.7992-5.4108-26.9933-8.1916-42.0933 4.0275-14.1954 18.2644-68.0527 23.6004-140.7306 6.1339-84.8734-21.6177-271.8371-46.2403-318.6886 0 0-2.4816-29.8935-2.9922-54.3589 7.6671 5.2737 15.4078 6.0805 21.4669-.8084 18.4898-21.3042 67.7981-110.5926 144.9348-157.2558 77.1486-46.853 151.0816-89.2897 237.4193-97.8458 86.3495-8.453 98.6914-16.9074 98.6914-16.9074s40.1083-8.5039 86.4244 25.4635c46.2423 33.9837 320.6999 225.2413 360.7953 246.5455 40.1074 21.2521 101.7724 59.4982 145.0095 106.2122 43.1005 46.7664 76.999 42.4532 76.999 42.4532s30.8317 46.8009 77.1477 89.2898c46.2424 42.4711 61.6531 63.7245 89.4057 72.2806 27.7645 8.453 83.2826 48.123 12.4306-92.2103 0 0-71.0157-99.0665-132.6677-137.2946-61.726-38.3133-58.6591-76.5731-95.6255-80.7309-37.0403-4.2952-104.8255-21.3057-160.3435-55.2715-55.5171-34.0869-212.7328-123.2213-280.5936-174.2141-67.873-51.0273-111.11-89.2883-129.5988-110.5748-18.4767-21.2533-49.3831-18.4371-107.8924-5.638 0 0-166.5532 52.4387-225.1503 90.5968-58.585 38.3477-191.238 140.3321-212.8684 165.7419 0 0-24.3994 0-33.5256 16.0828-1.1719-1.0819-2.269-2.2845-3.441-3.2288-15.4096-12.8513-114.1022-144.5269-114.1022-144.5269-49.383-59.4803-132.6666-182.7001-185.0419-242.3012-52.4512-59.4458-263.7117-151.7594-351.5205-140.1286-82.2604 10.7209-120.9714 84.8557-142.2288 157.0841-17.242-42.0754-36.5296-84.5631-55.1561-114.5607-52.3763-85.0632-67.8598-110.5762-67.8598-110.5762s-55.5311 0-111.0482 50.9928c-33.6004 30.8912-80.7902 100.8174-112.7936 151.141-26.7303.7036-48.2112 9.5689-59.8927 23.1076-40.0335 46.7153-268.2509 267.7824-277.4518 322.9495-5.8468 34.4649-15.1983 57.2811-27.3915 69.6691-18.2643-25.2736-55.0174-47.6089-96.0105-22.8505-2.5562 1.5118-5.4486 3.1255-8.3283 4.8615-5.698-152.9965-21.1816-554.4805-28.712-595.5935-9.2757-50.993-27.7525-89.2541-58.6599-68.0021-30.8314 21.1848-58.5113 80.786-58.5113 144.5104 0 63.6723 18.5148 97.6369 24.6487 123.2185 5.1496 21.3387 10.336 336.5391 21.0082 459.5886-40.6937 30.909-77.9845 69.3268-88.8312 114.1345-21.5935 89.2554-18.5505 123.1869-37.0403 148.7522-2.4057 3.3151-6.0592 6.9395-10.2233 10.6685-13.2275-17.4213-28.6752-34.7233-40.7686-51.7501-6.495-38.6571-8.2535-82.4312 17.0555-103.3753 30.8694-25.5473 30.8694-191.3084 0-208.3175l-30.8564-16.9582s55.5549-284.7916 43.2501-446.1708c-12.3927-161.6722-24.6996-331.6076-49.3852-357.1218-12.3297-12.7138-31.5975-15.8957-47.7832-15.8998zm-23.5655 65.0055c15.9025-.1155 26.2574 17.6098 22.0405 61.3839-6.147 63.8276-37.0044 323.0526-40.1083 420.794-3.0671 97.7083 3.1049 297.4175 3.1049 297.4175s-38.5375 36.9073-34.1489 78.3983c-11.3334-3.1268-20.2343-4.7089-24.4731-6.152-12.3559-4.1923 24.6855-174.1619-21.6316-216.7018-46.2414-42.5233-132.5789 4.331-163.4116 25.5323-24.9468 17.2151-72.1725 28.8281-89.1911 32.7109-6.2835-30.4624-18.7769-62.5205-43.3998-79.5296-22.6409-15.4971-76.1871-35.4283-138.2511-50.2382l98.1449-145.2129s74.0058-8.453 126.4569-59.4458c52.4132-50.9405 252.9019-327.2778 280.5916-348.5134 8.6734-6.6524 17.0485-10.3909 24.2767-10.4432zm1045.5331 282.8137c11.6007.063 20.686 11.7175 25.0336 33.6554 5.6233 27.9883 22.2789 131.4322 34.6964 209.4513-29.4351 7.9031-50.9918 14.5007-64.3569 23.7095-25.4208-47.6253-54.794-81.9513-84.6661-105.6086 11.1709-34.0705 23.377-76.2489 43.3869-114.8549 16.3802-31.6074 32.7584-46.4255 45.9061-46.3527zm29.2597 555.3369c9.5749 3.5571 19.5857 6.0476 29.2984 6.7871 2.4805 79.8911 29.3734 142.9764 49.7452 193.9184 14.1002 35.5301 48.0755 76.8179 84.6681 114.5636-21.6935 4.4326-41.7052 10.8748-57.3394 16.8028 0 0-250.8583 69.874-297.2493 103.7905-46.3918 34.0345-85.0281 78.9261-114.551 65.8384-29.4352-13.2815 49.0969-50.7372 117.1064-121.609 26.6684-27.8839 46.8288-70.5626 50.4823-107.9138 4.6-7.9554 9.1252-16.0125 13.2893-24.6717 45.5181-94.1168 97.8945-168.0785 124.55-247.5063zm486.7624 78.9248c1.9609.014 3.8828.1758 5.753.5017 30.8314 5.3438 30.8325 15.8064 61.7389 79.5983 30.8196 63.7245 38.4865 148.6846 15.4088 180.6068-23.1646 31.9041-50.18 42.4711-115.709-79.6341-62.3863-116.5441-7.0496-181.2707 32.8083-181.0727zm-1921.1437 4.4353c15.2722 12.9887 46.2045 39.2947 74.0816 59.1559-21.7682 14.792-42.5259 37.8474-65.3913 61.4017 1.0971-16.3039.1487-30.2892-3.3552-41.3702-5.6971-18.4179-6.6446-47.5745-5.3351-79.1874zm283.0732 209.2466c24.3993 6.7528 46.9774 7.1472 64.5814 31.3201 20.6711 28.4858 37.9889 99.5639 55.6677 133.8885-12.8544 56.1678-16.6186 82.3473 21.469 99.957 46.2424 21.2411 86.3496-8.5479 86.3496-8.5479s5.5854 9.253 14.8363 20.2336c-38.4247 30.806-74.5923 65.429-85.7631 86.079-18.5516 33.9136-40.1083 16.9046-40.1083 16.9046s-74.006-169.934-104.8624-327.2764c-3.803-19.3292-7.8933-36.7521-12.1702-52.5585z" fill="#a81c7d" fill-rule="evenodd" stroke-width="1.17084"/></svg>