<svg enable-background="new 0 0 504 504" viewBox="0 0 504 504" xmlns="http://www.w3.org/2000/svg"><path d="m454.6 256.6c-9.2 58.5-27.1 75.6-58.8 114.9-31.7 33.3-77.3 88.9-141.9 85.8-58.5-9.2-75.6-27.1-114.9-58.8-33.3-31.7-88.9-77.3-85.8-141.9 9.2-58.5 27.1-75.6 58.8-114.9 31.7-33.3 77.3-88.9 141.9-85.8 58.5 9.2 75.6 27.1 114.9 58.8 33.3 31.7 88.9 77.3 85.8 141.9z" fill="#3765af"/><g fill="#fff"><path d="m137 282.4h-23.2l-3.2 12h-20.8l24.8-72.8h22.2l24.8 72.8h-21.3zm-4.3-15.7-7.3-26.2-7.2 26.2zm20.5 3.6 19.4-1.4c.5 3.5 1.3 6.1 2.6 7.9 2.1 2.9 5.1 4.4 9 4.4 2.9 0 5.1-.7 6.7-2.3 1.5-1.5 2.4-3.3 2.4-5.2s-.7-3.6-2.3-5.1c-1.5-1.5-5-2.9-10.4-4.2-8.9-2.2-15.3-5.2-19.1-8.8s-5.7-8.4-5.7-14c0-3.7 1-7.3 2.9-10.6 2-3.3 4.9-5.9 8.8-7.8s9.3-2.8 16.2-2.8c8.4 0 14.9 1.7 19.2 5.2 4.4 3.5 7 8.9 7.8 16.5l-19.2 1.3c-.5-3.3-1.5-5.7-3.2-7.2-1.6-1.5-3.9-2.2-6.7-2.2-2.4 0-4.2.5-5.4 1.6s-1.8 2.5-1.8 4c0 1.2.5 2.2 1.5 3.1 1 1 3.3 1.8 6.8 2.6 8.9 2.1 15.2 4.3 19.1 6.5 3.8 2.2 6.7 4.8 8.4 8.1 1.7 3.2 2.6 6.8 2.6 10.8 0 4.6-1.2 8.9-3.6 12.9-2.4 3.9-5.6 6.9-9.8 8.9s-9.5 3-15.9 3c-11.2 0-19-2.4-23.2-7.2-4-4.6-6.5-10.6-7.1-18zm58.8-48.7h33.8c7.4 0 12.9 1.9 16.6 5.8 3.6 3.8 5.5 9.4 5.5 16.5 0 7.4-2 13.1-6 17.2s-10.1 6.2-18.3 6.2h-11.1v27.1h-20.5zm20.4 31h5c3.9 0 6.7-.7 8.3-2.3 1.5-1.5 2.4-3.5 2.4-5.7s-.7-4.3-2.1-5.8-3.9-2.4-7.7-2.4h-5.8v16.2z"/><path d="m276 293.6v-62.1h8.3v8.8c4-6.8 9.8-10.2 17.3-10.2 3.3 0 6.3.6 9 2s4.8 3.1 6.2 5.3 2.3 4.7 2.9 7.7c.4 1.9.5 5.4.5 10.2v38.1h-9.2v-37.7c0-4.3-.4-7.5-1.1-9.6s-2-3.8-3.8-5.1-4-1.9-6.5-1.9c-3.9 0-7.3 1.5-10.2 4.3-2.8 2.8-4.3 8.2-4.3 16.2v33.9zm95.5-20 9.5 1.4c-1.5 6.4-4.3 11.3-8.3 14.8-4.1 3.5-9.3 5.3-15.6 5.3-7.9 0-14.2-2.8-18.9-8.4-4.6-5.6-7-13.4-7-23.5 0-10.5 2.4-18.5 7-24.3 4.7-5.7 10.8-8.7 18.3-8.7 7.3 0 13.2 2.8 17.8 8.5s6.9 13.6 6.9 23.8c0 .6 0 1.5-.1 2.8h-40.6c.4 6.8 2 12 5.1 15.7 3 3.6 6.8 5.5 11.4 5.5 3.4 0 6.3-1 8.7-3 2.5-2.2 4.4-5.5 5.8-9.9zm-30.3-17h30.4c-.4-5.2-1.5-9.1-3.5-11.8-2.9-4-6.7-6.1-11.4-6.1-4.2 0-7.7 1.6-10.7 4.8-2.9 3.3-4.4 7.7-4.8 13.1zm71.5 27.6 1.4 9.3c-2.6.6-4.9.9-6.9.9-3.4 0-5.9-.6-7.7-1.8s-3.1-2.8-3.9-4.7c-.7-1.9-1.1-6.1-1.1-12.4v-35.7h-29.5v-8.2h29.4v-15.4l9.2-6.3v21.7h9.3v8.2h-9.3v36.2c0 3 .2 4.9.5 5.7.4.8.8 1.5 1.5 2.1.7.5 1.8.7 3.1.7 1 .1 2.4 0 4-.3z"/><path d="m262.3 277.5c4 0 7.4 3.4 7.4 7.5s-3.3 7.5-7.4 7.5c-4 0-7.4-3.4-7.4-7.5s3.3-7.5 7.4-7.5z"/></g></svg>