<svg height="128" width="128" xmlns="http://www.w3.org/2000/svg" xmlns:xlink="http://www.w3.org/1999/xlink"><clipPath id="a"><path d="m30 94 2 2 3 10 1-12 3 15v-19l2 5 3 14v-19l2 2 3 17 3-23 6.615678 25.91971.384322-15.91971 2-6 2 25 6-25 2 21 5-22 5 24 1-18 3-6 1 23 5-22 3 10 1-9 3 6v-19l-3 8-1-17-2 13-2-4-1-14-5 19-1-4-3-30-3 26-2 8-4-27-4 23-2 6-1-41.304687-6 46.304687-6-42-3 36-2-4-2-24-1 24-3 7-2-24-2 19-3-5v14l-4-15z"/></clipPath><filter id="b" color-interpolation-filters="sRGB" height="1.184421" width="1.200229" x="-.100114" y="-.092211"><feGaussianBlur stdDeviation="2.92"/></filter><filter id="c" color-interpolation-filters="sRGB"><feGaussianBlur stdDeviation="1.3375"/></filter><filter id="d" color-interpolation-filters="sRGB"><feGaussianBlur stdDeviation=".35326172"/></filter><filter id="e" color-interpolation-filters="sRGB"><feGaussianBlur stdDeviation="3.588898"/></filter><clipPath id="f"><path d="m64 6.875c-13.263069-.0000005-25.358662 4.140795-34.28125 11.09375s-14.718749 16.901388-14.71875 27.96875v4c-8.858794 4.488478-15.00000027 16.262502-15 30.0625.00000035 17.663999 10.049452 32 23 32v-66.0625c.000001-8.28809 4.289844-15.915956 11.65625-21.65625s17.768353-9.40625 29.34375-9.40625c11.575394 0 21.977345 3.665955 29.34375 9.40625 7.36641 5.740295 11.65625 13.368161 11.65625 21.65625v66.0625c12.95055 0 23-14.336001 23-32 0-13.799998-6.14121-25.574022-15-30.0625v-4c0-11.067362-5.79616-21.015795-14.71875-27.96875-8.922588-6.952955-21.018183-11.0937497-34.28125-11.09375zm-38 42.125v63c2 0 4-1 5-3v-58c-1-1-3-2-5-2zm76 0c-2 0-4 1-5 2v58c1 2 3 3 5 3z"/></clipPath><filter id="g" color-interpolation-filters="sRGB"><feGaussianBlur stdDeviation=".79830634"/></filter><g transform="translate(0 .271869)"><path d="m61.15625 42.25c-2.294445 5.742238-4.504421 15.244785-7.173423 4.312915-2.001608-7.764637-6.278699 4.865707-9.389077 7.030835-6.273228 4.768656-9.745087 11.488411-12.53125 18.6875-7.377751-6.273358-4.610431 3.794884-5.0625 8.71875.402184 7.380888-.800512 15.452086.59375 22.40625 5.854747 5.10155 10.089878 13.15352 18.802059 13.04976 5.959442 2.07139 5.213051-6.94006 10.616691.53774 4.972912 6.81603 8.043984 2.83082 11.290095-.52223 4.743263 7.26056 6.196016-8.68733 10.197405-1.53402 6.184179 2.40622 11.729123 3.55166 12.743737-4.61035 1.269961-6.4463 12.353043-6.57697 9.756263-14.32715-.36218-8.040994.71936-16.655977-.53125-24.34375-4.197507-3.276078-7.436068-10.841229-12.21875-11.5-5.917514 2.871708-3.637455-9.789656-6.072621-13.516435-.796195-9.785915-2.892314-5.361098-5.171116 1.34977-1.260879 9.661168-6.561377 5.05567-9.268858-1.267371-2.408512-2.024864-5.152997-12.723556-6.581155-4.472214z" fill="#f3e517" fill-rule="evenodd" filter="url(#b)"/><g filter="url(#d)"><g clip-path="url(#a)" fill-rule="evenodd"><path d="m28 116v-73h72v73z" fill="#ff7901"/><path d="m29 80 8 5 3-9 5 6 6-10 2 12 2-8 3 6 1-6s3 8 3 7 4-15 4-15l4 13 6-12 3 13 5-9 3 9 5-5 6 6v8l-4 3-6-2-4-2-1 10-2-10-4 9-6-9-2 9-4-6-5 13-3-15-6 3-4-6-2 10-4-5-4 5-2-3-6 1z" fill="#ff0101" filter="url(#c)"/></g></g><g clip-path="url(#f)"><path d="m64 6.875c-13.263069-.0000005-25.358662 4.140795-34.28125 11.09375s-14.718749 16.901388-14.71875 27.96875v4c-8.858794 4.488478-15.00000027 16.262502-15 30.0625.00000035 17.663999 10.049452 32 23 32v-66.0625c.000001-8.28809 4.289844-15.915956 11.65625-21.65625s17.768353-9.40625 29.34375-9.40625c11.575394 0 21.977345 3.665955 29.34375 9.40625 7.36641 5.740295 11.65625 13.368161 11.65625 21.65625v66.0625c12.95055 0 23-14.336001 23-32 0-13.799998-6.14121-25.574022-15-30.0625v-4c0-11.067362-5.79616-21.015795-14.71875-27.96875-8.922588-6.952955-21.018183-11.0937497-34.28125-11.09375zm-38 42.125v63c2 0 4-1 5-3v-58c-1-1-3-2-5-2zm76 0c-2 0-4 1-5 2v58c1 2 3 3 5 3z"/><path d="m60 4.875c-13.263069-.0000005-25.358662 4.140795-34.28125 11.09375s-16.718749 16.901388-16.71875 27.96875v2c-8.858794 4.488478-18.0000003 16.262502-18 30.0625.0000004 17.663999 12.049452 28 25 28v-48c18.212543-76.721252 3-2.538386 3-4 0-12 7.610919-26.021289 14-31 7.366406-5.740294 15.424603-9 27-9 11.575394 0 21.977345 2.540955 29.34375 8.28125 7.36641 5.740295 11.65625 13.368161 11.65625 21.65625v68.0625c1.1221 0 1.93982-2.7782 3-3 11.1757-2.33812 19-14.8665 19-31 0-13.799998-4.14121-21.511522-13-26l-1-8.0625c0-11.067362-5.79616-21.015795-14.71875-27.96875-8.922588-6.952955-21.018183-9.0937497-34.28125-9.09375zm-35 40.125-2 62c2 0 7-1 8-3v-57c-1-1-4-2-6-2zm74 0c-2 0-4 1-5 2v58c1 2 3 4 5 4z" fill="#00c" filter="url(#e)"/></g><path d="m16 56c-6.7664418 2.198211-9.7702396 11.404307-9.7702396 19.404307 0-8 8.5446886-15.404307 9.7702396-19.404307zm21.77024-39.319139c-12.4472 6.797317-15.006639 12.944036-17.77024 19.319139 4.981512-7.067647 9.634193-14.354515 17.77024-19.319139zm-9.991095 33.020078.272345 2.587273-1.906412-2.042584.272344-1.361723zm81.294845.817033 4.08517 6.400098-1.49789 1.361723z" fill="#fff" fill-rule="evenodd" filter="url(#g)"/></g></svg>