<svg viewBox="0 0 128 128" xmlns="http://www.w3.org/2000/svg"><path d="m76.647452 65.166422c-2.382775-.784994-5.812992-.616343-10.290651-.616343h-17.989243v23.508927h19.237801c3.005524 0 5.116741-.32197 6.33263-.546839 2.142865-.384319 3.934541-1.128427 5.374007-2.025855 1.438446-.895383 2.621667-2.253791 3.550683-3.966877.926976-1.713084 1.391484-3.717476 1.391484-5.959001 0-2.624823-.67175-4.640458-2.016273-6.578411-1.343502-1.937953-3.206641-3.030608-5.590438-3.815601zm-2.469551-10.748691c2.36542-.703223 4.148929-1.93182 5.348484-3.564157 1.200575-1.633359 1.799843-3.711344 1.799843-6.177737 0-2.336583-.560473-4.409457-1.680398-6.187959-1.119925-1.7785-2.71763-2.466392-4.7972-3.12362-2.079569-.655184-5.645566-.455869-10.699011-.455869h-15.782061v20.442545h16.933635c4.126469 0 7.08401-.388408 8.876708-.933203zm53.819699-37.268803c0-9.3851725-7.59855-16.99286558-16.97243-16.99286558h-93.667387c-9.3738854 0-16.97242886 7.60769308-16.97242886 16.99286558v93.780182c0 9.38516 7.59854346 16.99286 16.97242886 16.99286h93.667387c9.37388 0 16.97243-7.6077 16.97243-16.99286zm-36.187771 67.583053c-1.390463 2.834359-3.110676 5.019668-5.157576 6.556947-2.047922 1.537279-4.61548 2.841513-7.701654 3.626508-3.085154.786015-6.868602 1.320588-11.34524 1.320588h-28.425883v-70.52678h27.993022c5.374007 0 9.683218.622476 12.929673 2.046298 3.247477 1.425868 5.789512 3.574379 7.630192 6.536504 1.838637 2.962125 2.758466 6.037705 2.758466 9.271716 0 3.010165-.816719 5.834303-2.447092 8.491834-1.631396 2.659575-4.094822 4.797865-7.388239 6.431224 4.253061 1.249039 7.524018 3.377109 9.810829 6.386251 2.286812 3.010166 3.430218 6.564102 3.430218 10.662832 0 3.298404-.695232 6.362742-2.086716 9.196078z" fill="#5b4282" stroke-width="1.02151"/></svg>