<svg enable-background="new 0 0 500 500" viewBox="0 0 500 500" xmlns="http://www.w3.org/2000/svg"><path d="m67.9 76.7h276.8c25.6.9 40.7 22.3 46 45.3 26.7-14.1 53.1-28.5 79.8-42.3.1 22.8.2 45.5.1 68.3-63.6 35.1-129.1 67-192.5 102.6 64.8 32.6 128.8 66.4 192.6 100.4v68.9c-26.9-13.9-53.8-27.7-80.2-42.5-4.6 21.2-16.7 40.7-39.1 45.9h-286.1c-16.2-4.7-29-15.9-36-31.1v-81.8c38.6-20.4 77.8-39.8 116-61.1-38.9-19.3-77.6-38.8-116-59v-76.8c3.2-19.6 19.1-34 38.6-36.8zm.6 65.9c48.2 22.6 95 47.8 142.1 72.7 47.3-24.1 94.1-48.8 141-73.6-94.4.4-188.8-1.1-283.1.9zm1.1 215.3c94 .9 187.9.1 281.9.5-45.9-26.1-93.6-49-140-74.3-47.2 24.7-94.5 49.4-141.9 73.8z" fill="#16161d"/><path d="m9.3 51.3h481.3v397.3h-481.3z" fill="none"/></svg>