<svg height="2344" preserveAspectRatio="xMinYMin meet" viewBox="0 0 256 240" width="2500" xmlns="http://www.w3.org/2000/svg" xmlns:xlink="http://www.w3.org/1999/xlink"><linearGradient id="a"><stop offset=".3033" stop-color="#473788"/><stop offset=".872" stop-color="#2c2255"/></linearGradient><linearGradient id="b" x1="50%" x2="50%" xlink:href="#a" y1="1089.396%" y2="-159.5%"/><linearGradient id="c" x1="49.999%" x2="49.999%" xlink:href="#a" y1="896.537%" y2="-352.359%"/><linearGradient id="d" x1="49.999%" x2="49.999%" y1="215.17%" y2="-166.715%"><stop offset=".3033" stop-color="#473788"/><stop offset=".8631" stop-color="#2c2255"/></linearGradient><path d="m70.382 153.049h-39.122c5.18 17.768 14.792 33.693 28.864 47.768 22.434 22.436 49.41 33.64 80.956 33.64 6.306 0 12.416-.47 18.35-1.365 23.761-3.587 44.565-14.33 62.39-32.275 14.162-14.07 23.842-30 29.062-47.768zm-21.572-53.134h-20.437a119.493 119.493 0 0 0 -1.488 13.775h228.399c-.233-4.7-.743-9.285-1.497-13.775m-226.902 26.567c.231 4.703.738 9.287 1.488 13.775h225.418a118.86 118.86 0 0 0 1.5-13.775m-4.404-39.362c-5.215-17.817-14.897-33.817-29.067-47.99-17.778-17.777-38.522-28.443-62.207-32.031a123.318 123.318 0 0 0 -18.532-1.386c-31.546 0-58.524 11.143-80.956 33.418-14.077 14.172-23.695 30.172-28.871 47.989" fill="#2c2255"/><path d="m20.093 120.09c0-60.337 45.314-110.469 104.264-119.287-1.462-.053-2.932-.112-4.409-.112-66.152.001-119.784 53.459-119.784 119.399 0 65.943 53.63 119.397 119.784 119.397 1.482 0 2.951-.056 4.419-.11-58.96-8.817-104.274-58.95-104.274-119.287z" fill="#f7941e"/><path d="m155.728 14.226a77.824 77.824 0 0 0 -2.364-13.775h-150.722a77.753 77.753 0 0 0 -2.366 13.775z" fill="url(#b)" transform="translate(63.083 99.461)"/><path d="m155.728 27.02h-155.45a77.611 77.611 0 0 0 2.364 13.776h150.724a77.821 77.821 0 0 0 2.362-13.776z" fill="url(#c)" transform="translate(63.083 99.461)"/><path d="m78.003 98.636c31.3 0 58.282-18.441 70.706-45.048h-141.412c12.425 26.607 39.405 45.048 70.706 45.048z" fill="url(#d)" transform="translate(63.083 99.461)"/><path d="m51.84 126.482h203.29c.108-2.035.168-4.084.168-6.147 0-2.232-.081-4.444-.208-6.647h-228.205c-.126 2.2-.208 4.415-.208 6.647 0 2.063.06 4.112.168 6.147zm18.084-39.362h-38.672c-1.271 4.166-2.091 8.44-2.879 12.795h224.692a113.52 113.52 0 0 0 -3.075-12.795m-11.617 53.135h-210.002c.766 4.352 1.638 8.623 2.888 12.794h219.479a113.252 113.252 0 0 0 3.023-12.794z" fill="#fff"/></svg>