<svg enable-background="new 0 0 512 512" viewBox="0 0 512 512" xmlns="http://www.w3.org/2000/svg"><path d="m428.49 491.05c0 11.64-77.27 20.9-172.49 20.9s-172.49-9.4-172.49-20.9c0-11.64 90.59-20.9 172.49-20.9 97.46-.13 172.49 9.27 172.49 20.9" fill="#1a4658"/><path d="m417.83 339.88c-5.33 0-11.08-2.52-15.15-21.32-4.07-18.93-10.24-38.14-10.24-38.14 6.59 0 10.24-2.94 10.24-2.94-4.49-2.1-14.44-8.98-20.9-17.67-6.59-8.69-23.42-22.58-23.42-22.58v-27.91c0-18.93 12.06-33.66 12.06-33.66-8.27 0-12.06 7.43-12.06 7.43v-39.83c0-39.41 19.91-57.08 19.91-57.08-6.17-.42-10.24 2.52-10.24 2.52 2.96-29.15 11.8-37.7 11.8-37.7-32.82-8.69-51.19 10.66-51.19 10.66-3.65-17.67 10.8-27.91 10.8-27.91-16.83-3.65-30.71 1.26-30.71 1.26 0-25.94 10.24-34.5 10.24-34.5-51.33 0-80.5 38.56-80.5 38.56-2.1-16.41 2.52-30.85 2.52-30.85-49.64 20.9-62.83 67.31-62.83 67.31-3.23-7.85-3.65-25.52-3.65-25.52s-20.47 34.36-24.26 58.2c-3.65 23.84 3.23 92.27 3.23 92.27s-3.23-4.07-10.24-4.91c0 0 7.43 8.27 7.43 26.64 0 0-2.94-2.52-7.85-1.26 0 0 7.85 7.01 8.69 18.93 0 0-8.98 6.17-14.02 12.34 0 0-7.85.42-11.92 1.68 0 0 6.59 3.65 7.85 7.01 0 0-19.35 19.77-29.17 35.76 0 0 8.69-5.33 14.72-3.65 0 0-13.6 16.41-18.09 43.61 0 0 6.59-3.23 9.4-1.68 0 0-8.27 17.25-8.69 35.34l-8.98 5.33 7.01 4.91s-5.33 22.16-6.59 34.92c0 0 4.07-4.07 7.43-5.33 0 0 4.49 10.66 10.66 18.93s20.19 15.15 28.33 15.15l15.43-.56c-1.96 8.27-5.75 15.29-13.6 15.71l-.84 1.4c-.14 0-.28 0-.56 0-.14 2.38-5.05 2.8-6.31 4.49-4.07 5.05-7.15 12.06-9.26 18.23-1.54 4.63-.84 4.63-1.82 9.26-.28 1.54-1.96 3.23-2.52 4.77 4.49-1.54 16.69-2.52 23.14-2.94l.14 5.75s1.12.98 2.8 1.68h.14c.56 0 1.12.14 1.68.28 9.68-.84 16.55.7 27.77-.14 2.24-.28 4.21-.56 6.17-1.68.56-1.68.56-1.68.84-3.79 0-.42 0-.7.14-1.26.14 0 .28 0 .56-.14h.42.14.56.28c2.1-.14 5.33-.42 7.29-.42 6.59 0 15.29.7 15.29.7.56-7.43 1.12-18.93 13.04-52.59l2.94-1.82s36.88 13.04 71.1-.56c2.66 6.73 11.5 29.03 12.9 43.19 1.12 1.68.98 3.79 1.12 6.03 0 1.82.14 3.79.28 5.61 1.26-.14 5.61-.7 11.36-.7 2.1.14 5.33.28 7.29.42h.28.56.14.42c.14 0 .28 0 .56.14.14.42.14.84.14 1.26.28 2.1.28 2.24.84 3.79.14.14.42.14.56.28 6.17-.84 12.34-.98 18.51-.56 4.91.28 9.68 1.12 14.44 1.96v.14c.42 0 .98.14 1.4.14 2.52.42 5.19.84 7.71 1.12 0-3.23 0-6.03 0-8.55 5.19.28 12.62 1.26 15.71 1.68 1.26.28 2.24.42 3.37.7.14 0 .28.14.42.14 1.12.28 2.24.56 3.65 1.12-.28-2.8-.14-2.66-.56-6.17-.28-2.66-2.24-10.94-5.89-14.3 0 0 3.93 1.68 5.19 2.38-3.93-5.33-5.75-12.76-17.95-17.95 0 0 2.24-.98 4.21-1.26-2.1-1.26-3.79-1.82-5.89-1.68.7-2.1 3.93-7.29 6.59-7.99 0 0-1.68-1.12-4.35-.28-.98.56-1.96 1.12-2.94 1.82-.42.28-.84 0-.98-.42-.84-3.09-1.4-6.31-1.96-9.54 24.54-.84 28.05-13.46 28.05-13.46 2.1 1.68 2.1 5.33 2.1 5.33 10.66-14.02 9.4-27.91 9.4-27.91 2.52.42 4.49 2.1 4.49 2.1 1.26-21.32-5.33-57.92-5.33-57.92 3.23 1.68 5.33-.42 5.33-.42-3.65-1.68-4.07-5.75-4.07-5.75 5.48-.27 6.32-5.18 6.32-5.18" fill="#edf7fa"/><g fill="#cde9ee"><path d="m182.8 494.84s.98-10.38-2.38-17.95c0 0 6.45.42 7.43 17.39 0 0-4.49.56-5.05.56"/><path d="m150.68 459.78v-.28z"/><path d="m156.57 494 .14-.14z"/><path d="m238.33 38.66c-2.1-16.41 2.52-30.85 2.52-30.85-49.64 20.9-62.83 67.31-62.83 67.31-3.23-7.85-3.65-25.52-3.65-25.52s-20.47 34.36-24.26 58.2c-3.65 23.84 3.23 92.28 3.23 92.28s-3.23-4.07-10.24-4.91c0 0 7.43 8.27 7.43 26.64 0 0-2.94-2.52-7.85-1.26 0 0 7.85 7.01 8.69 18.93 0 0-8.98 6.17-14.02 12.34 0 0-7.85.42-11.92 1.68 0 0 6.59 3.65 7.85 7.01 0 0-19.35 19.77-29.17 35.76 0 0 8.69-5.33 14.72-3.65 0 0-13.6 16.41-18.09 43.61 0 0 6.59-3.23 9.4-1.68 0 0-8.27 17.25-8.69 35.34l-8.98 5.33 7.01 4.91s-5.33 22.16-6.59 34.92c0 0 4.07-4.07 7.43-5.33 0 0 4.49 10.66 10.66 18.93s20.19 15.15 28.33 15.15l.98-.14c-.42 2.8-.98 5.61-1.68 8.41-.14.42-.56.7-.98.42-.98-.7-1.96-1.26-2.94-1.82-2.66-.84-4.35.28-4.35.28 2.66.7 5.89 5.89 6.59 7.99-2.1-.14-3.79.42-5.89 1.68 2.1.28 4.21 1.26 4.21 1.26-12.2 5.19-14.02 12.76-17.95 17.95 1.26-.7 5.19-2.38 5.19-2.38-3.65 3.37-5.61 11.5-5.89 14.3-.42 3.51-.28 3.37-.56 6.17 3.23-1.12 4.77-1.26 7.43-1.82 4.07-.56 15.29-2.1 19.49-1.68l-.7 7.99h.14c2.1-.56 3.93-.56 5.75-.7 0-2.24.14-4.35.28-6.59-.14-3.79.28-7.15 1.12-10.94 0-.14 0-.28.14-.42 1.54-5.19 4.07-8.13 5.89-9.96.56-.56 1.12-1.26 1.54-2.1.98-1.4 2.1-3.09 2.94-5.33 1.68-4.63.98-14.72-2.38-24.68 3.65 5.19 6.87 9.68 8.41 11.22l-.14-12.62s6.59 6.59 12.48 11.5c2.8 2.52 6.31 5.75 8.83 7.01.14.14.28-1.12.56.7l.14-.28c3.37 1.82 6.73 3.37 9.96 5.47.28.28.7.28.98.56 1.54.98 4.07 2.1 6.45 3.37l2.24 26.22c1.96-27.63 17.67-53.99 17.67-53.99l-.56-.14c-4.91-1.54-40.39-13.74-61.42-57.78-1.4-2.94 7.85 3.23 7.85 3.23-8.69-20.9-11.92-54.69-11.92-54.69 2.94 2.52 5.75 2.94 5.75 2.94-6.17-17.25-8.69-38.56-8.69-57.92-1.68-103.91 36.74-127.75 36.74-127.75-6.59-2.52-13.6-2.24-13.6-2.24 7.57-18.23 32.82-43.75 32.82-43.75-6.73.42-33.24 7.57-33.24 7.57 22.02-57.36 44.17-72.5 44.17-72.5-1.68 13.74 3.65 28.33 3.65 28.33 47.7-58.91 85.99-56.24 85.99-56.24 2.8-5.89 6.03-9.96 6.03-9.96-51.33.14-80.5 38.71-80.5 38.71"/><path d="m372.96 494.56s-.42-14.86-3.79-22.44c0 0 8.83 5.47 8.83 22.58 0 0-4.34-.14-5.04-.14"/></g><path d="m143.25 417.85c5.75-56.94 7.43-168.42 7.43-168.42-12.62 24.96-22.86 70.26-22.86 70.26l2.52 9.82-5.61-2.52c-8.98 30.99-2.94 72.36-.84 84 5.62 4.62 12.35 6.16 19.36 6.86" fill="#abd8d7"/><path d="m131.33 416.73c1.82 9.12 3.65 17.95 5.75 26.93 1.54.28 3.23.14 3.23.14 1.4-5.47 1.68-14.02 2.8-24.54-4.07-.57-7.99-1.27-11.78-2.53" fill="#abd8d7"/><path d="m324.43 465.81c-.28.14-.56 0-.7-.28-.7.14-1.12.28-1.4.28 8.41-6.17 9.26-12.62 9.26-12.62-5.61 2.52-11.64 3.51-14.44 3.79 19.63-16.97 22.86-48.52 22.86-48.52-7.99 9.82-19.35 18.23-28.19 23.7s-5.89 3.37-11.36 5.89c-.28 0-.42 0-.7.28-2.8 1.26-5.47 2.38-7.01 2.66 0 0 4.49 8.41 6.45 12.9l-.42.28s6.59 15.57 8.98 30.57c.28 2.52.42 4.77.56 6.45.14 2.24.28 3.65.28 3.65 8.69-1.26 20.9 0 20.9 0 0 1.4.7 4.77.84 5.47 4.07-.56 8.27-.84 12.48-.84-.15-14.59-.72-38.85-18.39-33.66" fill="#cde9ee"/><path d="m142.83 422.34c-13.6-2.24-25.94-17.95-25.94-17.95 9.96 10.52 22.3 11.92 22.3 11.92 1.68-12.06-8.27-39.69-8.27-39.69 7.43 9.26 11.36 19.77 13.6 28.47z" fill="#83bac0"/><path d="m173.68 401.02s10.66 18.93 20.05 27.07c10.1 8.83 19.63 21.32 23.56 28.75 0 0 5.05-11.78 7.85-15.99.01 0-30-8.83-51.46-39.83" fill="#abd8d7"/><path d="m313.36 437.77c1.54-2.1 3.23-4.07 4.77-6.03 2.66-3.23 5.75-6.45 7.99-9.96-3.93 2.94-8.13 5.33-12.62 7.99-12.76 8.69-21.6 11.08-21.6 11.08 2.8 4.07 7.85 15.99 7.85 15.99 2.38-4.63 6.87-10.94 12.2-17.25.56-.56.99-1.26 1.41-1.82" fill="#abd8d7"/><path d="m169.61 119.99c-1.12.14-4.91.14-4.91.14-33.94 2.38-58.76-23.84-58.76-23.84s-2.24 20.47 12.48 38.42 44.59 21.04 44.59 21.04c.98 4.21-1.12 13.6-1.12 13.6s8.69-9.68 10.94-27.91c1.55-12.89-2.51-21.59-3.22-21.45" fill="#545352"/><path d="m169.61 119.99c-1.12 0-4.91.14-4.91.14-33.94 2.38-58.76-23.84-58.76-23.84s15.43 44.74 67.17 41.23c.01 0 1.41-8.27-3.5-17.53" fill="#6e7979"/><path d="m338.74 119.99c1.12.14 4.91.14 4.91.14 33.94 2.38 58.76-23.84 58.76-23.84s2.24 20.47-12.48 38.42-44.59 21.04-44.59 21.04c-.98 4.21 1.12 13.6 1.12 13.6s-8.69-9.68-10.94-27.91c-1.55-12.89 2.52-21.59 3.22-21.45" fill="#545352"/><path d="m338.74 119.99c1.12 0 4.91.14 4.91.14 33.94 2.38 58.76-23.84 58.76-23.84s-15.43 44.74-67.17 41.23c-.01 0-1.41-8.27 3.5-17.53" fill="#6e7979"/><path d="m151.95 271.59s-24.4 87.51 0 143.6z" fill="#cde9ee"/><path d="m394.27 410c-12.06 9.12-24.54 9.82-24.54 9.82-.56-11.92 12.48-38.14 12.48-38.14-2.94 1.82-5.33 3.93-7.29 6.17l-.14-8.83 9.4-7.85-7.57-6.17 9.68-38.85-9.26 6.17s-2.8-55.25-.84-79.09c0 0-11.64-11.64-17.39-16.41 0 0 1.12 16.97 2.38 44.17 5.19 21.74 13.46 66.89 3.23 106.58.14 7.99.14 16.27.28 24.4 0 0 5.05 17.53 6.73 29.87 0 0 1.68.42 4.07 0l-.14-18.93c12.75-3.52 18.92-12.91 18.92-12.91" fill="#cde9ee"/><path d="m280.4 240.59c0 9.4 6.03 16.83 13.32 16.83 7.43 0 13.32-7.57 13.32-16.83 0-9.4-6.03-16.97-13.32-16.97-7.29.15-13.32 7.72-13.32 16.97" fill="#cde9ee"/><path d="m280.82 236.11c0 9.26 5.89 16.69 13.18 16.69s13.18-7.43 13.18-16.69-5.89-16.69-13.18-16.69-13.18 7.43-13.18 16.69" fill="#fff"/><path d="m290.5 227.55c-.14.42-.14.84-.14 1.26 0 2.38 1.54 4.21 3.37 4.21 1.68 0 3.09-1.54 3.37-3.51 1.12 1.4 1.68 3.37 1.68 5.47 0 4.35-2.8 7.85-6.31 7.85s-6.31-3.51-6.31-7.85c-.01-3.5 1.81-6.45 4.34-7.43" fill="#474746"/><path d="m216.31 240.59c0 9.4 6.03 16.83 13.32 16.83 7.43 0 13.32-7.57 13.32-16.83 0-9.4-6.03-16.97-13.32-16.97-7.29.15-13.32 7.72-13.32 16.97" fill="#cde9ee"/><path d="m216.73 236.11c0 9.26 5.89 16.69 13.18 16.69s13.18-7.43 13.18-16.69-5.89-16.69-13.18-16.69-13.18 7.43-13.18 16.69" fill="#fff"/><path d="m228.93 227.55c-.14.42-.14.84-.14 1.26 0 2.38 1.54 4.21 3.37 4.21 1.68 0 3.09-1.54 3.37-3.51 1.12 1.4 1.68 3.37 1.68 5.47 0 4.35-2.8 7.85-6.31 7.85s-6.31-3.51-6.31-7.85c0-3.5 1.82-6.45 4.34-7.43" fill="#474746"/><path d="m328.5 253.92c-.84 2.52-3.65 3.23-11.78 4.77l-.56.14c-7.99 1.54-22.16 1.26-29.87.14-.28 0-.7-.14-.98-.14-7.15-1.26-7.99-2.1-10.38-5.89-2.38-3.93-3.93-15.29-4.07-17.39v-.14c-.28-2.38-.42-3.51 2.66-4.91 4.07-1.82 22.3-4.35 29.73-4.77 5.89-.28 18.37.56 23.98 1.4.84.14 1.54.28 1.96.42.7.14 3.09 1.4 2.94 3.93-.26 3.22-2.51 18.93-3.63 22.44zm-79.09-18.65c-.28 2.38-1.82 13.74-4.21 17.53-2.38 3.79-3.09 4.63-10.38 5.89-.28 0-.7.14-.98.14-7.71 1.12-22.02 1.4-29.87-.14l-.56-.14c-8.13-1.54-10.94-2.24-11.78-4.77-1.12-3.37-3.37-19.21-3.51-22.58-.14-2.52 2.24-3.79 2.94-3.93.42-.14 1.12-.28 1.96-.42 5.75-.84 18.09-1.68 23.98-1.4 7.43.28 25.52 2.94 29.73 4.77 3.1 1.54 2.96 2.8 2.68 5.05zm89.61-15.01c-5.89-.84-16.41-1.82-28.75-1.26-16.27.84-30.15 3.09-38.42 4.49-2.52.42-4.49.7-5.89.98l-1.68.28c-1.82.28-3.09.42-4.07.42s-2.24-.14-4.07-.42l-1.68-.28c-1.54-.14-3.37-.56-5.89-.98-8.27-1.4-22.16-3.65-38.42-4.49-12.48-.7-22.86.28-28.75 1.26 0 0-6.31.84-11.78 3.09l.98 6.87s5.75-1.4 11.36-2.1c.98 9.68 3.09 22.3 3.09 22.3v.42c.14.7.28 1.26.42 1.96 1.12 4.91 2.24 7.85 6.87 9.54 4.49 1.68 15.29 3.37 26.08 3.79 4.07.14 8.55 0 13.18-.7 6.87-.98 13.04-2.8 15.43-4.63 3.51-2.52 5.33-8.98 6.45-13.18l.42-1.26c.42-1.4.84-2.94 1.12-4.49.56-2.1 1.12-4.35 1.54-5.05.14-.14.42-.56 1.96-.84.42 0 .98-.14 1.54-.14s1.12 0 1.54.14c1.54.28 1.82.7 1.96.84.42.7.98 2.94 1.54 5.05.42 1.4.7 2.94 1.12 4.49l.42 1.26c1.26 4.21 3.09 10.66 6.45 13.18 2.38 1.68 8.55 3.65 15.43 4.63 4.63.7 9.12.98 13.18.7 10.8-.56 21.6-2.1 26.08-3.79 4.63-1.68 5.75-4.63 6.87-9.54.14-.7.28-1.26.42-1.96v-.42s1.96-12.48 3.09-22.3c5.61.7 11.36 2.1 11.36 2.1l.98-6.87c-5.17-2.25-11.48-3.09-11.48-3.09z" fill="#545352"/><path d="m233.84 202.87s-14.86-7.15-23.42 6.03c0 0-.84-13.04 11.08-14.58 12.06-1.41 12.34 8.55 12.34 8.55" fill="#a0d1de"/><path d="m228.23 183.66s-13.74-6.45-20.05 6.03c0 0-2.1-10.94 7.71-13.6 9.96-2.67 12.34 7.57 12.34 7.57" fill="#a0d1de"/><path d="m286.99 210.86s11.5-5.47 18.09 4.77c0 0 .7-10.1-8.69-11.36-9.12-1.12-9.4 6.59-9.4 6.59" fill="#a0d1de"/><path d="m295.27 192.63s11.64-1.82 13.6 8.83c0 0 3.93-7.71-2.94-11.78-6.74-4.06-10.66 2.95-10.66 2.95" fill="#a0d1de"/><path d="m232.86 306.36s8.13-5.47 12.9-6.17c0 0 .98 10.38 5.89 15.43 0 0 10.38-9.26 20.47-9.96 0 0 2.66 5.61 6.87 7.71 1.54.98 3.37 1.96 5.33 2.38 0 0 5.89-3.51 7.57-9.96 0 0 .56 13.6-7.99 21.04 0 0-6.59-3.23-11.22-8.27-1.4-1.4-2.94-2.94-3.65-4.35 0 0-15.15 10.66-15.71 16.83 0 0-10.94-10.66-14.58-18.79 0 0-7.29 2.24-9.26 3.79 0 0-5.89-9.54-7.01-18.23-.27 0 6.89 6.73 10.39 8.55" fill="#b2dce5"/><path d="m260.35 279.58c-.56-.14 15.29 1.12 30.99.56 0 0 .84-2.94 2.1-4.63 0 0-.28 5.05 1.12 6.03 0 0-7.85 3.09-15.71 3.09 0 0 8.55-1.4 11.5-2.94-.13-.01-15.84.83-30-2.11" fill="#545352"/></svg>