<?xml version="1.0" encoding="UTF-8" standalone="no"?>
<svg
   enable-background="new 0 0 500 500"
   viewBox="0 0 500 500"
   version="1.1"
   id="svg380"
   sodipodi:docname="gsap.svg"
   inkscape:version="1.2 (dc2aedaf03, 2022-05-15)"
   xmlns:inkscape="http://www.inkscape.org/namespaces/inkscape"
   xmlns:sodipodi="http://sodipodi.sourceforge.net/DTD/sodipodi-0.dtd"
   xmlns="http://www.w3.org/2000/svg"
   xmlns:svg="http://www.w3.org/2000/svg">
  <defs
     id="defs384" />
  <sodipodi:namedview
     id="namedview382"
     pagecolor="#ffffff"
     bordercolor="#666666"
     borderopacity="1.0"
     inkscape:showpageshadow="2"
     inkscape:pageopacity="0.0"
     inkscape:pagecheckerboard="0"
     inkscape:deskcolor="#d1d1d1"
     showgrid="false"
     inkscape:zoom="1.0974297"
     inkscape:cx="97.500548"
     inkscape:cy="227.80502"
     inkscape:window-width="1920"
     inkscape:window-height="974"
     inkscape:window-x="-11"
     inkscape:window-y="-11"
     inkscape:window-maximized="1"
     inkscape:current-layer="svg380" />
  <path
     d="m9.3 51.3h481.3v397.3h-481.3z"
     fill="none"
     id="path378" />
  <path
     fill="#0ae448"
     d="m 149.55939,243.98452 v 0.0961 l -6.33276,34.52261 c -0.34167,1.95368 -1.89688,3.38935 -3.68772,3.38935 h -7.65233 a 1.2842239,1.6132749 0 0 0 -1.22531,1.14705 c -7.05734,30.075 -16.61244,50.75156 -29.23083,63.16195 -10.73328,10.56768 -23.964321,15.48891 -41.643017,15.48891 -15.881963,0 -26.591683,-6.4161 -35.675506,-19.07808 C 12.112082,325.95806 7.1519135,298.56198 10.156291,265.54165 15.57006,203.54897 41.166174,140.99387 90.449742,140.99387 c 14.992428,-0.17018 26.762518,5.63906 34.950918,17.24279 8.65968,12.26237 13.05431,30.74103 13.07788,54.91796 a 3.2400144,4.0701891 0 0 1 -3.23413,3.96657 H 99.132981 a 2.474193,3.1081443 0 0 1 -2.397612,-3.03412 c -0.294546,-16.71739 -4.241474,-24.86516 -12.0882,-24.86516 -13.843698,0 -22.008535,23.60709 -26.338371,36.69829 -6.049991,18.27886 -9.130951,38.12657 -8.524185,57.9003 0.288656,9.20602 1.466843,22.15662 8.424039,27.51448 6.167809,4.75842 14.968866,1.60586 20.300163,-3.66317 5.325405,-5.26166 9.614006,-14.37147 11.416633,-22.68205 0.25331,-1.15446 0.270982,-2.0499 0.02945,-2.45692 -0.25331,-0.40703 -0.954331,-0.50323 -1.490407,-0.50323 H 79.19216 a 3.3696151,4.2329966 0 0 1 -2.580229,-1.49487 2.474193,3.1081443 0 0 1 -0.512513,-2.67892 l 6.338648,-34.58921 c 0.312218,-1.77607 1.590551,-3.10814 3.163432,-3.35235 v -0.0814 h 60.853362 c 0.14138,0 0.28866,0 0.42415,0.037 1.57877,0.2516 2.69216,2.1017 2.6627,4.11459 h 0.0119 z"
     id="path2"
     style="stroke-width:6.60264" />
  <path
     fill="#0ae448"
     d="m 254.32379,204.29648 a 3.2282326,4.0553883 0 0 1 -3.22824,3.92958 h -33.26022 c -2.17964,0 -3.99995,-2.22011 -3.99995,-4.92123 0,-12.19576 -3.35783,-18.13084 -10.22665,-18.13084 -6.86884,0 -11.29883,5.30603 -11.42843,14.56387 -0.14725,10.32348 4.50068,19.69971 17.73171,35.81767 17.4195,20.52855 24.40026,38.7186 24.06449,62.75492 -0.54787,38.8592 -21.5844,63.98336 -53.59573,63.98336 -16.34735,0 -28.83614,-5.49845 -37.14236,-16.33256 -8.42993,-10.9969 -12.29438,-27.14446 -11.48732,-47.99123 a 3.2282326,4.0553883 0 0 1 3.23412,-3.92217 h 34.40307 a 3.2400144,4.0701891 0 0 1 2.48597,1.54667 2.827649,3.552165 0 0 1 0.62443,2.84173 c -0.3829,7.51875 0.6598,13.13561 3.01616,16.24375 1.50808,2.01289 3.61116,3.03415 6.23263,3.03415 6.35631,0 10.07937,-5.64647 10.22075,-15.46672 0.11781,-8.4956 -2.02059,-15.94775 -13.67285,-31.00744 -15.05134,-18.47126 -28.54747,-37.55676 -28.12922,-67.56515 0.24742,-17.39819 5.74956,-33.31635 15.49906,-44.81647 10.30913,-12.15137 24.40613,-18.57486 40.77116,-18.57486 16.39448,0.14793 28.81846,6.01647 36.93027,17.4574 7.68179,10.84891 11.38129,26.50804 10.96893,46.54816 h -0.0126 z"
     id="path4"
     style="stroke-width:6.60264" />
  <path
     fill="#0ae448"
     d="m 357.42694,354.98227 0.21796,-206.7064 a 3.0927411,3.8851806 0 0 0 -3.1163,-3.94439 h -51.475 c -1.73193,0 -2.49186,1.86489 -2.9867,3.10815 l -74.53212,206.28458 v 0.037 l -0.0295,0.0443 c -0.82474,2.53833 0.74226,5.25426 2.92779,5.25426 h 35.98184 c 1.944,0 3.22823,-0.74005 3.86445,-2.27932 l 7.14571,-21.57199 c 0.87775,-2.87134 1.04269,-3.13775 3.54045,-3.13775 h 34.3795 c 2.39172,0 2.44473,0.0593 2.4035,2.99714 l -0.77171,20.05493 a 3.0927411,3.8851806 0 0 0 3.11629,3.93699 h 36.34708 a 3.0750683,3.8629794 0 0 0 2.37405,-1.34688 2.6980485,3.3893575 0 0 0 0.61266,-2.73072 z m -63.68101,-69.0156 c -0.33579,0 -0.60088,-0.007 -0.81296,-0.037 a 0.86007658,1.0804502 0 0 1 -0.76582,-1.35426 c 0.0708,-0.3034 0.17078,-0.70302 0.31223,-1.20624 L 318.264,203.2456 c 0.22384,-0.79183 0.50662,-1.56887 0.80116,-2.32369 0.41825,-1.07306 0.92487,-1.14706 1.08394,-0.34782 0.1354,0.66603 -2.95726,82.27701 -2.95726,82.27701 -0.24153,3.05635 -0.35346,3.18215 -2.75107,3.43377 l -20.67128,-0.30342 h -0.0471 l 0.018,-0.0143 z"
     id="path6"
     style="stroke-width:6.60264" />
  <path
     fill="#0ae448"
     d="m 430.7632,144.33148 h -27.32805 c -1.44329,0 -3.0633,0.96205 -3.44621,3.12296 l -38.02599,207.42423 a 2.4918658,3.1303455 0 0 0 0.51842,2.69373 3.3696151,4.2329966 0 0 0 2.57433,1.49486 h 34.15564 c 1.83209,0 3.09275,-1.13225 3.43441,-3.09333 0,0 4.14133,-23.44429 4.14722,-23.51831 0.29454,-1.82788 -0.21208,-3.24873 -1.51986,-4.10718 -0.61855,-0.39962 -1.23121,-0.79924 -1.83796,-1.20626 l -5.92039,-3.86299 -5.89095,-3.86296 -2.27979,-1.48747 a 1.095714,1.3764639 0 0 1 -0.60088,-1.25807 1.1722962,1.4726684 0 0 1 1.16642,-1.43566 l 18.72139,0.1036 c 5.59639,0.037 11.19866,-0.45883 16.70669,-1.73168 38.76236,-8.99142 64.50574,-47.99123 65.248,-101.0591 0.63033,-45.29009 -19.4931,-68.23856 -59.79299,-68.23856 z m -9.3018,123.43774 h -0.73048 c -1.63768,0 -1.93222,-0.222 -1.98523,-0.296 -0.0235,-0.0518 10.79808,-59.74298 10.80397,-59.82438 0.27687,-1.72428 0.26509,-2.71593 -0.5832,-3.30056 -1.08394,-0.75484 -16.88342,-11.21892 -16.88342,-11.21892 a 1.1074959,1.3912646 0 0 1 -0.59499,-1.27286 1.1605143,1.4578677 0 0 1 1.16051,-1.42087 h 24.98346 c 7.77604,0.29601 12.11177,9.03582 11.90558,23.95491 -0.35935,25.842 -10.1383,52.46845 -28.0762,53.38608 z"
     id="path8"
     style="stroke-width:6.60264" />
</svg>
