<?xml version="1.0" encoding="UTF-8" standalone="no"?>
<!-- Created with Inkscape (http://www.inkscape.org/) -->

<svg
   width="200"
   height="64"
   viewBox="0 0 52.916666 16.933333"
   version="1.1"
   id="svg1"
   inkscape:version="1.4.3 (0d15f75, 2025-12-25)"
   sodipodi:docname="javafx.svg"
   xmlns:inkscape="http://www.inkscape.org/namespaces/inkscape"
   xmlns:sodipodi="http://sodipodi.sourceforge.net/DTD/sodipodi-0.dtd"
   xmlns="http://www.w3.org/2000/svg"
   xmlns:svg="http://www.w3.org/2000/svg">
  <sodipodi:namedview
     id="namedview1"
     pagecolor="#ffffff"
     bordercolor="#000000"
     borderopacity="0.25"
     inkscape:showpageshadow="2"
     inkscape:pageopacity="0.0"
     inkscape:pagecheckerboard="0"
     inkscape:deskcolor="#d1d1d1"
     inkscape:document-units="mm"
     inkscape:zoom="0.75811588"
     inkscape:cx="396.3774"
     inkscape:cy="244.68555"
     inkscape:window-width="1920"
     inkscape:window-height="1111"
     inkscape:window-x="-9"
     inkscape:window-y="-9"
     inkscape:window-maximized="1"
     inkscape:current-layer="layer1" />
  <defs
     id="defs1" />
  <g
     inkscape:label="Livello 1"
     inkscape:groupmode="layer"
     id="layer1">
    <g
       id="g2"
       transform="translate(-104.54286,-143.09048)">
      <path
         class="st3"
         d="m 148.48478,151.75516 c -0.50372,-0.55236 -0.92874,-0.99135 -1.31512,-1.45146 -0.19462,-0.23228 -0.42932,-0.29563 -0.7699,-0.2923 -1.33373,0.0133 -2.66889,-0.009 -4.00118,0.0133 -0.49371,0.008 -0.70694,-0.0656 -0.54379,-0.48678 0.14882,-0.38787 0.22896,-0.7913 0.34631,-1.18695 0.26474,-0.89689 0.44791,-1.01025 1.65571,-1.01358 1.4525,-0.004 2.90643,-0.001 4.35894,-0.001 1.74586,0 1.7201,-0.003 2.07643,-1.37033 0.1016,-0.39009 -0.0515,-0.42566 -0.46938,-0.42343 -2.07214,0.0111 -4.14429,0.004 -6.21786,0.006 -2.23957,0.001 -3.32286,0.69462 -3.7765,2.38724 -0.6454,2.40503 -1.30511,4.80783 -1.96339,7.21062 -0.21036,0.76796 -0.21751,0.76686 0.75702,0.76686 0.3091,0 0.6225,-0.0234 0.92875,0.004 0.4522,0.0411 0.6182,-0.10559 0.7012,-0.44233 0.26188,-1.07026 0.5853,-2.13162 0.84574,-3.20299 0.0973,-0.39899 0.31054,-0.53235 0.84575,-0.52568 2.11507,0.0233 4.23158,0.009 6.54127,0.009 z"
         id="path2"
         style="fill:#537d91;stroke-width:0.126112" />
      <path
         class="st3"
         d="m 153.40325,151.65847 c 0.82428,-0.61348 1.59418,-1.27142 2.38268,-1.91491 0.56526,-0.46122 1.12337,-0.92689 1.80168,-1.48591 -0.99886,0 -1.82314,0.0144 -2.64742,-0.007 -0.3964,-0.01 -0.664,0.10003 -0.92588,0.32119 -0.78421,0.66461 -1.59418,1.31032 -2.43133,1.99381 -0.27763,-0.30451 -0.52949,-0.57125 -0.77133,-0.84464 -1.3695,-1.54704 -1.3695,-1.54815 -3.86953,-1.44368 -0.009,0.24673 0.19749,0.37008 0.32485,0.51568 0.74986,0.85576 1.48398,1.72152 2.2825,2.5495 0.36492,0.37786 0.38638,0.62014 -0.0687,0.95911 -0.85862,0.63905 -1.66143,1.32477 -2.48285,1.99271 -0.61535,0.50012 -1.2264,1.00468 -1.96767,1.61483 0.9917,0 1.79165,-0.0155 2.59017,0.007 0.41644,0.0122 0.71123,-0.0856 0.99314,-0.32564 0.75273,-0.64237 1.55984,-1.24807 2.29825,-1.89934 0.35061,-0.31007 0.49943,-0.25006 0.75416,0.0589 0.51231,0.62237 1.07041,1.22252 1.6185,1.82711 0.11735,0.12892 0.18031,0.32452 0.44219,0.32674 0.81426,0.006 1.62995,0.002 2.56728,0.002 -1.05897,-1.19473 -2.00774,-2.29944 -3.00947,-3.37525 -0.33629,-0.36231 -0.28335,-0.57347 0.11877,-0.87243 z"
         id="path3"
         style="fill:#537d91;stroke-width:0.126112" />
      <g
         id="g1"
         style="fill:#e76f00;fill-opacity:1"
         transform="matrix(0.54086455,0,0,0.42004824,72.354059,84.39506)">
        <path
           class="st3"
           d="m 80.165234,151.91991 c -2.936875,-0.60325 -5.773208,-0.0661 -8.527521,1.01865 -1.269999,0.50006 -0.320145,1.34408 -0.264583,2.00289 0.07144,0.84931 0.703792,0.54769 1.190625,0.38629 1.606021,-0.53446 3.249083,-0.76464 4.939771,-0.69321 0.627062,0.0265 1.225021,0.14553 1.772708,0.45509 1.060979,0.59531 1.764771,2.4765 1.277938,3.74914 -0.394229,1.03188 -1.375834,0.4445 -2.076979,0.49477 -1.994959,0.14023 -3.939646,0.42069 -5.712355,1.41817 -2.14577,1.20915 -3.16177,3.56394 -2.648479,6.096 0.478896,2.36802 1.822979,3.53748 4.516438,3.86556 2.010833,0.24607 3.833812,-0.29104 5.484812,-1.44727 0.613834,-0.42862 0.989542,-0.69056 1.267354,0.43127 0.314855,1.27529 1.553105,0.46038 2.36273,0.6059 0.804333,0.14552 0.738187,-0.53975 0.738187,-1.06627 0.0026,-2.06904 0.0026,-4.14073 0.0026,-6.20977 0.0026,0 0.0079,0 0.01058,0 0,-1.93675 0.02117,-3.87615 -0.0053,-5.8129 -0.03969,-2.96862 -1.410229,-4.69371 -4.328583,-5.29431 z m -0.256646,14.71348 c -1.259416,0.80698 -2.545291,1.44991 -4.08252,1.13506 -1.108605,-0.23019 -1.754188,-0.97896 -1.897063,-2.10608 -0.166687,-1.32292 0.108479,-2.4765 1.423458,-3.12209 1.47373,-0.72231 3.058584,-0.73289 4.651375,-0.68527 0.460375,0.0132 0.60325,0.28575 0.605896,0.68792 0.0026,0.52652 0,1.05569 0,1.8071 -0.08996,0.64559 0.320146,1.62984 -0.701146,2.28336 z"
           id="path4"
           style="fill:#e76f00;fill-opacity:1;stroke-width:0.264583" />
        <path
           class="st3"
           d="m 99.715296,151.98341 c -1.050395,-0.0106 -1.354666,0.39423 -1.465791,1.34144 -0.312209,2.67229 -0.936625,5.28637 -1.677458,7.86606 -0.431271,1.49754 -0.73025,3.05858 -1.592792,4.58523 -0.164042,-0.36777 -0.304271,-0.58209 -0.357188,-0.81756 -0.806979,-3.47663 -2.029354,-6.83155 -3.058583,-10.24202 -0.849312,-2.81517 -0.899583,-2.75432 -3.852333,-2.7305 -1.050396,0.0106 -1.143,0.33866 -0.862542,1.23295 1.465792,4.65932 2.873375,9.3345 4.331229,13.99646 0.978959,3.13002 1.002771,3.06388 4.307417,3.1459 1.180042,0.0291 1.698625,-0.41804 2.12725,-1.44463 1.902354,-4.56141 3.394605,-9.24454 4.407955,-14.08377 0.60325,-2.87602 0.60854,-2.8231 -2.307164,-2.84956 z"
           id="path5"
           style="fill:#e76f00;fill-opacity:1;stroke-width:0.264583" />
        <path
           class="st3"
           d="m 64.827339,145.52493 c -1.140355,-0.045 -1.50548,0.26988 -1.497542,1.45785 0.03969,7.0485 -0.02117,14.09436 -0.01323,21.14286 0.0026,2.50825 -0.830792,4.55083 -2.942167,5.99546 -1.034521,0.33337 -1.121833,0.81756 -0.235479,1.46314 v 0 c 0,0 0,0 0,0 1.291167,1.54781 1.275292,1.51871 2.963333,0.55034 3.235854,-1.85473 4.333875,-4.7678 4.318,-8.3185 -0.0291,-6.56432 0.01323,-13.12863 -0.01587,-19.6903 -0.01323,-2.98185 0.465667,-2.48179 -2.577041,-2.60085 z"
           id="path6"
           style="fill:#e76f00;fill-opacity:1;stroke-width:0.264583" />
        <path
           class="st3"
           d="m 118.39753,156.91789 c -0.0132,-2.6379 -1.46315,-4.37356 -4.05078,-4.94771 -2.29658,-0.508 -4.55347,-0.21431 -6.7892,0.34396 -2.46592,0.61383 -2.46063,0.62971 -2.13255,3.09033 0,0 0.005,0.0106 0.005,0.0106 0,0 0,0 0,0 0.68527,0.127 1.2991,-0.17727 1.92881,-0.35189 1.50283,-0.41804 3.02419,-0.54769 4.57464,-0.42598 1.03717,0.082 1.86003,0.52652 2.36803,1.44992 0.51858,0.93927 0.58208,2.04523 0.23283,2.94481 -0.30427,0.78317 -1.3335,0.29898 -2.03465,0.34396 -2.08227,0.13758 -4.12221,0.4101 -5.93196,1.54781 -2.03729,1.28058 -2.93687,3.6195 -2.38389,6.10129 0.47889,2.16429 1.71979,3.19088 4.30477,3.60892 2.17752,0.35189 4.09046,-0.29898 5.83406,-1.53459 0.57415,-0.40745 0.89694,-0.48154 1.03452,0.3228 0.27782,1.61925 1.52929,0.66939 2.32304,0.81756 0.93398,0.17462 0.71703,-0.66411 0.71967,-1.1774 0.0106,-4.04548 0.0185,-8.09625 -0.003,-12.14437 z m -8.6704,10.81881 c -1.24619,-0.30427 -1.76742,-1.28587 -1.85208,-2.45269 -0.0926,-1.30175 0.48948,-2.32568 1.71185,-2.85485 1.40494,-0.60854 2.90777,-0.61648 4.4106,-0.55827 0.44186,0.0185 0.63236,0.23548 0.62971,0.66146 -0.003,0.52916 0,1.05568 0,1.66952 -0.10583,0.78316 0.32015,1.75683 -0.70114,2.42093 -1.29382,0.84138 -2.61673,1.49755 -4.19894,1.1139 z"
           id="path16"
           style="fill:#e76f00;fill-opacity:1;stroke-width:0.264583" />
      </g>
    </g>
  </g>
</svg>
