<svg viewBox="0 0 255.324 255.324" xmlns="http://www.w3.org/2000/svg" xmlns:xlink="http://www.w3.org/1999/xlink"><linearGradient id="a"><stop offset=".18" stop-color="#0052cc"/><stop offset="1" stop-color="#2684ff"/></linearGradient><linearGradient id="b" gradientTransform="scale(1.00294 .99707)" gradientUnits="userSpaceOnUse" x1="191.295" x2="139.146" xlink:href="#a" y1="61.656" y2="115.753"/><linearGradient id="c" gradientTransform="scale(1.00294 .99707)" gradientUnits="userSpaceOnUse" x1="134.112" x2="73.81" xlink:href="#a" y1="123.455" y2="182.437"/><path d="m244.658 0h-122.951a55.502 55.502 0 0 0 55.502 55.502h22.649v21.868c.02 30.625 24.841 55.447 55.466 55.467v-122.171c0-5.889-4.774-10.666-10.666-10.666z" fill="#2684ff"/><path d="m183.822 61.262h-122.95c.019 30.625 24.84 55.447 55.466 55.467h22.649v21.938c.039 30.625 24.877 55.43 55.502 55.43v-122.167c0-5.891-4.776-10.667-10.667-10.667z" fill="url(#b)"/><path d="m122.951 122.489h-122.951c0 30.653 24.85 55.502 55.502 55.502h22.72v21.867c.02 30.597 24.798 55.408 55.396 55.466v-122.168c0-5.891-4.776-10.667-10.667-10.667z" fill="url(#c)"/></svg>