<svg height="2282" viewBox="-1.19275382 .5 25.19275382 24.582" width="2500" xmlns="http://www.w3.org/2000/svg"><path d="m-.33791668 17.379319c.0263338.05629.0561023.108244.0881606.160201.0148843.03031.0354932.0617.0538123.08984.0297685.05629.061827.110408.0927405.16453l.17975613.285763c.03320336.05304.06526178.104996.10304491.156953.0629719.101749.13739323.201333.20265501.303082.0297685.04221.0572471.08443.0904505.126644.12594379.185097.24043814.338802.3629471.488178.0870158.111491.17403143.220817.26791683.330143.030913.04113.065262.08226.09732.123398l.2530326.290092c.030914.03356.061827.07252.09503.107161.1122046.127727.2312786.251125.3503527.376687 0 .0022.00344.0043.00573.0076.1476976.175355.3068447.331226.4808761.469777l.00458.0043c.091596.08876.183191.176437.2805112.263032l.1156393.104996c.1270887.112573.2541774.224064.3881358.332307.00229 0 .00344.0022.00573.0032l.065262.05412c.1167842.09634.2347134.191591.3549324.280351l.143118.113655c.09732.07361.1980752.142882.2976853.215405l.1557123.112573c.1064798.07577.2198292.149376.3285988.222982.040073.02706.080146.05412.121364.07902l.033203.0249.3217292.199168.1373932.08659c.1683067.101749.3354685.197003.5026302.292258.048088.02273.096176.04763.140828.07361.1236539.06711.2518876.135305.3766865.197003.068696.0368.1396831.06819.2106695.101749.085871.04546.1751764.08984.2667719.135305.025189.0076.045797.01515.066407.02598l.00458-.0043c.037783.01624.073276.03356.1099146.05087.1373932.06495.2805111.126645.4293537.187261.027479.01082.057247.02165.087016.0368.1648718.06819.3297437.133139.5003402.19592.038928.01083.080146.02923.1202191.0433.1545674.0552.3137145.111491.4717167.16453l.057247.01948c.1751764.05629.3480628.110408.526674.161282.041218.01083.083582.0249.1270887.03572.1820461.05196.3583674.113655.5427033.146128 11.7619945 2.016606 15.1796505-6.652613 15.1796505-6.652613-2.871518 3.517912-7.967662 4.445559-12.793599 3.412916-.178611-.03897-.357223-.09309-.538123-.142881a13.456521 12.721856 0 0 1 -.759097-.226229l.108769.03139-.07099-.02598c-.155713-.04979-.305701-.104996-.457978-.1602a1.7517636 1.6561252 0 0 0 -.11335-.04113l-.01259-.0032c-.16831-.06386-.3320366-.12881-.4946185-.197003-.035493-.01082-.065262-.02598-.1007547-.03897a15.635349 14.781729 0 0 1 -.5724718-.24896l.1580022.06603a1.6979512 1.6052507 0 0 1 -.1213612-.056334c-.1076247-.047627-.2152494-.101749-.3205842-.152623a4.3324662 4.0959331 0 0 1 -.2370033-.114738l.022899.01082c-.1293789-.06494-.2587575-.1353-.3892811-.201329-.038928-.02598-.08358-.04763-.1282337-.07144a16.095616 15.216868 0 0 1 -.5747614-.331225l.072132.04113a2.3379746 2.2103317 0 0 1 -.1419729-.08984l.00687.0043a6.9143138 6.5368234 0 0 1 -.3618032-.225117c-.038928-.02381-.074421-.04979-.1144943-.07577a9.6976715 9.1682223 0 0 1 -.364092-.246795l.027478.0184c-.0480877-.0368-.0996099-.07144-.1511324-.107161-.1007547-.07469-.2026551-.146129-.3034101-.224064l-.1351028-.101748a11.632626 10.997537 0 0 1 -.423629-.334472l-.0011416-.0011-.3972988-.340949-.1144944-.101749c-.0938854-.089842-.1900606-.175355-.2862358-.264114l-.1110596-.108244a10.313651 9.7505721 0 0 1 -.3469178-.340967l-.00687-.0076-.019464-.01515a20.468155 19.350686 0 0 1 -.3583671-.38208c-.0309135-.03356-.0595375-.06928-.0915957-.104997l-.259902-.297669a15.742973 14.883478 0 0 1 -.343483-.423232l-.0457978-.060616c-2.67687783-3.437813-3.64550004-8.1821247-1.5033107-12.07456l-1.89144671 2.2612062c-2.43300489 3.2895191-2.13188479 7.5673008-.27135161 11.0603178.0423629.08551.0893056.165613.13510334.246795z" fill="#1266a9" stroke-width="1.11325"/><path d="m8.563 11.968-.011-.016-.009-.012z"/><path d="m7.3990327 14.830189.104343.101918c.1321678.124566.2678136.245734.4057782.366903l.017391.01472c.139124.120036.2956385.245734.4567904.368035l.024347.01812c.039418.02604.07304.05662.1112991.08267.1623113.122301.325782.23894.4962089.355579l.01739.01019c.071881.05096.1483989.09739.2295545.147214.032462.02038.069562.04756.104343.06794.1228928.077.2434669.148347.3675191.221954.019709.0079.0371.01812.05565.02604.104343.06228.2179611.122301.3269421.176657.03826.02265.07536.03963.114777.06115.07768.03737.154196.077.228395.115506l.0371.01585c.156514.07474.316507.144949.473021.214026.03942.01472.07304.02718.106662.04303.12869.05436.259698.106447.388388.154009.05797.01925.112458.0419.166948.05889.118256.04303.242308.08267.359404.122301l.162311.05096c.169268.05096.340854.117771.520556.144949 9.197252 1.478943 11.325849-5.402747 11.325849-5.402747-1.916433 2.680428-5.625246 3.957793-9.577526 2.960135a9.5241949 9.3027942 0 0 1 -.586639-.164201l.06608.01812c-.05565-.01472-.104343-.03171-.157674-.04756-.120574-.04077-.244626-.0804-.361722-.1223l-.166949-.06115c-.129849-.05096-.262017-.09852-.388388-.152876-.03942-.01699-.07536-.02831-.105502-.0453-.162311-.07134-.325782-.141552-.484615-.216291l-.23883-.121168-.137964-.06794c-.106662-.05436-.205208-.110977-.307233-.16873a.64692644.63188791 0 0 1 -.07536-.04077l.0035.0011c-.122893-.07474-.250423-.147214-.368679-.223086-.03942-.02152-.07536-.04756-.112458-.07021l-.241148-.152876c-.166949-.113241-.33042-.23441-.496209-.352181-.0371-.03284-.07304-.06002-.108981-.08946-1.737906-1.328295-3.108277-3.143557-3.7586816-5.1988917-.6851855-2.1368683-.5344679-4.5330597.6492452-6.4774173l-1.4550048 2.0021108c-1.7865836 2.4924467-1.6857187 5.8240134-.2944791 8.4602772.2539013.486938.5112806.898005.7953254 1.289821.2643355.369168.5564958.80175.9089432 1.098443.1252116.139287.2596981.27178.3999814.406537z" fill="#1266a9" stroke-width="1.14581"/><path d="m2.436 17.992-.004-.006-.007-.009zm4.158-.744.01.007.002.003z"/><path d="m11.069814 1.6508638c-1.1526183 1.6474609-1.2629349 3.693441-.469162 5.5097449.843224 1.9292798 2.566446 3.4439013 4.57497 4.1614833.08242.03104.162305.05711.247261.0869l.111585.03352c.116656.036.234581.07821.355042.104286 5.555139 1.044095 7.058996-2.7784611 7.46349-3.3408574-1.322532 1.8498244-3.540276 2.2942784-6.26142 1.6499439a6.0268382 5.9008151 0 0 1 -.697404-.2110487l.04184.013656a7.8565726 7.6922892 0 0 1 -.831808-.3352027l.04818.021105c-.519879-.2482981-.966217-.5164606-1.380856-.8243508-2.432037-1.8001645-3.935894-5.2279261-2.348349-8.0200433z" fill="#1266a9" stroke-width="1.25468"/></svg>