<svg xmlns="http://www.w3.org/2000/svg" viewBox="0 0 32 32"><defs/><linearGradient id="a" x1="1603.9" x2="1698" y1="1483.1" y2="1483.1" gradientTransform="rotate(9.6 9049 -4722.7)" gradientUnits="userSpaceOnUse"><stop offset="0" stop-color="#89C442"/><stop offset="1" stop-color="#74B844"/></linearGradient><linearGradient id="b" x1="1606" x2="1687.3" y1="1478.2" y2="1478.2" gradientTransform="rotate(9.6 1169.2 -709)" gradientUnits="userSpaceOnUse"><stop offset="0" stop-color="#74B844"/><stop offset="1" stop-color="#4A9634"/></linearGradient><linearGradient id="c" x1="1281" x2="1438.7" y1="1562.8" y2="1562.8" gradientTransform="rotate(161.5 940.4 -772.1)" gradientUnits="userSpaceOnUse"><stop offset="0" stop-color="#C1EA71"/><stop offset="1" stop-color="#ACDA55"/></linearGradient><linearGradient id="d" x1="1284.6" x2="1422" y1="1554.4" y2="1554.4" gradientTransform="rotate(161.5 1112.1 -37.7)" gradientUnits="userSpaceOnUse"><stop offset="0" stop-color="#ACDA55"/><stop offset="1" stop-color="#89C442"/></linearGradient><path fill="url(#a)" d="M674.3 92.4c2.3 2.6 46.1 17.2 61.4 35 15.2 17.7 21.9 33.6 19.7 48.8-2.1 15.2-11.4 15-15.5 20.5-4 5.6-9.7 12.4-20.5 11.7-14.1-1-28.7-8-39.3-32.6a128.4 128.4 0 01-8.8-60.3c.8-12.8 3-23.1 3-23.1z" transform="translate(-90 .4) scale(.13409)"/><path fill="url(#b)" d="M1239.7 1476.6l65.7 98-3 3.3" transform="translate(-166.1 -184.1) scale(.13409)"/><path fill="#3c3c3b" fill-rule="evenodd" d="M1.7 30.7c2.9-1.3 7.9-4.2 8.7-4.9 1-.8 2.3-.8 3.5-1 2.3-.6 4.7-1.1 6.6-2.2a8 8 0 005.1 1c1.4-.4 3.6-2.7 4.8-3.6.4-.3 1.1-1 1.6-.6-.3.3 0 1-.3.8-.3-.4-.7 0-1 0L27.1 23c-.6.4.5.7-.1.8-3.1.6-7.8-.9-9.8 1.2-3.1 1.1-6 1.4-9 3-1.8 1-4 2.7-5.8 3.6" clip-rule="evenodd"/><path fill="url(#c)" d="M839.5 0c-3 5-72.6 40.8-93.5 74.5-20.9 33.6-26.8 60.1-19.3 85 7.6 25 22 23.9 30.3 32 8.2 8.3 19.4 18.3 37.3 14.2 23.4-5.2 46-20.9 57.2-64.6 11.2-43.8 3.8-82.1-1-103.3-4.7-21.1-11-37.8-11-37.8z" transform="translate(-90 .4) scale(.13409)"/><path fill="url(#d)" d="M1406.3 1383.4l-84.3 180.9 5 5" transform="translate(-166.1 -184.1) scale(.13409)"/></svg>
