<svg viewBox="0 0 100 100" xmlns="http://www.w3.org/2000/svg" xmlns:xlink="http://www.w3.org/1999/xlink"><linearGradient id="a" gradientUnits="userSpaceOnUse" x1="20.13" x2="33.15" y1="59.15" y2="59.15"><stop offset="0" stop-color="#17a9e6"/><stop offset=".22" stop-color="#1aaae6"/><stop offset=".4" stop-color="#24aee7"/><stop offset=".57" stop-color="#35b4e9"/><stop offset=".73" stop-color="#4dbdeb"/><stop offset=".88" stop-color="#6cc9ee"/><stop offset="1" stop-color="#8ad5f2"/></linearGradient><linearGradient id="b"><stop offset="0" stop-color="#c7eaf9"/><stop offset="0" stop-color="#c4e9f8"/><stop offset=".2" stop-color="#8ed3f0"/><stop offset=".38" stop-color="#62c1ea"/><stop offset=".56" stop-color="#3fb3e5"/><stop offset=".73" stop-color="#26a9e1"/><stop offset=".88" stop-color="#17a3df"/><stop offset="1" stop-color="#12a1df"/></linearGradient><linearGradient id="c" gradientUnits="userSpaceOnUse" x1="60.88" x2="76.25" xlink:href="#b" y1="49.94" y2="49.94"/><linearGradient id="d" gradientUnits="userSpaceOnUse" x1="12.8" x2="34.06" xlink:href="#b" y1="53.17" y2="53.17"/><linearGradient id="e" gradientUnits="userSpaceOnUse" x1="64.32" x2="87.56" y1="52.52" y2="52.52"><stop offset="0" stop-color="#12a1df"/><stop offset=".12" stop-color="#17a3df"/><stop offset=".27" stop-color="#26a9e1"/><stop offset=".44" stop-color="#3fb3e5"/><stop offset=".62" stop-color="#62c1ea"/><stop offset=".8" stop-color="#8ed3f0"/><stop offset=".99" stop-color="#c4e9f8"/><stop offset="1" stop-color="#c7eaf9"/></linearGradient><linearGradient id="f" gradientUnits="userSpaceOnUse" x1="13.76" x2="17.41" y1="64.1" y2="64.1"><stop offset="0" stop-color="#03a1e3"/><stop offset="1" stop-color="#008ed1"/></linearGradient><linearGradient id="g" gradientUnits="userSpaceOnUse" x1="17.41" x2="29.86" y1="50.48" y2="50.48"><stop offset="0" stop-color="#0696d5"/><stop offset=".15" stop-color="#0795d4"/><stop offset="1" stop-color="#0b93d3"/></linearGradient><linearGradient id="h" gradientUnits="userSpaceOnUse" x1="20.13" x2="35.92" y1="55.61" y2="55.61"><stop offset="0" stop-color="#005da4"/><stop offset="1" stop-color="#72bee4"/></linearGradient><linearGradient id="i" gradientUnits="userSpaceOnUse" x1="33.15" x2="38.88" y1="46.3" y2="46.3"><stop offset="0" stop-color="#81d6f0"/><stop offset=".49" stop-color="#7fd5f0"/><stop offset=".67" stop-color="#78d4f0"/><stop offset=".8" stop-color="#6cd2f1"/><stop offset=".9" stop-color="#5bcef2"/><stop offset=".99" stop-color="#46caf4"/><stop offset="1" stop-color="#42caf5"/></linearGradient><linearGradient id="j" gradientUnits="userSpaceOnUse" x1="47.12" x2="60.95" xlink:href="#b" y1="51.08" y2="51.08"/><linearGradient id="k" gradientUnits="userSpaceOnUse" x1="49.49" x2="49.49" y1="66.26" y2="39.37"><stop offset="0" stop-color="#005087"/><stop offset=".22" stop-color="#006ba6"/><stop offset=".48" stop-color="#0088c8"/><stop offset=".65" stop-color="#0077b7"/><stop offset="1" stop-color="#005698"/></linearGradient><linearGradient id="l" x1="52.3" x2="52.3" xlink:href="#g" y1="64.15" y2="38.88"/><linearGradient id="m" gradientUnits="userSpaceOnUse" x1="37.91" x2="39.99" y1="42.84" y2="42.84"><stop offset="0" stop-color="#007db5"/><stop offset="1" stop-color="#0078af"/></linearGradient><linearGradient id="n" gradientUnits="userSpaceOnUse" x1="39.46" x2="48.4" y1="40.6" y2="40.6"><stop offset="0" stop-color="#005999"/><stop offset="1" stop-color="#005999"/></linearGradient><linearGradient id="o" gradientUnits="userSpaceOnUse" x1="26.94" x2="26.94" y1="67.61" y2="38.73"><stop offset="0" stop-color="#005596"/><stop offset=".28" stop-color="#005a9c"/><stop offset=".65" stop-color="#006bad"/><stop offset="1" stop-color="#0081c4"/></linearGradient><linearGradient id="p" gradientUnits="userSpaceOnUse" x1="34.03" x2="40.37" y1="39.36" y2="39.36"><stop offset="0" stop-color="#8bd3f0"/><stop offset="1" stop-color="#73ccec"/></linearGradient><linearGradient id="q" gradientUnits="userSpaceOnUse" x1="38.36" x2="45.07" y1="39.78" y2="39.78"><stop offset="0" stop-color="#77cbed"/><stop offset="1" stop-color="#61ccf0"/></linearGradient><linearGradient id="r" gradientUnits="userSpaceOnUse" x1="35.92" x2="38.62" y1="42.09" y2="42.09"><stop offset="0" stop-color="#0082c5"/><stop offset="1" stop-color="#0081c5"/></linearGradient><linearGradient id="s" gradientUnits="userSpaceOnUse" x1="70.97" x2="70.97" y1="56.13" y2="38.74"><stop offset="0" stop-color="#009fe2"/><stop offset=".08" stop-color="#009bdd"/><stop offset=".32" stop-color="#0097d6"/><stop offset="1" stop-color="#0096d5"/></linearGradient><linearGradient id="t" x1="39.99" x2="53.99" xlink:href="#g" y1="54.64" y2="54.64"/><linearGradient id="u" gradientUnits="userSpaceOnUse" x1="38.62" x2="40.95" y1="42.06" y2="42.06"><stop offset="0" stop-color="#005e9c"/><stop offset="1" stop-color="#005f9d"/></linearGradient><linearGradient id="v" gradientUnits="userSpaceOnUse" x1="34.03" x2="38.36" y1="39.66" y2="39.66"><stop offset="0" stop-color="#7ec7e7"/><stop offset="1" stop-color="#74c6e9"/></linearGradient><linearGradient id="w" gradientUnits="userSpaceOnUse" x1="37.84" x2="39.46" y1="40.69" y2="40.69"><stop offset="0" stop-color="#4ac1e9"/><stop offset="1" stop-color="#3cbee9"/></linearGradient><linearGradient id="x" gradientUnits="userSpaceOnUse" x1="75.91" x2="81.17" y1="38.41" y2="38.41"><stop offset="0" stop-color="#008dcf"/><stop offset=".14" stop-color="#008dcf"/><stop offset="1" stop-color="#008dcf"/></linearGradient><linearGradient id="y" gradientUnits="userSpaceOnUse" x1="60.95" x2="66.04" y1="60.39" y2="60.39"><stop offset="0" stop-color="#0096d5"/><stop offset=".68" stop-color="#0097d6"/><stop offset=".92" stop-color="#009bdd"/><stop offset="1" stop-color="#009fe2"/></linearGradient><linearGradient id="z" gradientUnits="userSpaceOnUse" x1="53.99" x2="60.44" y1="65.55" y2="65.55"><stop offset="0" stop-color="#006cb6"/><stop offset=".14" stop-color="#006cb6"/><stop offset="1" stop-color="#006cb6"/></linearGradient><linearGradient id="A" gradientUnits="userSpaceOnUse" x1="59.02" x2="62.3" y1="63.85" y2="63.85"><stop offset="0" stop-color="#0064a9"/><stop offset=".01" stop-color="#0063a8"/><stop offset="1" stop-color="#0062a7"/></linearGradient><linearGradient id="B" gradientUnits="userSpaceOnUse" x1="38.88" x2="53.26" y1="55.12" y2="55.12"><stop offset="0" stop-color="#009cde"/><stop offset=".16" stop-color="#18ace6"/><stop offset=".38" stop-color="#35c0f0"/><stop offset=".51" stop-color="#40c8f4"/><stop offset=".72" stop-color="#1db0e8"/><stop offset=".89" stop-color="#07a1e0"/><stop offset="1" stop-color="#009cde"/></linearGradient><linearGradient id="C" gradientUnits="userSpaceOnUse" x1="58.03" x2="60.95" y1="64.82" y2="64.82"><stop offset="0" stop-color="#0062a7"/><stop offset=".14" stop-color="#0062a7"/><stop offset="1" stop-color="#0062a7"/></linearGradient><linearGradient id="D" gradientUnits="userSpaceOnUse" x1="62.3" x2="82.84" y1="52.44" y2="52.44"><stop offset="0" stop-color="#005596"/><stop offset=".26" stop-color="#0061a2"/><stop offset="1" stop-color="#0081c4"/></linearGradient><linearGradient id="E" gradientUnits="userSpaceOnUse" x1="57.2" x2="62.58" y1="66.58" y2="66.58"><stop offset="0" stop-color="#0b67b1"/><stop offset="1" stop-color="#0062ae"/></linearGradient><linearGradient id="F" gradientUnits="userSpaceOnUse" x1="60.44" x2="83.7" y1="52.52" y2="52.52"><stop offset="0" stop-color="#006cb5"/><stop offset="1" stop-color="#0a71b8"/></linearGradient><linearGradient id="G" x1="50.39" x2="57.2" xlink:href="#E" y1="66.61" y2="66.61"/><linearGradient id="H" gradientUnits="userSpaceOnUse" x1="17.41" x2="29.86" xlink:href="#g" y1="50.48" y2="50.48"/><linearGradient id="I" gradientUnits="userSpaceOnUse" x1="57.2" x2="62.58" xlink:href="#E" y1="66.58" y2="66.58"/><g transform="matrix(1.335518 0 0 1.6217086 -17.136413 -34.039941)"><path d="m20.13 67.61c.5 0 3.26.05 6.09-1.82s3.45-4.41 4.09-6.25 1.95-6.25 2.83-8.86c-5.96 7.98-7.86 16.92-13.02 16.92z" fill="url(#a)"/><path d="m66.04 56.13c2.34-7.44 3.86-14.73 8.47-16.9.42-.2.9-.36 1.4-.5.19-.36.31-.6.34-.65-1.31.05-3.06.29-4.85 1.16-2.95 1.44-4.31 4.2-4.62 5.07s-2.09 6.37-2.93 9.17-2.4 7.5-2.98 8.13c.02.06.05.12.07.18 1.91-1.75 3.63-3.75 5.09-5.67z" fill="url(#c)"/><path d="m19.64 53.57c2.46-5.94 6.42-10.8 10.22-13.21 1.27-.96 2.68-1.59 4.2-1.63 0 0-.02 0-.03 0h-.96c-1.9 0-4.24 1.21-7.05 3.66s-6.38 8.32-8.26 11.91c-1.88 3.58-4.5 11.43-4.97 13.32h.96c.29-.59 1.89-3.66 3.65-7.02.57-2.31 1.31-4.79 2.23-7.01z" fill="url(#d)"/><path d="m58.19 51.04c.02.06.04.13.06.19-.02-.06-.04-.13-.06-.19z" fill="#fff"/><path d="m41.52 54.41c-.34-1.43-.88-3.76-1.5-6.12.59 2.3 1.21 4.91 1.5 6.12z" fill="#fff"/><path d="m83.7 38.1c-2.36 10.61-11.84 27.53-19.37 28.86h.98c3.43 0 6.5-3.68 7.95-5.45s6.26-9.08 8.55-13.13 5.76-10.28 5.76-10.28h-3.86z" fill="url(#e)"/><path d="m13.76 67.61h3z" fill="#fff"/><path d="m17.41 60.59c-1.76 3.36-3.36 6.44-3.65 7.02h2.27c.22-1.55.67-4.16 1.38-7.02z" fill="url(#f)"/><path d="m19.64 53.57c-.92 2.22-1.66 4.7-2.23 7.01 2.15-4.11 4.53-8.66 5.06-9.63.72-1.33 3.39-7.58 7.39-10.59-3.8 2.41-7.76 7.27-10.22 13.21z" fill="url(#H)"/><path d="m20.13 67.61c5.16 0 7.06-8.94 13.02-16.92.76-2.72 1.74-5.15 2.77-7.09-8.89 8.26-15.41 24.01-15.79 24.01z" fill="url(#h)"/><path d="m38.81 44.08c-.26-.81-.57-1.53-.9-2.17-.68.52-1.34 1.08-2 1.69-1.03 1.94-2.01 4.37-2.77 7.09 1.71-2.29 3.72-4.5 5.73-6.39-.02-.07-.05-.14-.07-.21z" fill="url(#i)"/><path d="m60.88 61.62c-.56-1.38-1.71-7.23-2.63-10.39-.02-.06-.04-.13-.06-.19-.93-3.11-1.76-6.72-3.86-9.52s-4.43-2.78-5.93-2.78c-.42 0-.85.05-1.28.15 8.78 1.67 7.72 17.04 11.9 24.55.66-.51 1.31-1.05 1.93-1.62-.02-.06-.05-.12-.07-.18z" fill="url(#j)"/><path d="m34.23 38.73h-.2.12z" fill="#fff"/><path d="m45.59 39.37c-1.36.64-2.97 1.72-4.64 3.1 5.1 6.75 6.13 20.55 13.04 23.79 1.39-.49 2.74-1.22 4.03-2.11-5.31-6.47-5.77-21.78-12.44-24.78z" fill="url(#k)"/><path d="m47.12 38.88c-.49.11-.98.26-1.47.46-.02.01-.05.02-.07.03 6.67 3 7.13 18.3 12.44 24.78.33-.23.67-.47.99-.72-4.18-7.5-3.12-22.88-11.9-24.55z" fill="url(#l)"/><path d="m45.49 38.73h-.43c-.36.04-.71.1-1.06.17.48-.09.99-.17 1.49-.17z" fill="#fff"/><path d="m39.88 43.11c-.39-.62-.81-1.2-1.25-1.72-.24.17-.47.34-.71.52.33.64.64 1.36.9 2.17.02.07.05.14.07.21 0 0 .01-.01.02-.02.36-.34.73-.67 1.09-.99-.04-.06-.07-.12-.11-.18z" fill="url(#m)"/><path d="m45.66 39.34s-.05.02-.07.03c.02-.01.05-.02.07-.03z" fill="#fff"/><path d="m47.87 38.73h-2.38c-.5 0-1.01.08-1.49.17-.01 0-.03 0-.04 0-1.54.33-3.04 1-4.5 1.92.49.44.94.94 1.37 1.48.04.05.08.1.12.16 1.67-1.38 3.28-2.46 4.64-3.1.02-.01.05-.02.07-.03.49-.2.98-.35 1.47-.46.43-.09.86-.15 1.28-.15h-.53z" fill="url(#n)"/><path d="m35.33 39.05c-.37-.13-.77-.23-1.18-.3-.03 0-.06-.01-.09-.01-1.52.04-2.93.68-4.2 1.63-4 3.02-6.66 9.26-7.39 10.59-.53.97-2.92 5.52-5.06 9.63-.71 2.87-1.16 5.48-1.38 7.02h4.09c.38 0 6.9-15.75 15.79-24.01.51-.96 1.02-1.79 1.53-2.5.13-.18.26-.36.39-.52-.75-.68-1.58-1.21-2.51-1.54z" fill="url(#o)"/><path d="m34.62 38.73h-.58.2s-.05 0-.08 0h.21c1.54.06 2.85.5 4 1.25.75-.81 1.45-1.25 2.01-1.25z" fill="url(#p)"/><path d="m38.36 39.98c.39.25.75.54 1.1.85 1.46-.92 2.97-1.59 4.5-1.92h.04c.35-.07.71-.13 1.06-.17h-4.69c-.57 0-1.26.44-2.01 1.25z" fill="url(#q)"/><path d="m37.84 40.59c-.13.16-.26.34-.39.52-.51.7-1.02 1.54-1.53 2.5.65-.61 1.32-1.17 2-1.69.24-.18.47-.35.71-.52-.25-.29-.51-.56-.78-.81z" fill="url(#r)"/><path d="m43.96 38.91h.04c-.01 0-.03 0-.04 0z" fill="#fff"/><polygon fill="#fff"/><path d="m75.91 38.74c-.5.14-.98.3-1.4.5-4.62 2.16-6.13 9.46-8.47 16.9 1.99-2.63 3.49-5.11 4.29-6.62.52-.98 4.4-8.49 5.58-10.78z" fill="url(#s)"/><polygon fill="#fff"/><path d="m64.96 66.79h-.01z" fill="#fff"/><path d="m40.95 42.47c-.32.26-.64.54-.96.82 4.58 7.56 5.35 21.86 11.97 23.51.68-.12 1.36-.3 2.03-.54-6.91-3.24-7.94-17.04-13.04-23.79z" fill="url(#t)"/><path d="m40.83 42.32c-.43-.55-.88-1.04-1.37-1.48-.28.18-.56.36-.84.56.45.52.87 1.09 1.25 1.72.04.06.07.12.11.18.32-.28.64-.56.96-.82-.04-.05-.08-.11-.12-.16z" fill="url(#u)"/><path d="m34.36 38.74c-.07 0-.14 0-.21 0-.04 0-.08 0-.12 0h.03c.03 0 .06 0 .09.01.41.07.8.17 1.18.3.94.33 1.77.86 2.51 1.54.18-.22.35-.42.52-.61-1.14-.74-2.46-1.19-4-1.25z" fill="url(#v)"/><path d="m38.62 41.39c.28-.2.56-.38.84-.56-.35-.32-.72-.6-1.1-.85-.17.18-.34.39-.52.61.27.25.53.52.78.81z" fill="url(#w)"/><path d="m77.3 38.08c-.18 0-.38 0-.59 0-.15 0-.3 0-.46.01-.03.05-.15.29-.34.65 1.66-.45 3.62-.6 5.04-.64h.22-3.87z" fill="url(#x)"/><path d="m66.04 56.13c-1.46 1.92-3.18 3.92-5.09 5.67.48 1.18.92 2.12 1.35 2.84.81-.98 1.51-2.29 2.16-3.97.58-1.49 1.1-3.01 1.57-4.53z" fill="url(#y)"/><path d="m58.03 64.15c-1.29.89-2.64 1.62-4.03 2.11.95.45 2.01.69 3.21.69s2.31-.24 3.23-.74c-.91-.5-1.7-1.21-2.41-2.07z" fill="url(#z)"/><path d="m59.02 63.42c.54.97 1.17 1.82 1.93 2.48.49-.34.94-.75 1.35-1.26-.43-.72-.87-1.66-1.35-2.84-.62.57-1.27 1.12-1.93 1.62z" fill="url(#A)"/><path d="m51.96 66.8c-6.62-1.64-7.4-15.95-11.97-23.51-.36.32-.72.65-1.09.99 0 0-.01.01-.02.02.39 1.24.78 2.62 1.14 3.99.62 2.37 1.16 4.69 1.5 6.12.55 2.31 1.67 6.25 3.26 8.91 1.54 2.57 3.87 3.56 5.59 3.63h.19 2.69c-.46 0-.89-.05-1.3-.16z" fill="url(#B)"/><path d="m59.02 63.42c-.33.25-.66.49-.99.72.71.86 1.5 1.57 2.41 2.07.17-.09.34-.2.51-.31-.75-.66-1.38-1.5-1.93-2.48z" fill="url(#C)"/><path d="m81.17 38.09c-.07 0-.14 0-.22 0-1.41.04-3.38.19-5.04.64-1.19 2.29-5.06 9.8-5.58 10.78-.8 1.51-2.29 3.99-4.29 6.62-.48 1.52-.99 3.04-1.57 4.53-.66 1.68-1.36 2.99-2.16 3.97.82 1.39 1.62 2.01 2.65 2.15 1.39-.45 3.09-1.83 4.53-3.67 2.31-2.96 4.19-7.03 5.37-9.38 3.15-6.29 7.99-15.64 7.99-15.64s-.67-.03-1.67 0z" fill="url(#D)"/><path d="m57.2 66.95h5.37c-.78-.13-1.49-.38-2.14-.74-.92.5-1.98.74-3.23.74z" fill="url(#I)"/><path d="m82.84 38.1s-4.84 9.35-7.99 15.64c-1.18 2.35-3.05 6.42-5.37 9.38-1.44 1.84-3.14 3.22-4.53 3.67-1.04-.14-1.83-.76-2.65-2.15-.42.51-.87.93-1.35 1.26-.17.11-.34.22-.51.31.65.36 1.36.61 2.14.74h1.75c7.54-1.32 17.01-18.25 19.37-28.86h-.86z" fill="url(#F)"/></g><path d="m57.2 66.95c-1.2 0-2.26-.25-3.21-.69-.67.24-1.35.42-2.03.54-.52.09-1.04.14-1.57.15h.19 2.67c-.27 0-.27 0 0 0z" fill="url(#G)"/></svg>