<svg height="512" viewBox="0 0 444 512" width="444" xmlns="http://www.w3.org/2000/svg"><g fill="none" fill-rule="evenodd" stroke-width="0"><path d="m222 0v99l-136 79-86-50z" fill="#a1c535"/><path d="m444 128-86 50-136-79v-99z" fill="#add439"/><path d="m444 384-86-50v-156l86-50z" fill="#1b6ac6"/><path d="m222 512v-99l136-79 86 50z" fill="#2e90e8"/><path d="m0 384 86-50 136 79v99z" fill="#ea205e"/><path d="m0 128 86 50v156l-86 50z" fill="#a5073e"/><path d="m86 178 136-79 136 79-136 78z" fill="#f1f6e2"/><path d="m222 256 136-78v156l-136 79z" fill="#cedbe6"/><path d="m86 178 136 78v157l-136-79z" fill="#fff"/></g></svg>