<svg viewBox="0 0 186 200" xmlns="http://www.w3.org/2000/svg"><path d="m92.8 0-92.8 33.3 14 122.8 78.8 43.9 78.9-43.9 14.3-122.8z" fill="#9c27b0"/><path d="m92.8 0v22.2 101 76.8l78.9-43.9 14.3-122.8z" fill="#7b1fa2"/><g fill="#fff"><path d="m123.2 115.4 3.7-9.3h10.7l-5.1-14.1 6.4-16 18.1 48h-13.4l-3.1-8.6z"/><path d="m111.8 124 19.4-48h-12.8l-13.3 31-9.5-31h-9.9l-10.1 31-7.2-14.1-6.5 19.9 6.6 11.2h12.7l9.1-27.8 8.8 27.8z" opacity=".8"/><path d="m41.2 107.5h8a21.2 21.2 0 0 0 6.4-.8l2.1-6.3 5.7-17.6a9 9 0 0 0 -1.5-1.9c-3-3.3-7.3-4.9-12.9-4.9h-20v48h12.2zm10.5-20.5a6.3 6.3 0 0 1 1.8 4.7 6.7 6.7 0 0 1 -1.5 4.6c-1.2 1.3-3.2 1.9-6.2 1.9h-4.6v-12.9h4.7c2.7 0 4.7.6 5.8 1.7z"/></g></svg>