<svg viewBox="0 0 45 31" xmlns="http://www.w3.org/2000/svg"><g fill="#dd0c00"><path d="m-.19 31h8.61c.08-2.55.27-5.2.58-8l-7.75-2a45.13 45.13 0 0 0 -1.44 10z"/><path d="m2 18.38 7.67 2.51a45.67 45.67 0 0 1 2.33-6.1l-7.17-3.58a57 57 0 0 0 -2.83 7.17z"/><path d="m43.57 21-7.89 2.15a56.67 56.67 0 0 1 .71 7.85h8.61a48.42 48.42 0 0 0 -1.43-10z"/><path d="m40 11.21-7.17 3.58a44.92 44.92 0 0 1 2.43 6.44l7.61-2.85a55.54 55.54 0 0 0 -2.87-7.17z"/><path d="m32.09 2.6-5 5.74a20.34 20.34 0 0 1 4.91 4.66l5.88-4.69a24.75 24.75 0 0 0 -5.79-5.71z"/><path d="m12.81 2.6 5 5.74a19.75 19.75 0 0 0 -4.81 4.66l-5.93-4.66a24.56 24.56 0 0 1 5.74-5.74z"/><path d="m16.31 1.17 2.87 6.45a15.58 15.58 0 0 1 6.45 0l2.87-6.45a18.71 18.71 0 0 0 -12.19 0z"/></g></svg>