<svg fill="none" height="512" viewBox="0 0 512 512" width="512" xmlns="http://www.w3.org/2000/svg" xmlns:xlink="http://www.w3.org/1999/xlink"><linearGradient id="a" gradientUnits="userSpaceOnUse" x1="512" x2="0" y1="512" y2="0"><stop offset="0" stop-color="#8c102e"/><stop offset="1" stop-color="#c60942"/></linearGradient><path d="m0 0h512v512h-512z" fill="url(#a)"/><g fill="#fff" transform="matrix(1.3483154 0 0 1.1754015 -89.391831 -44.593024)"><path d="m99.0187 229.688c.2813 2.374.8907 4.062 1.8283 5.062 1.656 1.781 4.719 2.672 9.187 2.672 2.625 0 4.703-.391 6.235-1.172 1.562-.781 2.343-1.953 2.343-3.516 0-1.5-.625-2.64-1.875-3.422-1.25-.781-5.89-2.124-13.921-4.031-5.7816-1.437-9.8598-3.234-12.2348-5.39-2.375-2.125-3.5625-5.188-3.5625-9.188 0-4.719 1.8438-8.765 5.5313-12.141 3.7187-3.406 8.937-5.109 15.656-5.109 6.375 0 11.563 1.281 15.563 3.844 4.031 2.531 6.343 6.922 6.937 13.172h-13.359c-.188-1.719-.672-3.078-1.453-4.078-1.469-1.813-3.969-2.719-7.5-2.719-2.907 0-4.985.453-6.235 1.359-1.218.907-1.828 1.969-1.828 3.188 0 1.531.656 2.64 1.969 3.328 1.312.719 5.953 1.953 13.922 3.703 5.312 1.25 9.297 3.141 11.953 5.672 2.625 2.562 3.937 5.766 3.937 9.609 0 5.063-1.89 9.203-5.671 12.422-3.75 3.188-9.563 4.781-17.438 4.781-8.031 0-13.9686-1.687-17.8124-5.062-3.8125-3.406-5.7187-7.734-5.7187-12.984z"/><path d="m170.646 213.234c-.25-1.906-.891-3.625-1.922-5.156-1.5-2.062-3.828-3.094-6.985-3.094-4.5 0-7.578 2.235-9.234 6.704-.875 2.374-1.313 5.531-1.313 9.468 0 3.75.438 6.766 1.313 9.047 1.594 4.25 4.594 6.375 9 6.375 3.125 0 5.344-.844 6.656-2.531 1.313-1.688 2.11-3.875 2.391-6.563h13.64c-.312 4.063-1.781 7.907-4.406 11.532-4.187 5.843-10.39 8.765-18.609 8.765s-14.266-2.437-18.141-7.312-5.812-11.203-5.812-18.985c0-8.781 2.14-15.609 6.422-20.484 4.281-4.875 10.187-7.312 17.718-7.312 6.407 0 11.641 1.437 15.703 4.312 4.094 2.875 6.516 7.953 7.266 15.234z"/><path d="m219.819 193.594c3.157 0 6.016.547 8.578 1.64 2.594 1.094 4.719 2.766 6.375 5.016 1.407 1.906 2.266 3.875 2.579 5.906.312 2 .468 5.282.468 9.844v30h-13.64v-31.078c0-2.75-.469-4.969-1.407-6.656-1.218-2.375-3.531-3.563-6.937-3.563-3.531 0-6.219 1.188-8.063 3.563-1.812 2.343-2.718 5.703-2.718 10.078v27.656h-13.313v-68.859h13.313v24.421c1.937-2.968 4.172-5.031 6.703-6.187 2.562-1.187 5.25-1.781 8.062-1.781z"/><path d="m268.571 204.562c-3.094 0-5.5.969-7.219 2.907-1.687 1.937-2.75 4.562-3.187 7.875h20.766c-.219-3.532-1.297-6.203-3.235-8.016-1.906-1.844-4.281-2.766-7.125-2.766zm0-11.015c4.25 0 8.078.797 11.485 2.391 3.406 1.593 6.218 4.109 8.437 7.546 2 3.032 3.297 6.547 3.891 10.547.343 2.344.484 5.719.422 10.125h-34.969c.187 5.125 1.797 8.719 4.828 10.782 1.844 1.281 4.062 1.921 6.656 1.921 2.75 0 4.985-.781 6.703-2.343.938-.844 1.766-2.016 2.485-3.516h13.64c-.343 3.031-1.922 6.109-4.734 9.234-4.375 4.969-10.5 7.454-18.375 7.454-6.5 0-12.234-2.094-17.203-6.282-4.969-4.187-7.453-11-7.453-20.437 0-8.844 2.234-15.625 6.703-20.344 4.5-4.719 10.328-7.078 17.484-7.078z"/><path d="m357.026 193.781c2.25 0 4.469.438 6.656 1.313 2.188.875 4.172 2.406 5.954 4.594 1.437 1.781 2.406 3.968 2.906 6.562.312 1.719.469 4.234.469 7.547l-.094 32.203h-13.688v-32.531c0-1.938-.312-3.531-.937-4.781-1.188-2.376-3.375-3.563-6.563-3.563-3.687 0-6.234 1.531-7.64 4.594-.719 1.625-1.078 3.578-1.078 5.859v30.422h-13.454v-30.422c0-3.031-.312-5.234-.937-6.609-1.125-2.469-3.328-3.703-6.609-3.703-3.813 0-6.375 1.234-7.688 3.703-.719 1.406-1.078 3.5-1.078 6.281v30.75h-13.547v-51h12.984v7.453c1.657-2.656 3.219-4.547 4.688-5.672 2.594-2 5.953-3 10.078-3 3.906 0 7.063.86 9.469 2.578 1.937 1.594 3.406 3.641 4.406 6.141 1.75-3 3.922-5.203 6.516-6.609 2.75-1.407 5.812-2.11 9.187-2.11z"/><path d="m411.591 221.156c-.844.532-1.703.969-2.578 1.313-.844.312-2.016.609-3.516.89l-3 .563c-2.813.5-4.828 1.109-6.047 1.828-2.062 1.219-3.094 3.109-3.094 5.672 0 2.281.625 3.937 1.875 4.969 1.282 1 2.828 1.5 4.641 1.5 2.875 0 5.516-.844 7.922-2.532 2.437-1.687 3.703-4.765 3.797-9.234zm-8.11-6.234c2.469-.313 4.235-.703 5.297-1.172 1.906-.812 2.86-2.078 2.86-3.797 0-2.094-.735-3.531-2.204-4.312-1.437-.813-3.562-1.219-6.375-1.219-3.156 0-5.39.781-6.703 2.344-.937 1.156-1.562 2.718-1.875 4.687h-12.89c.281-4.469 1.531-8.141 3.75-11.015 3.531-4.5 9.593-6.75 18.187-6.75 5.594 0 10.563 1.109 14.906 3.328 4.344 2.218 6.516 6.406 6.516 12.562v23.438c0 1.625.031 3.593.094 5.906.094 1.75.359 2.937.797 3.562.437.625 1.093 1.141 1.968 1.547v1.969h-14.531c-.406-1.031-.687-2-.844-2.906-.156-.906-.281-1.938-.375-3.094-1.843 2-3.968 3.703-6.375 5.109-2.875 1.657-6.125 2.485-9.75 2.485-4.625 0-8.453-1.313-11.484-3.938-3-2.656-4.5-6.406-4.5-11.25 0-6.281 2.422-10.828 7.266-13.64 2.656-1.532 6.562-2.625 11.718-3.282z"/><path d="m183.813 332v-8.448h7.008v8.448z"/><path d="m225.507 333.344c-3.2-.064-6.208-.64-9.024-1.728-2.752-1.088-5.184-2.72-7.296-4.896-2.048-2.176-3.68-4.896-4.896-8.16s-1.824-7.072-1.824-11.424c0-3.648.48-7.04 1.44-10.176.96-3.2 2.4-5.984 4.32-8.352s4.32-4.224 7.2-5.568c2.88-1.408 6.24-2.112 10.08-2.112 3.904 0 7.296.704 10.176 2.112 2.88 1.344 5.28 3.2 7.2 5.568 1.92 2.304 3.328 5.056 4.224 8.256.96 3.2 1.44 6.624 1.44 10.272 0 3.968-.544 7.552-1.632 10.752s-2.656 5.952-4.704 8.256c-1.984 2.304-4.416 4.096-7.296 5.376-2.816 1.216-5.952 1.824-9.408 1.824zm16.896-26.208c0-2.944-.32-5.696-.96-8.256s-1.632-4.768-2.976-6.624c-1.344-1.92-3.072-3.424-5.184-4.512s-4.704-1.632-7.776-1.632c-3.008 0-5.6.608-7.776 1.824-2.112 1.152-3.84 2.72-5.184 4.704-1.344 1.92-2.336 4.16-2.976 6.72-.64 2.496-.96 5.088-.96 7.776 0 3.072.352 5.92 1.056 8.544.768 2.56 1.856 4.768 3.264 6.624s3.168 3.296 5.28 4.32 4.544 1.536 7.296 1.536c3.008 0 5.568-.576 7.68-1.728 2.176-1.216 3.936-2.816 5.28-4.8s2.336-4.224 2.976-6.72.96-5.088.96-7.776z"/><path d="m263.203 332h-5.76v-49.728h5.76v9.312h.192c1.6-3.968 3.648-6.72 6.144-8.256 2.56-1.6 5.92-2.4 10.08-2.4v6.24c-3.264-.064-5.952.448-8.064 1.536s-3.808 2.56-5.088 4.416c-1.216 1.856-2.08 4.064-2.592 6.624-.448 2.496-.672 5.12-.672 7.872z"/><path d="m325.604 307.328c0-3.008-.384-5.792-1.152-8.352-.704-2.624-1.76-4.864-3.168-6.72-1.408-1.92-3.168-3.424-5.28-4.512s-4.512-1.632-7.2-1.632c-2.432 0-4.672.448-6.72 1.344-2.048.832-3.84 2.08-5.376 3.744s-2.752 3.712-3.648 6.144c-.832 2.368-1.248 5.12-1.248 8.256-.128 3.136.128 6.08.768 8.832.64 2.688 1.664 5.056 3.072 7.104s3.2 3.68 5.376 4.896c2.176 1.152 4.768 1.728 7.776 1.728 2.624 0 4.96-.544 7.008-1.632 2.112-1.152 3.872-2.656 5.28-4.512 1.472-1.92 2.592-4.128 3.36-6.624.768-2.56 1.152-5.248 1.152-8.064zm0-25.056h5.76v44.928c0 3.328-.352 6.496-1.056 9.504-.64 3.072-1.824 5.76-3.552 8.064s-4.096 4.128-7.104 5.472c-3.008 1.408-6.88 2.112-11.616 2.112-3.648 0-6.784-.48-9.408-1.44-2.624-.896-4.768-2.048-6.432-3.456s-2.944-2.976-3.84-4.704c-.832-1.664-1.28-3.232-1.344-4.704h6.144c.448 1.856 1.152 3.36 2.112 4.512.96 1.216 2.08 2.144 3.36 2.784 1.344.704 2.816 1.184 4.416 1.44s3.264.384 4.992.384c3.904 0 7.04-.672 9.408-2.016s4.16-3.104 5.376-5.28 1.984-4.64 2.304-7.392c.384-2.752.544-5.568.48-8.448-1.856 3.072-4.416 5.408-7.68 7.008-3.2 1.536-6.56 2.304-10.08 2.304-3.776 0-7.072-.704-9.888-2.112-2.752-1.472-5.056-3.392-6.912-5.76-1.792-2.432-3.136-5.248-4.032-8.448s-1.344-6.528-1.344-9.984c0-3.648.416-7.072 1.248-10.272s2.144-5.952 3.936-8.256c1.856-2.368 4.192-4.224 7.008-5.568s6.24-2.016 10.272-2.016c1.6 0 3.232.224 4.896.672s3.264 1.088 4.8 1.92c1.6.832 3.04 1.888 4.32 3.168 1.344 1.28 2.432 2.72 3.264 4.32h.192z"/></g></svg>