<svg viewBox="0 0 97.1 97" xmlns="http://www.w3.org/2000/svg"><path d="m88.4 5.6a42.32 42.32 0 0 1 -5.2 9.1 48.46 48.46 0 1 0 -67.7 69.3l1.8 1.6a48.41 48.41 0 0 0 79.5-33.6c1.4-12.2-2.3-27.8-8.4-46.4zm-65.9 78.8a4.12 4.12 0 1 1 -.6-5.8 4.21 4.21 0 0 1 .6 5.8zm65.6-14.5c-11.9 15.9-37.5 10.5-53.8 11.3 0 0-2.9.2-5.8.6 0 0 1.1-.5 2.5-1 11.5-4 16.9-4.8 23.9-8.4 13.1-6.7 26.2-21.4 28.8-36.6-5 14.6-20.2 27.2-34 32.3-9.5 3.5-26.6 6.9-26.6 6.9l-.7-.4c-11.6-5.7-12-30.9 9.2-39 9.3-3.6 18.1-1.6 28.2-4 10.7-2.5 23.1-10.5 28.1-21 5.6 16.9 12.4 43.1.2 59.3z" fill="#6db33f"/></svg>