<svg enable-background="new 0 0 500 500" viewBox="0 0 500 500" xmlns="http://www.w3.org/2000/svg" xmlns:xlink="http://www.w3.org/1999/xlink"><linearGradient id="a" gradientUnits="userSpaceOnUse" x1="-180.0568044" x2="-143.8493366" y1="937.2631336" y2="915.868727"><stop offset="0" stop-color="#909ca9"/><stop offset="1" stop-color="#ededee"/></linearGradient><linearGradient id="b" gradientUnits="userSpaceOnUse" x1="-178.6285402" x2="-149.495084" y1="228.6090566" y2="228.6090566"><stop offset="0" stop-color="#939fab"/><stop offset="1" stop-color="#dcdee1"/></linearGradient><radialGradient id="c" cx="-14597.5645" cy="-14623" gradientTransform="matrix(-.0365 -.00548137 .0111 -.073 -290.84 -684.0576)" gradientUnits="userSpaceOnUse" r="1017.9019"><stop offset="0" stop-color="#ee352c"/><stop offset="1" stop-color="#a91d22"/></radialGradient><g transform="matrix(.569 0 0 .569 199.451 -82.735)"><path d="m194.41 555.63-175.98 57.46-153.1 67.57-42.83 11.31c-10.91 10.38-22.35 20.88-34.72 31.53-13.57 11.7-26.2 22.35-35.92 30.06-10.77 8.51-26.74 24.47-34.85 34.58-12.1 15.16-21.68 31.26-25.81 43.63-7.32 22.35-3.72 44.96 10.38 65.84 18.09 26.6 54.14 53.74 96.17 72.22 21.42 9.45 57.46 21.55 84.6 28.33 45.09 11.44 132.35 23.81 180.37 25.67 9.71.4 22.75.4 23.28 0 1.07-.67 8.51-14.9 17.16-32.59 29.53-60.26 50.81-116.79 62.38-165.07 6.92-29.26 12.37-68.24 15.96-114.39.93-12.9 1.33-56.13.53-70.77-1.2-23.94-3.33-43.36-6.65-62.38-.53-2.79-.67-5.32-.4-5.45.53-.4 2.13-.93 23.81-7.18zm-40.17 23.54c1.6 0 5.85 40.83 6.91 66.64.27 5.45.13 9.04-.13 9.04-1.06 0-22.48-12.64-37.77-22.21-13.3-8.38-38.57-25.14-42.56-28.33-1.33-.93-1.2-1.06 9.71-4.79 18.48-6.25 62.37-20.35 63.84-20.35zm-89.65 29.53c1.2 0 4.26 1.73 11.57 6.25 27.4 17.16 64.65 37.91 80.61 44.83 4.92 2.13 5.45 1.33-5.85 9.04-24.21 16.49-54.4 32.72-91.38 49.08-6.52 2.93-11.97 5.19-12.1 5.19-.26 0 .53-3.32 1.59-7.31 8.91-33.12 13.97-66.64 14.24-93.51.13-13.3.13-13.3 1.33-13.7-.28.13-.15.13-.01.13zm-18.49 7.05c.8.8.26 30.59-.8 38.71-2.39 19.42-6.12 37.51-12.24 57.86-1.46 4.92-2.8 9.04-3.06 9.31-.53.66-18.76-17.16-24.74-24.08-10.38-11.97-18.49-23.94-24.47-35.65-3.06-5.99-7.85-17.69-7.45-18.09 2.13-1.46 72.22-28.59 72.76-28.06zm-87 34.18c.13 0 .26 0 .4.13.26.27 1.2 2.4 2 4.79 4.26 11.57 13.83 28.6 22.08 39.51 9.04 11.97 20.88 24.74 30.72 33.12 3.19 2.66 6.12 5.19 6.52 5.59.8.8 1.07.66-20.62 8.91-25.14 9.58-52.54 19.15-83.93 29.26-7.5 2.42-14.99 4.86-22.48 7.32-1.2.4-.8-.27 2.66-5.72 15.57-24.34 39.24-72.09 52.55-105.88 2.26-5.85 4.52-11.7 4.92-13.03.53-1.86 1.2-2.53 2.92-3.46.93-.27 1.87-.54 2.26-.54zm-26.6 11.04c.4.27-6.39 14.5-13.04 27.53-12.9 25.14-27 49.88-45.89 79.94-3.19 5.19-6.25 9.98-6.65 10.51-.66.93-.93.66-3.06-3.46-4.52-8.91-8.25-20.35-10.24-30.86-2-10.38-1.6-28.46.67-39.64 1.73-8.25 1.6-8.11 5.59-10.11 17.02-8.63 72.09-34.44 72.62-33.91zm229.45 9.32v5.59c0 29.66-3.19 70.36-7.85 100.03-.8 5.19-1.47 9.44-1.6 9.58 0 0-3.86-1.06-8.38-2.4-19.95-6.25-41.63-15.43-61.19-26.2-12.9-7.05-31.66-18.62-31.12-19.16.13-.13 5.72-3.06 12.24-6.52 26.07-13.57 51.08-28.2 72.76-42.7 8.11-5.45 20.35-14.23 23.01-16.63zm-329.87 39.37c.53 0 .4 1.06-.4 5.85-.53 3.46-1.2 9.84-1.46 14.23-1.07 19.42 2.13 33.79 11.7 53.47 2.66 5.45 4.79 9.98 4.65 10.11-.93.8-88.99 26.61-116.65 34.19-8.25 2.26-15.43 4.26-15.96 4.39-.93.27-1.06.13-.66-2.13 3.06-19.55 17.96-45.09 38.71-66.64 13.83-14.36 24.87-22.74 43.76-33.52 13.57-7.71 34.45-19.28 36.05-19.82-.01-.13.12-.13.26-.13zm207.5 37.11c.13-.13 3.32 1.6 7.18 3.86 28.47 16.49 68.1 31.79 101.89 39.64l3.06.67-4.26 2.39c-17.69 9.84-75.82 34.05-135.27 56.27-8.65 3.19-17.16 6.38-18.76 7.05-1.6.66-3.06 1.06-3.06.93s2.4-4.79 5.45-10.51c16.63-31.13 33.39-69.03 41.9-95.37 1.07-2.54 1.73-4.8 1.87-4.93zm-21.15 6.92c.13.14-.93 2.93-2.26 6.12-11.57 28.07-26.74 58.66-46.16 92.98-4.92 8.78-9.04 15.83-9.18 15.83-.13 0-4.12-2.4-8.91-5.32-28.2-17.29-53.21-38.57-69.57-59.19l-2.4-2.93 12.1-3.33c43.36-11.84 80.21-24.61 116.79-40.3 5.2-2.13 9.46-3.86 9.59-3.86zm131.42 45.89s.13.13 0 0c.13 3.06-6.65 30.46-12.24 50.28-4.65 16.63-8.65 29.66-15.96 52.67-3.19 10.11-5.98 18.49-6.12 18.49-.13 0-.93-.13-1.73-.4-39.5-7.19-74.89-17.16-108.14-30.46-9.31-3.73-22.61-9.71-23.41-10.38-.26-.27 7.72-3.99 17.82-8.38 60.52-26.47 123.3-56.53 144.85-69.43 2.53-1.6 4.53-2.39 4.93-2.39zm-303.41 10.37c.27.27-16.63 24.61-40.3 57.73-8.25 11.57-17.82 25.14-21.41 30.19s-9.04 13.04-12.1 17.82l-5.59 8.65-5.99-5.05c-7.05-5.85-19.29-18.36-24.74-25.27-11.44-14.23-19.15-29.26-22.21-42.96-1.46-6.39-1.46-9.58-.13-9.98 1.99-.53 37.51-8.91 70.77-16.63 18.49-4.26 39.9-9.31 47.62-11.17 7.7-1.87 13.95-3.33 14.08-3.33zm17.03 6.52 4.26 4.79c19.16 21.42 38.71 37.25 62.39 51.08 4.26 2.4 7.45 4.52 7.18 4.66-.93.66-82.2 29.53-119.84 42.56-21.15 7.45-38.57 13.43-38.71 13.43-.13 0-1.33-.8-2.66-1.73l-2.39-1.73 3.86-5.59c12.5-18.09 28.2-37.91 62.38-79.14zm106.14 75.95c.13-.13 5.98 1.99 13.17 4.66 17.29 6.52 30.99 10.64 49.35 15.3 22.61 5.72 55.33 11.31 74.62 12.9 2.93.27 4.52.53 3.99.93-.93.53-20.48 7.05-34.85 11.57-22.88 7.18-92.71 27.8-149.64 44.16-10.51 3.06-19.55 5.59-20.09 5.72-1.33.27-5.72-.93-5.72-1.46 0-.26 3.19-4.39 7.05-8.91 19.15-22.88 38.18-48.42 54-72.63 4.4-6.66 8.12-12.11 8.12-12.24zm-23.41.67c.13.13-9.31 15.3-25.8 41.37-7.05 11.04-14.9 23.54-17.69 27.93-2.66 4.26-6.65 10.91-8.91 14.63l-3.86 6.78-1.99-.53c-4.79-1.33-38.44-13.17-47.35-16.76-11.04-4.39-22.48-9.71-30.99-14.23-10.64-5.72-23.94-14.23-22.88-14.5.27-.13 18.49-5.06 40.44-11.04 58.26-15.83 90.58-25.01 111.73-31.66 3.85-1.2 7.17-2.13 7.3-1.99zm165.6 38.83h.13c.53 1.33-21.01 61.19-28.87 80.07-1.73 4.26-2.39 5.32-3.32 5.19-2.26-.13-33.52-4.52-52.54-7.31-33.12-5.05-88.72-14.77-102.68-17.96l-3.19-.66 19.82-4.53c42.57-9.58 63.05-14.76 83.8-21.15 26.2-7.98 52.14-17.96 78.35-30.19 4.11-1.86 7.57-3.32 8.5-3.46z" fill="url(#a)"/><path d="m12.98 145.41c-2.93-.4-50.15 16.63-80.61 29-41.1 16.76-73.02 32.72-92.71 46.55-7.31 5.19-16.49 14.37-17.96 17.96-.53 1.33-.8 2.93-.8 4.52l17.82 16.89 42.43 13.57 100.96 18.09 115.45 19.82 1.2-9.98c-.4 0-.67-.13-1.06-.13l-15.17-2.4-3.06-5.45c-15.7-27.67-32.99-61.99-43.1-85.13-7.85-17.96-15.3-38.71-19.42-53.6-2.24-9.04-2.51-9.57-3.97-9.71zm-2.13 6.79h.14c.13.13.66 3.86 1.2 8.25 2.26 18.62 6.39 36.58 12.9 56 4.92 14.63 4.92 13.83-.8 12.1-13.57-3.72-74.35-14.23-118.38-20.35-7.05-.93-13.04-1.86-13.04-1.99-.53-.53 31.79-17.43 46.02-24.08 18.22-8.39 68.23-29.27 71.96-29.93zm-128.23 59.59 5.19 1.73c28.2 9.58 99.09 23.15 138.2 26.34 4.39.4 8.11.8 8.25.8.13.13-3.59 2.13-8.38 4.39-18.89 9.44-39.64 21.02-54 29.93-4.26 2.66-8.11 4.79-8.64 4.79s-3.32-.53-6.25-.93l-5.32-.8-13.3-13.04c-23.41-22.74-41.77-40.3-48.82-46.95zm-5.32 4.12 18.75 23.41c10.24 12.9 20.62 25.54 22.88 28.33 2.26 2.8 4.12 5.06 3.99 5.19-.53.4-27.13-4.79-41.23-7.98-14.5-3.33-20.48-4.92-29.4-7.71l-7.32-2.4v-1.86c.13-8.91 11.44-22.21 30.59-35.78.01 0 1.74-1.2 1.74-1.2zm159.35 31.92c.53 0 1.2 1.2 2.79 4.79 4.52 9.98 18.62 36.85 22.08 42.03 1.07 1.73 2.93 1.86-15.83-1.2-45.09-7.32-59.59-9.71-59.59-9.98 0-.13 1.33-1.06 3.06-2 13.97-7.71 28.07-17.56 40.57-28.07 3.06-2.53 5.85-4.92 6.38-5.32.14-.25.41-.38.54-.25z" fill="url(#b)"/><path d="m-177.37 237.06s-2.92 4.66-.13 11.57c1.73 4.26 6.78 9.44 12.5 14.76 0 0 59.19 57.73 66.37 65.98 32.72 37.77 46.95 75.02 48.28 126.36.8 32.99-5.46 61.98-21.02 95.64-27.67 60.39-86.06 127.03-176.11 200.99l13.17-4.39c8.51-6.39 20.09-13.17 47.22-28.07 62.65-34.32 133.15-65.84 219.61-98.3 124.5-46.82 329.21-101.63 445.73-119.45l12.11-1.86-1.86-2.93c-10.64-16.49-17.96-26.74-26.74-37.64-25.54-31.66-56.53-57.33-94.44-78.61-52.14-29.13-119.58-51.87-204.97-68.77-16.09-3.19-51.48-9.31-80.21-13.7-60.92-9.44-100.29-15.96-143.65-23.41-15.56-2.66-38.84-6.65-54.27-9.98-7.98-1.73-23.28-5.32-35.25-9.44-9.58-3.72-23.41-7.45-26.34-18.75zm34.32 33.25c.13-.13 2.26.66 5.05 1.6 5.05 1.73 11.57 3.72 19.29 5.85 5.84 1.61 11.69 3.16 17.56 4.65 7.98 1.99 14.63 3.86 14.76 3.86.93.93 14.37 43.89 18.89 60.39 1.73 6.25 3.06 11.57 2.93 11.57-.14.13-1.6-2.13-3.33-5.19-15.56-27.4-40.17-55.2-68.64-77.55-3.71-2.65-6.51-5.04-6.51-5.18zm65.44 18.09c.67 0 3.59.4 7.18 1.2 22.61 5.05 63.18 12.77 89.12 17.16 4.39.66 7.85 1.46 7.85 1.73s-1.6 1.2-3.59 2.26c-4.39 2.26-22.08 12.77-27.93 16.76-14.77 9.84-28.07 20.48-37.64 30.06-3.86 3.86-7.18 7.05-7.18 7.05s-.8-2.26-1.46-5.06c-4.79-18.49-14.76-45.89-23.81-65.18-1.46-3.06-2.66-5.85-2.66-6.12-.01.28-.01.14.12.14zm115.19 21.95c.8.26 2.13 4.79 4.79 14.76 4.92 19.29 7.18 40.84 6.39 60.92-.27 5.59-.53 10.77-.8 11.44l-.4 1.33-6.92-2.26c-14.23-4.52-37.38-11.31-57.19-16.89-11.31-3.06-20.48-5.85-20.48-6.12 0-.8 16.49-17.29 23.54-23.54 13.43-11.84 49.88-40.04 51.07-39.64zm9.18 1.33c.4-.4 55.07 9.04 79.94 13.83 18.49 3.59 45.36 9.18 46.95 9.84.8.26-2 1.86-10.91 5.85-35.11 15.83-61.19 30.06-87.12 47.35-6.78 4.52-12.5 8.25-12.64 8.25-.13 0-.27-3.86-.27-8.51 0-25.27-5.05-50.81-14.37-72.36-.91-2.12-1.71-4.12-1.58-4.25zm141.39 27.93c.4.4-1.33 11.17-2.93 17.56-4.79 19.82-17.69 49.22-33.52 76.88-2.8 4.92-5.32 8.91-5.59 9.04-.26.13-3.86-1.86-7.98-4.26-15.43-9.04-32.99-17.56-52.14-25.54-5.32-2.26-9.98-4.12-10.11-4.39-.93-.8 41.9-29.13 64.51-42.7 17.97-10.89 47.23-27.12 47.76-26.59zm10.11 1.6c1.2 0 25.41 6.65 38.04 10.38 31.26 9.31 67.17 22.48 90.58 33.12l9.71 4.39-6.78 1.59c-57.19 13.17-106.14 28.33-153.37 47.49-3.86 1.6-7.32 2.93-7.58 2.93-.27 0 1.06-3.06 2.79-6.78 14.23-30.19 23.41-61.72 25.67-88.59.15-2.54.54-4.53.94-4.53zm-241.02 55.33c.4-.4 18.89 3.99 28.86 6.78 15.16 4.26 47.35 15.03 47.35 15.83 0 .13-3.59 3.19-7.85 6.92-17.42 14.5-34.19 29.79-54.27 49.21-5.99 5.72-11.04 10.38-11.3 10.38-.27 0-.4-.8-.27-1.86 3.06-22.35 2.4-51.08-1.86-80.21-.39-3.72-.79-6.91-.66-7.05zm388.54.4c.26.26-8.51 14.1-14.1 21.94-7.98 11.44-19.69 26.61-46.16 59.86-13.96 17.56-29.66 37.38-34.85 44.03-5.32 6.65-9.71 12.24-9.85 12.24-.13 0-1.86-2.39-3.72-5.32-14.9-22.35-32.72-41.9-53.87-59.46-3.99-3.33-8.38-6.92-9.84-7.98s-2.66-2.13-2.66-2.26c0-.4 22.61-10.11 39.77-17.03 30.06-12.24 71.03-26.87 101.75-36.31 16.1-5.05 33.26-9.97 33.53-9.71zm10.24 2.66c.53-.13 3.72 1.46 7.58 3.72 32.32 18.49 63.98 42.3 88.99 66.77 7.05 6.92 24.47 25.01 24.21 25.14 0 0-6.12.53-13.3 1.06-56 4.26-127.69 16.09-196.59 32.72-4.65 1.06-8.78 1.99-9.04 1.99s4.92-5.19 11.44-11.44c40.44-38.97 58.93-63.58 80.74-107.48 3.04-6.49 5.7-12.08 5.97-12.48-.13 0-.13 0 0 0zm-296.22 30.33c1.86.4 19.16 8.51 32.19 15.03 11.97 5.98 29.93 15.56 30.86 16.36.13.13-6.25 3.46-14.1 7.32-25.01 12.5-46.42 24.34-68.77 37.91-6.38 3.86-11.7 7.05-11.84 7.05-.53 0-.4-.53 3.19-7.05 11.97-21.81 21.55-47.88 27-73.29.53-2 1.07-3.33 1.47-3.33zm-17.3 3.19c.4.4-4.12 16.76-6.91 25.67-5.46 16.89-14.63 38.04-23.54 54-2.13 3.72-5.32 9.18-7.05 12.24l-3.32 5.32-7.45-7.18c-8.64-8.38-15.7-13.57-24.74-18.22-3.59-1.86-6.39-3.46-6.39-3.72 0-1.06 22.75-21.68 40.17-36.58 12.5-10.78 38.84-31.93 39.23-31.53zm105.75 43.5 6.52 4.26c14.89 9.71 32.45 22.61 45.89 33.92 7.58 6.25 22.21 19.42 25.14 22.61l1.59 1.73-10.77 3.06c-60.92 16.89-108.01 31.92-162.94 52.14-6.12 2.26-11.31 4.12-11.71 4.12-.8 0-1.46.66 12.24-11.97 35.12-32.32 66.24-67.97 89.39-102.69zm-27.8 6.91c.26.26-17.96 25.94-28.87 40.44-13.03 17.29-36.18 46.29-52.14 65.18-6.65 7.85-12.37 14.37-12.63 14.5-.4.13-.53-1.86-.53-4.92 0-16.1-4.12-33.25-11.31-47.89-3.06-6.12-3.59-7.58-2.92-8.25 2.53-2.26 41.23-24.34 65.71-37.51 16.49-8.78 42.29-21.81 42.69-21.55zm-168.13 41.24c.4 0 3.46 1.59 6.92 3.46 8.51 4.65 16.09 9.84 22.88 15.43.26.26-3.19 3.06-7.71 6.38-12.64 9.04-31.79 23.54-42.96 32.46-11.71 9.31-12.1 9.58-10.78 7.58 8.78-13.43 13.17-21.02 17.82-30.73 4.12-8.64 8.25-18.89 11.17-27.8 1.06-3.85 2.4-6.78 2.66-6.78zm44.83 35.11c.66-.13 1.46 1.06 5.05 6.39 7.58 11.3 13.43 26.47 14.9 38.71l.26 2.66-18.22 7.05c-32.59 12.63-62.65 25.14-83 34.45-5.72 2.66-15.69 7.45-22.21 10.64-6.52 3.32-11.84 5.85-11.84 5.72s4.12-3.19 9.18-6.92c39.77-28.86 74.22-60.52 100.03-92.18 2.79-3.33 5.32-6.39 5.59-6.52zm-20.62 5.06c.53.53-14.63 17.69-25.01 28.2-25.67 26.21-51.08 46.69-82.6 66.64-3.99 2.53-7.58 4.79-7.98 5.05-.93.53.26-.8 14.1-15.83 8.78-9.44 15.43-17.42 23.01-27.27 5.05-6.52 5.99-7.45 13.3-12.64 19.56-14.09 64.65-44.68 65.18-44.15z" fill="url(#c)"/></g></svg>