<svg enable-background="new 0 0 500 500" viewBox="0 0 500 500" xmlns="http://www.w3.org/2000/svg"><path d="m.57 0h499.16v500h-499.16z" fill="#005f0f"/><path d="m426 68.18c-61.47 75.33-136.55 138.42-216.61 193.12-26.03 18.63-54.76 35.21-74.77 60.73-7.64 13.43-9.49 32.34 3.58 43.23 21.76 20.51 55.66 24.97 82.92 13.49 38.17-14.54 64.53-47.63 86.68-80.43 49.44-71.25 79.43-153.18 118.2-230.14z" fill="#fff"/><path d="m390.74 94.22c-76.54 60.64-137.76 93.42-216.04 121.61-23.62 10.11-48.94 22.94-59.92 47.74-11.3 23.47-7.6 56.19 5.37 77.92-.97-9.15 3.92-23.93 11.19-30.86 24.12-26.87 55.55-44.47 83.19-64.87l.07-.06.07-.04c63.96-43.92 123.93-94.12 176.07-151.44z" fill="#aea99f"/></svg>