<svg viewBox="0 0 100 100" xmlns="http://www.w3.org/2000/svg"><g stroke="#1d1d1b" stroke-linecap="round" stroke-linejoin="round" stroke-width=".33" transform="matrix(1.3449793 0 0 1.5564737 -17.18894 -28.138359)"><path d="m28.11 72.36h14.38l29.55-29.25 15.16 14.59v-14.2l-15.16-14.66h-14.64l-29.29 29.29z" fill="#475da6"/><path d="m87.2 57.7-15.16 14.66v-14.23l15.16-14.63z" fill="#80be67"/><path d="m72.04 72.36h-14.53l-29.4-29.25-15.31 14.82v-14.19l15.31-14.9h14.49l29.44 29.29z" fill="#ffd200"/><path d="m72.04 28.84h-14.53l-29.4 29.29-15.31-14.39v14.19l15.31 14.43h14.49l29.44-29.25z" fill="#475da6"/><path d="m28.11 58.13v14.23h14.49l29.44-29.25v-14.27h-14.53z" fill="#ea5d31"/><g fill="#80be67"><path d="m12.8 43.74 15.31-14.9v14.27l-15.31 14.82z"/><path d="m12.8 43.74 15.31-14.9v14.27l-15.31 14.82z"/></g></g></svg>