<svg viewBox="0 0 96 95.51" xmlns="http://www.w3.org/2000/svg" xmlns:xlink="http://www.w3.org/1999/xlink"><mask id="a" height="95.51" maskUnits="userSpaceOnUse" width="96" x="0" y="0"><path d="m68.89 95.6a6 6 0 0 0 3.93-.44l19.78-9.51a6 6 0 0 0 3.4-5.41v-64.48a6 6 0 0 0 -3.4-5.41l-19.78-9.51a6 6 0 0 0 -4.48-.29 6 6 0 0 0 -2.34 1.45l-31.88 35.26-18.62-15.26-1.63-1.4a4 4 0 0 0 -3.61-.83 2.55 2.55 0 0 0 -.53.18l-7.27 3.05a4 4 0 0 0 -2.46 3.37v.3 42.66.3a4 4 0 0 0 2.46 3.37l7.27 3a2.55 2.55 0 0 0 .53.18 4 4 0 0 0 3.61-.83l1.63-1.35 18.62-15.26 31.88 35.26a6 6 0 0 0 2.89 1.6zm3.11-67.92-24.79 20.32 24.79 20.32zm-60 6.59 12.41 13.73-12.41 13.73z" fill="#fff" fill-rule="evenodd" transform="translate(0 -.25)"/></mask><linearGradient id="b" gradientTransform="matrix(1 0 0 -1 0 98)" gradientUnits="userSpaceOnUse" x1="48" x2="48" y1="97.75" y2="2.25"><stop offset="0" stop-color="#fff"/><stop offset="1" stop-color="#fff" stop-opacity="0"/></linearGradient><g mask="url(#a)"><path d="m13.87 75.4a4 4 0 0 1 -4.14.65l-7.27-3.05a4 4 0 0 1 -2.46-3.67v-42.66a4 4 0 0 1 2.46-3.67l7.27-3a4 4 0 0 1 4.14.65l1.63 1.35a2.21 2.21 0 0 0 -3.5 1.8v48.4a2.21 2.21 0 0 0 3.5 1.8z" fill="#52218a" transform="translate(0 -.25)"/><path d="m2.46 73a4 4 0 0 1 -2.46-3.67v-.33a2.31 2.31 0 0 0 4 1.55l62-68.55a6 6 0 0 1 6.82-1.16l19.78 9.52a6 6 0 0 1 3.4 5.41v.23a3.79 3.79 0 0 0 -6.19-2.93l-74.31 60.93-1.63 1.4a4 4 0 0 1 -4.14.65z" fill="#6c33af" transform="translate(0 -.25)"/><path d="m2.46 23a4 4 0 0 0 -2.46 3.67v.33a2.31 2.31 0 0 1 4-1.55l62 68.55a6 6 0 0 0 6.82 1.16l19.78-9.52a6 6 0 0 0 3.4-5.41v-.23a3.79 3.79 0 0 1 -6.19 2.93l-74.31-60.93-1.63-1.4a4 4 0 0 0 -4.14-.6z" fill="#854cc7" transform="translate(0 -.25)"/><path d="m72.82 95.16a6 6 0 0 1 -6.82-1.16 3.52 3.52 0 0 0 6-2.49v-87a3.52 3.52 0 0 0 -6-2.51 6 6 0 0 1 6.82-1.16l19.78 9.51a6 6 0 0 1 3.4 5.41v64.48a6 6 0 0 1 -3.4 5.41z" fill="#b179f1" transform="translate(0 -.25)"/><path d="m68.89 95.6a6 6 0 0 0 3.93-.44l19.78-9.51a6 6 0 0 0 3.4-5.41v-64.48a6 6 0 0 0 -3.4-5.41l-19.78-9.51a6 6 0 0 0 -4.48-.29 6 6 0 0 0 -2.34 1.45l-31.88 35.26-18.62-15.26-1.63-1.4a4 4 0 0 0 -3.61-.83 2.55 2.55 0 0 0 -.53.18l-7.27 3.05a4 4 0 0 0 -2.46 3.37v.3 42.66.3a4 4 0 0 0 2.46 3.37l7.27 3a2.55 2.55 0 0 0 .53.18 4 4 0 0 0 3.61-.83l1.63-1.35 18.62-15.26 31.88 35.26a6 6 0 0 0 2.89 1.6zm3.11-67.92-24.79 20.32 24.79 20.32zm-60 6.59 12.41 13.73-12.41 13.73z" fill="url(#b)" fill-rule="evenodd" opacity=".25" transform="translate(0 -.25)"/></g></svg>