<svg height="132" viewBox="0 0 161 132" width="161" xmlns="http://www.w3.org/2000/svg" xmlns:xlink="http://www.w3.org/1999/xlink"><linearGradient id="a" gradientTransform="scale(1.250559 .79964241)" gradientUnits="userSpaceOnUse" x1="48.858151" x2="127.14314" y1="40.017887" y2="40.017887"><stop offset="0" stop-color="#2a3b8f"/><stop offset="1" stop-color="#29abe2"/></linearGradient><linearGradient id="b" gradientTransform="scale(1.253201 .79795657)" gradientUnits="userSpaceOnUse" x1="126.8751" x2="48.675351" y1="124.81882" y2="124.81882"><stop offset="0" stop-color="#b4d44e"/><stop offset="1" stop-color="#e7f716"/></linearGradient><g fill="none" fill-rule="evenodd" transform="matrix(1 0 0 1.0169999 0 -.804217)"><path d="m160.6 65.9-17.4 29.3-24.4-29.7 24.4-28.9z" fill="#166da5"/><path d="m141.3 100.2-26.5-31.7-15.9 26.6 24.7 36.1z" fill="#8fdb69"/><path d="m141 31.4-26.2 31.8-15.9-26.6 24.7-35.7z" fill="#166da5"/><path d="m61.1 31.4h79.9l-17.6-30.7h-44.7zm53.7 31.9h44.2l-15.9-26.8h-44.3" fill="url(#a)" opacity=".95"/><path d="m141.3 100.3h-80.3l17.6 30.5h45zm-26.5-31.9h44.2l-15.9 26.8h-44.3" fill="url(#b)" opacity=".95"/><path d="m78.6 130.8-37.6-65 38.1-65h-41.2l-37.5 65 37.5 65z" fill="#010101"/></g></svg>