<svg height="128" viewBox="0 0 33.866667 33.866666" width="128" xmlns="http://www.w3.org/2000/svg"><path d="m12.229741.38066559c2.454024 0 4.448581 2.01005371 4.448581 4.48442241 0 2.4735769-1.994557 4.483631-4.448581 4.483631-2.4544157 0-4.4489726-2.0100541-4.4489726-4.483631 0-2.4743687 1.9945569-4.48442241 4.4489726-4.48442241zm9.853403 0c2.454416 0 4.448581 2.01005371 4.448581 4.48442241 0 2.4735769-1.994165 4.483631-4.448581 4.483631-2.454418 0-4.448385-2.0100541-4.448385-4.483631 0-2.4743687 1.993967-4.48442241 4.448385-4.48442241z" fill="#dd3900" fill-rule="evenodd"/><g fill="#3c3c3b"><path d="m8.422452 11.617176h7.986808v21.636988h-7.986808z"/><path d="m17.985706 11.689784h7.986808v21.636988h-7.986808z"/></g></svg>