<svg viewBox="0 0 512 341.9" width="256" xmlns="http://www.w3.org/2000/svg"><path d="m512 16.3v309.4c0 4.6-1.9 8.8-5.1 11.8-2.9 2.8-6.8 4.5-11.2 4.5h-479.4c-4.4 0-8.3-1.7-11.2-4.5-3.1-3-5.1-7.2-5.1-11.8v-309.4c0-4.6 1.9-8.8 5.1-11.8 2.9-2.8 6.8-4.5 11.2-4.5h479.5c4.4 0 8.3 1.7 11.2 4.5 3.1 2.9 5 7.1 5 11.8z" fill="#c9863f"/><path d="m512 325.5v.2c0 4.6-1.9 8.8-5.1 11.8-2.9 2.8-6.8 4.5-11.2 4.5h-479.4c-4.4 0-8.3-1.7-11.2-4.5-3.1-3-5.1-7.2-5.1-11.8l157-160.5 13.2-13.5 63.2-64.7c12.4-12.7 32.9-12.7 45.3 0l63.1 64.5 13.2 13.5z" fill="#221714" opacity=".03"/><path d="m506.9 337.5c-2.9 2.8-6.8 4.5-11.2 4.5h-479.4c-4.4 0-8.3-1.7-11.2-4.5l172.1-153.3 14.8-13.2 64-57 64 57 14.9 13.2z" fill="#dd994b"/><path d="m512 16.3-157 148.8-20.2 19.1-56.2 53.2c-12.4 12.7-32.9 12.7-45.3 0l-56.2-53.2-20.1-19-157-148.8v-.2c0-4.6 1.9-8.8 5.1-11.8 2.9-2.7 6.8-4.4 11.2-4.4h479.5c4.4 0 8.3 1.7 11.2 4.5 3.1 2.9 5 7.1 5 11.8z" fill="#221714" opacity=".1"/><path d="m506.9 4.5-165.1 147-21.9 19.5-47.4 42.1c-9.4 8.5-23.8 8.5-33.2 0l-47.3-42.1-21.8-19.4-165.1-147.1c2.9-2.8 6.8-4.5 11.2-4.5h479.5c4.3 0 8.2 1.7 11.1 4.5z" fill="#dd994b"/></svg>