<svg xmlns="http://www.w3.org/2000/svg" width="76.724" height="33.997" fill="none" viewBox="0 0 76.724 33.997"><g stroke="#202124" stroke-miterlimit="10" stroke-width="1.137" clip-path="url(#a)" transform="translate(-.622 -.001)"><path fill="#4285f4" d="m51.624 8.75-4.015 5.07-2.519 3.181-4.2-5.304a2.47 2.47 0 0 0-1.907-.883c-.437 0-1.258.115-1.908.883l-4.2 5.304-2.462 3.112-.054.07-.057.071-3.959 4.999-1.812 2.29-.116.141c-2.562 3.076-6.213 4.742-10.015 4.742-1.495 0-3.012-.257-4.496-.788-5.294-1.9-8.714-6.765-8.714-12.398v-4.48a5.121 5.121 0 1 0 10.244 0v4.48c0 1.861 1.346 2.544 1.926 2.752.572.206 2.026.53 3.189-.873l3.263-4.118 2.48-3.132.038-.049.029-.036 3.987-5.034 2.742-3.461q.03-.04.061-.075A12.7 12.7 0 0 1 38.988.57c3.823 0 7.41 1.692 9.838 4.644q.03.038.062.075l2.742 3.46z"/><path fill="#ea4335" d="m24.528 6.462 1.813 2.29-3.988 5.035-.028.036-.038.049-2.48 3.132-3.261-4.118c-1.163-1.402-2.616-1.079-3.189-.873-.577.208-1.925.89-1.925 2.752A5.121 5.121 0 1 1 1.19 14.76c0-5.633 3.42-10.498 8.714-12.395 5.256-1.885 10.94-.332 14.508 3.95l.119.142zM30.412 20.11l-.054.07-.056.072.11-.139z"/><path fill="#34a853" d="M22.29 13.87q.03-.044.066-.086l-.028.036zM76.777 14.76v4.48a5.121 5.121 0 1 0-10.244 0v-4.48c0-1.861-1.345-2.544-1.925-2.752-.573-.206-2.026-.53-3.189.873l-3.26 4.118-2.48 3.132-.04.049-.027.036-3.987 5.034-2.742 3.461q-.031.04-.062.075a12.7 12.7 0 0 1-9.838 4.644c-3.823 0-7.41-1.692-9.839-4.644l-.061-.075-2.742-3.463 3.959-4.999q.056-.069.11-.139L32.872 17l4.2 5.304c.65.768 1.472.883 1.908.883.437 0 1.258-.115 1.905-.883l4.2-5.304 2.478-3.13.038-.049.036-.046 3.98-5.024 1.812-2.29q.06-.075.118-.144C57.118 2.033 62.8.483 68.057 2.365c5.291 1.897 8.714 6.762 8.714 12.395z"/><path fill="#fbbc04" d="M47.567 13.87q.036-.049.075-.096l-.036.046zM76.777 19.24c0 5.633-3.42 10.498-8.714 12.395a13.3 13.3 0 0 1-4.496.789c-3.8 0-7.45-1.667-10.012-4.742q-.061-.07-.118-.144l-1.813-2.29 3.987-5.035.028-.036.039-.049 2.48-3.132 3.26 4.118c1.164 1.402 2.62 1.079 3.19.873.577-.208 1.925-.89 1.925-2.752a5.12 5.12 0 0 1 5.122-5.122 5.12 5.12 0 0 1 5.122 5.122z"/></g><defs><clipPath id="a"><path fill="#fff" d="M.62 0h372.76v34H.62z"/></clipPath></defs></svg>