<svg width="167" height="163" viewBox="0 0 167 163" fill="none" xmlns="http://www.w3.org/2000/svg">
<rect y="12.3472" width="150" height="150" rx="20" fill="#E9EEF6"/>
<mask id="mask0_19839_10835" style="mask-type:alpha" maskUnits="userSpaceOnUse" x="0" y="-84" width="188" height="247">
<rect y="-83.6528" width="187.213" height="246" fill="#D9D9D9"/>
</mask>
<g mask="url(#mask0_19839_10835)">
<path d="M54.8756 28.1395C56.5142 22.5713 55.8524 16.574 53.0358 11.4669C50.2193 6.35985 45.4787 2.56134 39.857 0.90703C34.2352 -0.747276 28.1928 -0.121864 23.059 2.64568C17.9252 5.41322 14.1205 10.0962 12.482 15.6644L33.6788 21.902L54.8756 28.1395Z" fill="#128937"/>
<path d="M165.668 61.6202C167.369 55.8378 166.725 49.6226 163.878 44.3418C161.03 39.061 156.212 35.1472 150.483 33.4614C144.754 31.7756 138.584 32.4558 133.33 35.3525C128.076 38.2492 124.168 43.1251 122.467 48.9074L144.067 55.2638L165.668 61.6202Z" fill="#128937"/>
<path d="M156.227 159.303C160.065 146.26 161.307 132.591 159.882 119.078C158.457 105.565 154.393 92.4715 147.922 80.5456C141.45 68.6197 132.698 58.0947 122.166 49.5717C111.633 41.0487 99.5263 34.6944 86.5361 30.8718C73.546 27.0492 59.927 25.8331 46.4569 27.2929C32.9867 28.7527 19.9291 32.8598 8.0297 39.3797C-3.86975 45.8997 -14.378 54.7048 -22.8952 65.2922C-31.4124 75.8797 -37.7716 88.0423 -41.6098 101.085L57.3087 130.194L156.227 159.303Z" fill="#3271EA"/>
<ellipse cx="52.0197" cy="148.164" rx="18.7286" ry="18.939" transform="rotate(-73.6025 52.0197 148.164)" fill="#128937"/>
<circle cx="63.5598" cy="109.492" r="5.53558" transform="rotate(16.6414 63.5598 109.492)" fill="#FCBD00"/>
<ellipse cx="39.6469" cy="73.4496" rx="33.114" ry="33.4589" transform="rotate(16.3975 39.6469 73.4496)" fill="white"/>
<ellipse cx="103.182" cy="92.1468" rx="33.114" ry="33.4589" transform="rotate(16.3975 103.182 92.1468)" fill="white"/>
<ellipse cx="39.648" cy="73.4502" rx="18.6266" ry="18.2817" transform="rotate(16.3975 39.648 73.4502)" fill="#1F1F1F"/>
<ellipse cx="103.179" cy="92.1474" rx="18.6266" ry="18.2817" transform="rotate(16.3975 103.179 92.1474)" fill="#1F1F1F"/>
</g>
</svg>
