<svg enable-background="new 0 0 256 256" height="256" viewBox="0 0 256 256" width="256" xmlns="http://www.w3.org/2000/svg" xmlns:xlink="http://www.w3.org/1999/xlink"><linearGradient id="a" gradientTransform="matrix(-.5915 0 0 -.5915 -34.5417 412.5453)" gradientUnits="userSpaceOnUse" x1="-808.8727" x2="-860.5692" y1="199.8918" y2="49.2029"><stop offset="0" stop-color="#fff"/><stop offset="1" stop-color="#fff" stop-opacity="0"/></linearGradient><g transform="translate(-373.642 -318.344)"><path d="m583.659 328.849h-164.034c-19.599 0-35.487 15.888-35.487 35.487v164.015c0 19.599 15.888 35.486 35.487 35.486h164.033c19.599 0 35.487-15.888 35.487-35.486v-164.014c.001-19.599-15.888-35.488-35.486-35.488z" fill="#1d8cb5"/><path d="m557.056 338.895h-110.829c-29.337 0-52.955 23.81-52.955 53.385v108.127c.95 23.087 4.603 8.491 11.555-17.075 8.081-29.713 34.396-55.682 66.445-75.145 24.461-14.855 51.84-24.341 101.679-25.244 28.265-.511 25.77-36.683-15.895-44.048z" fill="url(#a)" opacity=".7811"/></g><g fill="#fff" transform="matrix(1.018827 0 0 -1.018827 -29.95238 104.07061)"><path d="m109.495-101.774v104.307h-34.667v-104.307zm-17.327 118.549c12.081 0 19.612 8.01 19.612 18.021-.224 10.233-7.531 18.021-19.385 18.021-11.864 0-19.615-7.788-19.615-18.021 0-10.011 7.521-18.021 19.159-18.021z"/><path d="m128.681-101.774h34.673v58.249c0 3.119.226 6.235 1.143 8.462 2.5 6.232 8.209 12.681 17.784 12.681 12.547 0 17.562-9.568 17.562-23.588v-55.804h34.666v59.81c0 32.039-17.1 46.946-39.913 46.946-18.701 0-26.915-10.45-31.476-17.571h.234v15.122h-34.673c.46-9.786 0-104.307 0-104.307z"/></g></svg>