<svg viewBox="0 0 118.87 122.88" xmlns="http://www.w3.org/2000/svg"><path d="m68.34 105.81a54.73 54.73 0 0 1 -14.06 1.87c-27.42.02-54.28-21.87-54.28-53.68 0-32.13 26.86-54 54.28-54 27.87 0 54.43 21.74 54.43 54a52.29 52.29 0 0 1 -20.52 42c3.75 5.89 8 9.81 13.62 9.81 6.15 0 8.62-4.76 9.06-8.49h8v2.88c-.59 7.43-5.12 22.72-24.4 22.72-13.57 0-20.75-7.87-26.13-17.09zm-5.1-10c-4.24-8.37-9.24-16.81-19.01-16.81a14.1 14.1 0 0 0 -5.62 1l-3.32-6.6c4-3.47 10.56-6.19 18.75-6.19 13 0 19.71 6.28 25 14.3 3.15-6.84 4.64-16.08 4.64-27.55 0-28.6-8.93-43.11-29.83-43.11-20.58 0-29.45 14.7-29.45 43.15s8.91 43 29.49 43a32 32 0 0 0 9-1.16h.39z" fill="#b72c27"/></svg>