<svg enable-background="new 0 0 48 48" viewBox="0 0 48 48" xmlns="http://www.w3.org/2000/svg"><g transform="matrix(1.1973589 0 0 1.2577874 -4.765426 -6.129273)"><path d="m8 25v-16c0-1.7 1.4-3 3-3h26c1.7 0 3 1.3 3 3v16" fill="none" stroke="#bdbdbd" stroke-miterlimit="10" stroke-width="2"/><path d="m25 20c0-2.8 2.2-5 5-5s5 2.2 5 5-2.2 5-5 5-5-2.2-5-5zm18.8 1.6c.1-.2.2-.3.2-.6 0-.6-.4-1-1-1-.2 0-.4.1-.6.2s-.1.1-.1.1c-.9.9-6.1 5.7-11.3 5.7h-3.7c-1.3 0-2.3 1.1-2.3 2.3v11.1c0 2 1.6 3.6 3.6 3.6h1.3c3.9 0 7.2-3.2 7.2-7.2 0 0 .1-3.6-1.4-6 3.1-1.3 7.6-6.2 8.1-8.2z" fill="#0277bd"/><path d="m25 30.7v4.1c1.9-.6 6.2-2.5 6-6.8-2.5 2.4-4.7 2.8-6 2.7z" fill="#01579b"/><path d="m18 15c2.8 0 5 2.2 5 5s-2.2 5-5 5-5-2.2-5-5 2.2-5 5-5zm13 13c0-.6-.4-1-1-1-.4 0-.8.3-.9.6-1.1 2-3.3 3.2-6.8-1.1v.1c-.4-.4-1-.6-1.6-.6h-3.7c-5.2 0-10.4-4.8-11.3-5.7 0 0-.1-.1-.1-.1-.2-.1-.4-.2-.6-.2-.6 0-1 .4-1 1 0 .2.1.4.2.6.5 2 5 7 8.2 8.2-1.5 2.5-1.4 6-1.4 6 0 3.9 3.2 7.2 7.2 7.2h1.3c2 0 3.6-1.6 3.6-3.6v-7.6c2 .9 6.4 1.3 7.8-3.3 0-.1.1-.3.1-.5z" fill="#fb8c00"/></g></svg>